<svg width="410" height="49" viewBox="0 0 410 49" fill="none" xmlns="http://www.w3.org/2000/svg">
<path d="M390.137 10.0406C389.681 10.0565 389.219 10.0674 388.772 10.0912C388.481 10.1061 388.357 10.0624 388.163 10.0396C388.098 10.0316 388.029 10.0157 387.969 10.0177C387.517 10.0336 387.065 10.0515 386.613 10.0694C386.474 10.1081 386.387 10.1598 386.174 10.1787C385.967 10.1966 385.722 10.1966 385.492 10.2055C385.187 10.2165 384.883 10.2274 384.578 10.2373C384.426 10.2423 384.301 10.2612 384.251 10.2969C384.242 10.3029 384.343 10.3178 384.398 10.3268C384.583 10.3566 384.763 10.3903 384.966 10.4132C385.159 10.4351 385.399 10.3993 385.607 10.4271C386.073 10.4897 386.078 10.4887 386.433 10.4768C386.737 10.4659 387.042 10.454 387.346 10.446C387.406 10.444 387.475 10.4589 387.54 10.4669C387.734 10.4887 387.858 10.5384 388.144 10.5195C388.361 10.5046 388.601 10.5017 388.827 10.4937C389.016 10.5225 389.192 10.5553 389.395 10.5782C389.584 10.6 389.639 10.6169 389.538 10.6457C389.445 10.6726 389.316 10.6835 389.146 10.6855C388.993 10.6865 388.841 10.6954 388.689 10.7004C388.61 10.7034 388.537 10.7054 388.463 10.7083C388.172 10.7193 388.172 10.7193 387.642 10.6557C387.434 10.6308 387.199 10.6656 387 10.6418C386.867 10.6259 386.751 10.602 386.622 10.5851C386.567 10.5782 386.479 10.5772 386.41 10.5792C386.179 10.5861 385.948 10.5911 385.727 10.604C385.57 10.6129 385.478 10.6408 385.496 10.6686C385.501 10.6795 385.612 10.6954 385.676 10.6964C385.824 10.6984 385.981 10.6845 386.124 10.6915C386.262 10.6984 386.405 10.7183 386.507 10.7401C386.714 10.7859 386.949 10.7451 387.148 10.757C387.355 10.77 387.526 10.8097 387.725 10.8336C387.775 10.8395 387.872 10.8296 387.951 10.8266C388.177 10.8196 388.403 10.8137 388.629 10.8067C388.818 10.8355 389.021 10.8614 389.192 10.8942C389.501 10.9538 389.833 10.9766 390.234 10.9478C390.46 10.9319 390.682 10.9379 390.862 10.9766C391.046 11.0164 391.258 11.0124 391.494 11.0045C391.711 10.9965 391.932 10.9747 392.153 11.0025C392.633 11.0641 392.638 11.0671 393.205 11.0432C393.376 11.0363 393.505 11.0343 393.634 11.0571C393.754 11.078 393.883 11.0959 394.008 11.1158C394.234 11.1088 394.465 11.1019 394.691 11.0939C394.981 11.083 395.143 11.0969 395.212 11.1525C395.254 11.1863 395.272 11.2171 395.374 11.24C395.494 11.2678 395.623 11.2668 395.798 11.2589C395.964 11.2519 396.084 11.241 396.153 11.2052C396.181 11.1903 396.236 11.1764 396.287 11.1645C396.329 11.1555 396.393 11.1416 396.43 11.1436C396.499 11.1476 396.592 11.1585 396.615 11.1714C396.841 11.2917 396.841 11.2927 397.071 11.3274C397.325 11.3662 397.588 11.401 397.819 11.4447C398.026 11.4834 398.234 11.4666 398.46 11.4666C398.631 11.4666 398.741 11.4924 398.728 11.5182C398.718 11.5331 398.654 11.555 398.598 11.557C398.146 11.5768 397.69 11.5937 397.233 11.6077C397.177 11.6096 397.108 11.5918 397.044 11.5828C396.915 11.5649 396.799 11.5371 396.661 11.5311C396.522 11.5252 396.361 11.5401 396.209 11.545C396.056 11.55 395.895 11.5629 395.757 11.555C395.618 11.547 395.507 11.5182 395.378 11.4993C395.318 11.4904 395.235 11.4775 395.184 11.4805C394.848 11.5043 394.599 11.4715 394.359 11.4278C394.308 11.4189 394.22 11.4129 394.156 11.4149C393.621 11.4318 393.09 11.4516 392.555 11.4705C392.338 11.4785 392.163 11.4437 392.117 11.3851C392.093 11.3523 392.047 11.3195 392.047 11.2867C392.047 11.2271 391.794 11.1943 391.609 11.2012C391.305 11.2112 390.996 11.2191 390.696 11.234C390.451 11.2459 390.243 11.234 390.077 11.1982C389.884 11.1575 389.662 11.1655 389.441 11.1764C389.275 11.1843 389.229 11.2171 389.238 11.2996C389.247 11.3662 389.169 11.3871 388.869 11.398C388.49 11.4119 388.107 11.4258 387.725 11.4367C387.665 11.4387 387.595 11.4218 387.535 11.4129C387.406 11.395 387.291 11.3662 387.152 11.3602C387.014 11.3533 386.853 11.3682 386.7 11.3741C386.548 11.3791 386.387 11.393 386.248 11.3861C386.11 11.3791 385.995 11.3493 385.87 11.3304C385.81 11.3215 385.736 11.3085 385.676 11.3105C385.372 11.3185 385.067 11.3304 384.763 11.3413C384.421 11.3533 384.421 11.3533 383.937 11.2917C383.716 11.2638 383.494 11.2857 383.277 11.2936C383.047 11.3016 382.83 11.3056 382.65 11.2658C382.53 11.24 382.396 11.2241 382.253 11.2291C381.87 11.241 381.492 11.2559 381.109 11.2678C381.044 11.2698 380.957 11.2648 380.906 11.2559C380.662 11.2142 380.422 11.1814 380.08 11.2022C379.785 11.2201 379.467 11.2211 379.171 11.238C379.01 11.2469 378.936 11.2787 378.968 11.3036C378.987 11.3165 379.084 11.3314 379.148 11.3314C379.296 11.3324 379.457 11.3175 379.596 11.3235C379.882 11.3354 380.025 11.4188 380.398 11.396C380.62 11.3821 380.851 11.3771 381.081 11.3731C381.141 11.3721 381.206 11.391 381.27 11.401C381.455 11.4278 381.616 11.4626 381.884 11.4447C382.105 11.4308 382.341 11.4268 382.567 11.4189C382.927 11.4059 382.927 11.4069 383.393 11.4675C383.614 11.4964 383.835 11.4735 384.052 11.4666C384.214 11.4616 384.366 11.4516 384.495 11.4656C384.694 11.4864 384.837 11.5341 385.081 11.5311C385.312 11.5282 385.538 11.5142 385.768 11.5093C385.911 11.5063 386.045 11.5222 386.161 11.549C386.281 11.5759 386.41 11.5878 386.567 11.5818C386.793 11.5739 387.023 11.5639 387.254 11.559C387.319 11.558 387.392 11.5669 387.452 11.5749C387.582 11.5928 387.706 11.6136 387.831 11.6325C388.057 11.6265 388.287 11.6246 388.509 11.6126C388.68 11.6037 388.8 11.6077 388.938 11.6275C389.113 11.6544 389.256 11.7021 389.542 11.6792C389.685 11.6683 389.851 11.6713 389.994 11.6613C390.17 11.6484 390.29 11.6534 390.414 11.6832C390.649 11.7398 390.945 11.7408 391.249 11.719C391.581 11.6951 391.831 11.7229 392.08 11.7667C392.343 11.8124 392.343 11.8114 392.546 11.9217C392.606 11.9535 392.776 11.9684 392.919 11.9624C393.159 11.9525 393.367 11.9574 393.542 11.9952C393.727 12.0359 393.948 12.031 394.174 12.0201C394.474 12.0051 394.774 11.9922 395.018 12.0499C395.138 12.0777 395.268 12.0846 395.429 12.0777C395.886 12.0598 396.347 12.0489 396.795 12.027C397.067 12.0131 397.224 12.0449 397.408 12.0717C397.657 12.1085 397.929 12.1413 397.929 12.2198C397.929 12.2327 397.994 12.2476 398.049 12.2576C398.169 12.2784 398.299 12.2963 398.423 12.3162C398.608 12.346 398.788 12.3708 399.041 12.3549C399.263 12.342 399.498 12.338 399.724 12.3291C399.95 12.3202 400.158 12.3152 400.361 12.3529C400.596 12.3957 400.845 12.4364 401.113 12.4682C401.302 12.4911 401.551 12.4523 401.754 12.4831C401.879 12.502 401.998 12.5239 402.132 12.5398C402.188 12.5467 402.275 12.5417 402.349 12.5398C402.501 12.5358 402.658 12.5328 402.806 12.5229C402.977 12.5119 403.106 12.5139 403.235 12.5368C403.355 12.5577 403.475 12.5865 403.613 12.5924C403.821 12.6014 404.051 12.5616 404.259 12.6073C404.365 12.6302 404.499 12.6521 404.637 12.659C404.776 12.666 404.937 12.6511 405.085 12.6521C405.149 12.6521 405.228 12.668 405.265 12.6809C405.288 12.6878 405.256 12.7067 405.223 12.7166C405.182 12.7286 405.122 12.7445 405.062 12.7465C404.605 12.7643 404.148 12.7793 403.692 12.7961C403.419 12.8061 403.419 12.8061 402.87 12.7435C402.741 12.7286 402.598 12.7315 402.437 12.7385C402.22 12.7474 401.999 12.7643 401.772 12.7465C401.477 12.6789 401.113 12.6729 400.725 12.6988C400.564 12.7097 400.416 12.7097 400.296 12.6908C400.042 12.653 399.775 12.6183 399.549 12.5736C399.373 12.5388 399.29 12.5358 399.217 12.5835C399.194 12.5984 399.17 12.6143 399.175 12.6282C399.203 12.6779 399.253 12.7266 399.281 12.7763C399.29 12.7902 399.254 12.8061 399.23 12.821C399.157 12.8627 399.06 12.8597 398.898 12.825C398.737 12.7902 398.543 12.7673 398.285 12.7832C398.063 12.7971 397.823 12.7952 397.602 12.8101C397.261 12.8319 397.021 12.8001 396.776 12.7574C396.725 12.7484 396.638 12.7435 396.573 12.7455C395.886 12.7683 395.203 12.7942 394.516 12.817C394.368 12.822 394.234 12.8071 394.119 12.7802C393.999 12.7534 393.865 12.7395 393.717 12.7445C393.108 12.7653 392.499 12.7842 391.89 12.8101C391.641 12.821 391.443 12.8081 391.272 12.7733C391.143 12.7474 391.023 12.7395 390.862 12.7425C390.686 12.7455 390.562 12.7554 390.474 12.7842C390.391 12.812 390.451 12.8289 390.636 12.8508C390.834 12.8746 391.019 12.9055 391.208 12.9333C391.36 12.9293 391.512 12.9213 391.66 12.9223C391.724 12.9223 391.784 12.9402 391.849 12.9502C392.034 12.979 392.204 13.0078 392.467 12.9919C392.689 12.978 392.924 12.975 393.15 12.9661C393.464 12.9551 393.464 12.9551 393.971 13.0177C394.1 13.0336 394.239 13.0326 394.405 13.0237C394.548 13.0167 394.695 13.0307 394.797 13.0605C394.838 13.0724 394.825 13.0923 394.737 13.1579C394.737 13.2066 394.834 13.1847 394.866 13.1529C394.917 13.1072 394.82 13.0923 394.635 13.1171C394.506 13.135 394.442 13.1608 394.474 13.1817C394.492 13.1926 394.58 13.2066 394.737 13.1579C395.143 13.0982 395.452 13.0913 395.747 13.0754C395.923 13.0664 396.033 13.0704 396.172 13.0962C396.338 13.127 396.504 13.1599 396.776 13.144C397.071 13.1261 397.385 13.1241 397.685 13.1092C397.962 13.0952 398.105 13.139 398.28 13.1648C398.492 13.1956 398.728 13.1608 398.921 13.1787C399.124 13.1966 399.267 13.2403 399.503 13.2483C399.844 13.2215 400.061 13.2711 400.319 13.3039C400.522 13.3288 400.762 13.3069 400.979 13.296C401.223 13.2841 401.426 13.295 401.597 13.3308C401.791 13.3715 402.008 13.3626 402.229 13.3536C402.746 13.3337 402.764 13.3308 403.064 13.3854C403.281 13.4252 403.489 13.4073 403.705 13.4023C403.895 13.4291 404.079 13.458 404.277 13.4818C404.328 13.4878 404.425 13.4778 404.504 13.4749C404.73 13.4669 404.96 13.459 405.186 13.451C405.339 13.446 405.5 13.4311 405.638 13.4371C405.777 13.444 405.892 13.4729 406.017 13.4918C406.141 13.5106 406.271 13.5295 406.39 13.5494C406.575 13.5792 406.75 13.604 407.009 13.5891C407.23 13.5762 407.461 13.5722 407.691 13.5633C407.982 13.5524 407.973 13.5553 408.513 13.615C408.803 13.6478 409.103 13.608 409.398 13.604C409.546 13.6021 409.689 13.613 409.79 13.6418C409.832 13.6537 409.818 13.6736 409.832 13.6905C409.071 13.7173 408.305 13.7402 407.553 13.773C407.262 13.7859 407.11 13.7501 406.953 13.7203C406.695 13.6726 406.354 13.7422 406.109 13.6805C405.961 13.6438 405.749 13.6229 405.495 13.6408C405.348 13.6507 405.191 13.6497 405.039 13.6587C404.651 13.6806 404.296 13.6815 403.987 13.613C403.881 13.5891 403.729 13.5762 403.618 13.5534C403.489 13.5285 403.364 13.5146 403.212 13.5196C402.524 13.5434 401.842 13.5673 401.159 13.5931C401.099 13.5951 401.039 13.61 400.988 13.6209C400.859 13.6488 400.9 13.6706 401.108 13.6885C401.177 13.6945 401.233 13.7074 401.297 13.7173C401.422 13.7362 401.537 13.766 401.675 13.773C401.814 13.7799 401.975 13.766 402.128 13.761C402.28 13.7561 402.441 13.7412 402.58 13.7471C402.718 13.7541 402.833 13.7829 402.963 13.8008C403.023 13.8097 403.096 13.8246 403.156 13.8236C403.461 13.8177 403.761 13.8068 404.065 13.7978C404.254 13.8246 404.416 13.8634 404.642 13.8723C404.785 13.8783 404.937 13.8674 405.085 13.8694C405.149 13.8704 405.232 13.8853 405.265 13.8982C405.283 13.9061 405.223 13.926 405.177 13.9359C405.002 13.9737 404.762 13.9667 404.545 13.9787C404.31 13.9916 404.098 13.9876 403.918 13.9489C403.798 13.923 403.664 13.9091 403.516 13.9141C403.133 13.927 402.755 13.9419 402.372 13.9528C402.307 13.9548 402.229 13.9459 402.169 13.9389C401.685 13.8783 401.685 13.8763 401.343 13.8892C400.84 13.9081 400.841 13.9081 400.504 13.8554C400.439 13.8455 400.37 13.8266 400.315 13.8276C399.779 13.8435 399.249 13.8594 398.718 13.8823C398.543 13.8892 398.423 13.8892 398.294 13.8634C398.183 13.8415 398.054 13.8167 397.916 13.8107C397.773 13.8048 397.616 13.8197 397.463 13.8246C397.311 13.8296 397.15 13.8425 397.016 13.8346C396.878 13.8266 396.758 13.7988 396.638 13.7789C396.513 13.7581 396.379 13.7591 396.209 13.767C395.683 13.7899 395.678 13.7869 395.157 13.7253C395.097 13.7183 395.018 13.7104 394.954 13.7124C394.571 13.7243 394.193 13.7392 393.81 13.7511C393.662 13.7561 393.519 13.7432 393.418 13.7143C393.376 13.7024 393.39 13.6825 393.362 13.6438C393.33 13.6348 393.367 13.6507 393.376 13.6657C393.445 13.6637 393.528 13.6656 393.579 13.6577C393.708 13.6388 393.773 13.614 393.74 13.5931C393.722 13.5822 393.634 13.5683 393.579 13.5683C393.478 13.5683 393.39 13.5901 393.362 13.6438C393.072 13.6766 392.762 13.6835 392.463 13.6994C392.287 13.7094 392.177 13.7044 392.038 13.6786C391.872 13.6468 391.701 13.616 391.429 13.6319C391.134 13.6497 390.82 13.6527 390.516 13.6666C390.165 13.6825 390.013 13.5931 389.718 13.5951C389.413 13.5971 389.109 13.614 388.804 13.6259C388.537 13.6358 388.537 13.6358 387.983 13.5712C387.78 13.5474 387.54 13.5822 387.342 13.5573C387.208 13.5414 387.093 13.5176 386.963 13.5007C386.908 13.4937 386.82 13.4937 386.751 13.4957C386.368 13.5076 385.981 13.5156 385.612 13.5375C385.192 13.5633 384.874 13.5355 384.574 13.4768C384.195 13.4878 383.812 13.4937 383.439 13.5126C383.167 13.5265 383.01 13.4937 382.825 13.4669C382.761 13.458 382.705 13.4431 382.636 13.4391C382.567 13.4351 382.484 13.4431 382.41 13.446C382.105 13.457 381.792 13.4619 381.496 13.4798C381.132 13.5027 380.994 13.4212 380.712 13.4113C380.523 13.4599 380.422 13.5265 380.048 13.5315C379.743 13.5355 379.439 13.5514 379.134 13.5623C378.982 13.5673 378.83 13.5732 378.678 13.5782C378.433 13.5871 378.318 13.6259 378.369 13.6855C378.396 13.7183 378.419 13.7511 378.442 13.7839C378.489 13.8425 378.373 13.8922 378.179 13.8992C377.644 13.9181 377.114 13.9379 376.579 13.9548C376.436 13.9598 376.297 13.9429 376.182 13.9161C376.062 13.8892 375.928 13.8773 375.78 13.8823C375.245 13.9012 374.715 13.921 374.18 13.9379C374.12 13.9399 374.041 13.93 373.981 13.922C373.852 13.9041 373.728 13.8833 373.603 13.8644C373.298 13.8733 372.999 13.8793 372.699 13.8912C372.214 13.9091 372.214 13.9101 371.859 13.8554C371.795 13.8455 371.73 13.8266 371.67 13.8276C371.439 13.8316 371.213 13.8415 370.983 13.8505C370.304 13.8763 370.304 13.8763 370.106 13.8465C369.926 13.8187 369.765 13.7849 369.492 13.8008C369.197 13.8187 368.883 13.8246 368.579 13.8346C368.353 13.8415 368.127 13.8495 367.901 13.8515C367.841 13.8525 367.776 13.8336 367.712 13.8236C367.527 13.7928 367.347 13.768 367.093 13.7849C366.946 13.7948 366.789 13.7968 366.637 13.8018C366.24 13.8157 366.24 13.8157 365.589 13.7561C365.525 13.7501 365.446 13.7432 365.382 13.7461C364.847 13.764 364.316 13.7839 363.781 13.8008C363.716 13.8028 363.638 13.7968 363.573 13.7918C362.845 13.7342 362.845 13.7342 362.069 13.762C361.774 13.772 361.765 13.776 361.456 13.7233C361.317 13.7004 361.202 13.6895 361.041 13.6965C360.432 13.7203 359.818 13.7362 359.214 13.764C358.942 13.776 358.785 13.7461 358.6 13.7193C358.536 13.7104 358.466 13.6905 358.411 13.6915C357.802 13.7104 357.193 13.7332 356.584 13.7521C356.529 13.7541 356.46 13.7342 356.395 13.7253C356.27 13.7074 356.15 13.6806 356.012 13.6746C355.869 13.6686 355.712 13.6835 355.555 13.6885C355.172 13.7014 355.172 13.7004 354.729 13.6418C354.669 13.6339 354.591 13.6229 354.531 13.6249C353.922 13.6448 353.309 13.6617 352.704 13.6905C352.358 13.7064 352.123 13.6776 351.878 13.6358C351.828 13.6269 351.74 13.6229 351.675 13.6249C350.988 13.6478 350.305 13.6736 349.618 13.6965C349.475 13.7014 349.336 13.6845 349.221 13.6587C349.037 13.6179 348.82 13.6229 348.589 13.6319C348.059 13.6527 348.054 13.6517 347.74 13.604C347.676 13.5941 347.62 13.5812 347.551 13.5762C347.487 13.5712 347.404 13.5742 347.334 13.5762C347.03 13.5862 346.725 13.5971 346.421 13.608C346.116 13.6189 345.807 13.6249 345.507 13.6418C345.138 13.6627 344.963 13.5981 344.705 13.5683C344.326 13.5812 343.939 13.5891 343.565 13.61C343.279 13.6259 343.145 13.5822 342.956 13.5593C342.892 13.5514 342.822 13.5345 342.762 13.5365C342.075 13.5583 341.388 13.5822 340.705 13.609C340.539 13.615 340.428 13.607 340.29 13.5832C339.981 13.5295 339.967 13.5315 339.45 13.5514C339.224 13.5603 339.007 13.5683 338.813 13.5275C338.643 13.4908 338.435 13.4818 338.19 13.4937C337.891 13.5086 337.582 13.5166 337.277 13.5265C336.973 13.5375 336.668 13.5524 336.364 13.5573C336.119 13.5623 335.971 13.5156 335.778 13.4918C335.718 13.4848 335.635 13.4838 335.565 13.4858C335.261 13.4947 334.947 13.5017 334.652 13.5186C334.292 13.5394 334.094 13.4848 333.84 13.453C333.785 13.446 333.692 13.45 333.623 13.453C333.088 13.4709 332.557 13.4908 332.022 13.5096C331.833 13.4828 331.639 13.457 331.45 13.4301C331.146 13.4401 330.841 13.451 330.537 13.4609C330.306 13.4689 330.071 13.4719 329.854 13.4868C329.573 13.5067 329.434 13.4599 329.245 13.4371C329.18 13.4291 329.111 13.4123 329.051 13.4142C328.668 13.4252 328.286 13.4371 327.907 13.454C327.547 13.4709 327.404 13.3814 327.109 13.3824C326.805 13.3834 326.491 13.3964 326.196 13.4142C325.854 13.4351 325.614 13.4033 325.37 13.3606C325.319 13.3516 325.231 13.3467 325.167 13.3486C324.784 13.3606 324.406 13.3755 324.023 13.3874C323.958 13.3894 323.88 13.3844 323.815 13.3785C323.086 13.3198 323.086 13.3188 322.768 13.3308C322.542 13.3387 322.311 13.3487 322.081 13.3536C322.016 13.3556 321.937 13.3467 321.877 13.3387C321.398 13.2781 321.398 13.2771 321.052 13.289C320.747 13.3 320.443 13.3109 320.138 13.3218C319.949 13.295 319.755 13.2692 319.566 13.2423C319.188 13.2552 318.8 13.2652 318.427 13.2831C318.251 13.291 318.136 13.288 318.002 13.2632C317.836 13.2334 317.67 13.1986 317.393 13.2155C317.098 13.2334 316.784 13.2354 316.484 13.2503C316.125 13.2682 315.977 13.1777 315.686 13.1787C315.382 13.1797 315.068 13.1926 314.773 13.2105C314.431 13.2314 314.192 13.1996 313.947 13.1569C313.896 13.1479 313.809 13.143 313.744 13.1449C312.904 13.1738 312.069 13.2026 311.23 13.2334C310.713 13.2523 310.713 13.2533 309.73 13.1986C309.661 13.1946 309.587 13.1907 309.518 13.1926C309.214 13.2016 308.9 13.2085 308.605 13.2254C308.245 13.2463 308.046 13.1926 307.793 13.1598C307.737 13.1529 307.65 13.1569 307.576 13.1588C307.345 13.1658 307.119 13.1748 306.889 13.1827C306.584 13.1936 306.28 13.2046 305.975 13.2155C305.786 13.1897 305.592 13.1628 305.403 13.137C305.025 13.1499 304.637 13.1569 304.264 13.1777C303.977 13.1936 303.844 13.1519 303.655 13.128C303.59 13.1201 303.521 13.1032 303.461 13.1042C302.773 13.1261 302.086 13.1489 301.403 13.1767C301.122 13.1887 300.993 13.1439 300.803 13.1211C300.739 13.1141 300.665 13.1012 300.605 13.1032C300.148 13.1171 299.692 13.134 299.235 13.1509C298.977 13.1608 298.977 13.1608 298.414 13.0992C298.349 13.0923 298.275 13.0853 298.211 13.0873C296.762 13.137 295.318 13.1897 293.87 13.2393C293.722 13.2443 293.588 13.2294 293.473 13.2026C293.353 13.1757 293.219 13.1618 293.071 13.1668C292.462 13.1877 291.849 13.2066 291.245 13.2324C290.995 13.2433 290.797 13.2304 290.626 13.1956C290.497 13.1698 290.377 13.1598 290.216 13.1658C289.911 13.1777 289.607 13.1877 289.302 13.1986C288.998 13.2095 288.693 13.2205 288.389 13.2314C288.084 13.2423 287.775 13.2483 287.475 13.2652C287.106 13.286 286.926 13.2244 286.673 13.1936C286.216 13.2085 285.759 13.2234 285.307 13.2393C284.698 13.2602 284.089 13.2831 283.48 13.3029C283.425 13.3049 283.356 13.287 283.291 13.2781C283.102 13.2533 282.963 13.2185 282.682 13.2294C281.316 13.2821 279.942 13.3268 278.572 13.3785C278.285 13.3894 278.161 13.3467 277.967 13.3238C277.903 13.3169 277.829 13.3029 277.769 13.3049C277.008 13.3298 276.246 13.3576 275.485 13.3844C275.176 13.3954 275.176 13.3954 274.659 13.3337C274.599 13.3268 274.521 13.3178 274.456 13.3198C273.464 13.3536 272.477 13.3894 271.485 13.4242C271.338 13.4291 271.204 13.4152 271.084 13.3884C270.969 13.3616 270.83 13.3467 270.687 13.3516C269.774 13.3834 268.856 13.4142 267.947 13.449C267.702 13.459 267.499 13.45 267.324 13.4142C267.199 13.3884 267.075 13.3775 266.918 13.3834C265.548 13.4321 264.178 13.4788 262.807 13.5305C262.544 13.5404 262.36 13.5216 262.194 13.4888C262.06 13.4629 261.945 13.458 261.779 13.4619C261.603 13.4669 261.497 13.4778 261.4 13.5076C261.276 13.5464 261.197 13.5951 260.902 13.5981C260.598 13.6011 260.289 13.613 259.989 13.6299C259.703 13.6468 259.569 13.6021 259.389 13.5752C259.255 13.5563 259.131 13.5534 258.96 13.5623C258.803 13.5703 258.706 13.5871 258.614 13.6189C258.411 13.6865 258.392 13.6865 258.143 13.6438C258.01 13.6209 257.89 13.603 257.742 13.607C257.133 13.6269 256.524 13.6488 255.915 13.6716C255.564 13.6845 255.56 13.6865 255.297 13.6368C255.168 13.612 255.043 13.6001 254.891 13.606C253.216 13.6656 251.542 13.7233 249.867 13.7859C249.609 13.7958 249.433 13.775 249.249 13.7451C249.189 13.7352 249.129 13.7213 249.06 13.7173C248.99 13.7133 248.912 13.7173 248.838 13.7193C247.62 13.762 246.398 13.8028 245.184 13.8505C244.907 13.8614 244.76 13.8296 244.571 13.8038C244.506 13.7948 244.451 13.7809 244.382 13.7769C244.312 13.774 244.229 13.7809 244.155 13.7839C242.938 13.8266 241.715 13.8674 240.502 13.9151C240.211 13.926 240.086 13.8843 239.897 13.8624C239.833 13.8545 239.764 13.8395 239.704 13.8415C239.321 13.8525 238.942 13.8674 238.559 13.8803C237.646 13.9131 236.732 13.9439 235.819 13.9777C235.468 13.9906 235.316 13.9021 235.021 13.9061C234.638 13.9111 234.26 13.931 233.877 13.9449C233.572 13.9558 233.268 13.9658 232.963 13.9777C232.663 13.9886 232.663 13.9886 231.916 13.931C231.852 13.926 231.773 13.919 231.709 13.921C230.643 13.9578 229.573 13.9946 228.511 14.0343C228.267 14.0433 228.064 14.0383 227.889 14.0015C227.764 13.9757 227.635 13.9628 227.483 13.9687C225.882 14.0254 224.286 14.082 222.685 14.1377C222.625 14.1397 222.546 14.1297 222.486 14.1218C222.357 14.1039 222.233 14.083 222.108 14.0641C222.016 14.087 221.896 14.1079 221.836 14.1337C221.753 14.1685 221.642 14.1784 221.467 14.1844C221.292 14.1903 221.181 14.1883 221.042 14.1625C220.876 14.1307 220.706 14.1059 220.433 14.1158C218.759 14.1784 217.084 14.2351 215.409 14.2967C215.133 14.3066 215.003 14.2629 214.81 14.24C214.745 14.2331 214.671 14.2221 214.611 14.2241C213.924 14.247 213.241 14.2718 212.554 14.2957C210.648 14.3632 208.743 14.4278 206.842 14.4994C206.496 14.5123 206.261 14.4875 206.017 14.4447C205.966 14.4358 205.878 14.4308 205.814 14.4328C203.147 14.5262 200.48 14.6206 197.819 14.715C197.675 14.72 197.537 14.7041 197.422 14.6782C197.302 14.6514 197.168 14.6385 197.02 14.6435C195.802 14.6862 194.585 14.7289 193.367 14.7727C193.062 14.7836 193.057 14.7846 192.744 14.7369C192.679 14.7269 192.61 14.7081 192.559 14.7101C192.453 14.715 192.352 14.7399 192.278 14.7736C192.204 14.8094 192.089 14.8194 191.918 14.8263C191.743 14.8333 191.627 14.8303 191.494 14.8064C191.323 14.7766 191.166 14.7478 190.889 14.7577C187.388 14.8849 183.886 15.0072 180.384 15.1334C180.103 15.1433 179.974 15.1016 179.78 15.0787C179.715 15.0718 179.651 15.0618 179.582 15.0598C179.508 15.0578 179.429 15.0638 179.356 15.0668C173.644 15.2685 167.933 15.4712 162.222 15.673C161.88 15.6849 161.885 15.6849 161.511 15.7763C161.465 15.7872 161.405 15.8021 161.34 15.8041C159.592 15.8677 157.839 15.9293 156.086 15.9909C155.324 16.0178 154.563 16.0456 153.802 16.0714C153.53 16.0804 153.53 16.0804 152.879 16.1877C152.824 16.1967 152.759 16.2086 152.695 16.2106C149.65 16.3189 146.605 16.4272 143.556 16.5335C143.316 16.5415 143.122 16.5594 143.011 16.6071C142.933 16.6408 142.831 16.6607 142.679 16.6667C140.548 16.7422 138.416 16.8187 136.28 16.8923C136.027 16.9012 135.874 16.929 135.75 16.9708C135.708 16.9847 135.671 17.0006 135.611 17.0105C135.556 17.0194 135.473 17.0224 135.404 17.0254C133.577 17.09 131.75 17.1566 129.918 17.2182C129.646 17.2271 129.536 17.2639 129.402 17.3027C129.356 17.3156 129.323 17.3335 129.263 17.3424C129.203 17.3504 129.116 17.3504 129.042 17.3523C127.519 17.406 125.997 17.4607 124.475 17.5143C124.179 17.5093 124.115 17.567 123.972 17.6018C123.921 17.6137 123.884 17.6296 123.824 17.6375C123.76 17.6455 123.676 17.6445 123.598 17.6465C122.38 17.6892 121.162 17.7349 119.94 17.7747C119.658 17.7836 119.603 17.8343 119.451 17.8691C119.4 17.88 119.349 17.8969 119.289 17.8999C118.528 17.9287 117.767 17.9555 117.006 17.9814C116.752 17.9903 116.752 17.9893 116.304 18.0877C116.254 18.0986 116.194 18.1106 116.129 18.1135C114.989 18.1553 113.845 18.195 112.701 18.2358C112.554 18.2407 112.452 18.2646 112.378 18.2984C112.305 18.3321 112.198 18.354 112.051 18.359C111.137 18.3918 110.224 18.4256 109.31 18.4554C109.057 18.4633 108.891 18.4882 108.78 18.5329C108.697 18.5667 108.595 18.5836 108.434 18.5895C107.52 18.6213 106.607 18.6561 105.689 18.6839C105.421 18.6919 105.283 18.7257 105.172 18.7674C105.084 18.8012 104.983 18.8131 104.812 18.8191C103.138 18.8767 101.458 18.9343 99.7883 18.9979C99.5069 19.0089 99.3639 18.9741 99.1793 18.9492C98.9164 18.9145 98.6719 18.8767 98.6719 18.7992C98.6719 18.7873 98.5935 18.7734 98.5381 18.7634C98.1275 18.6889 98.1275 18.6889 98.0629 18.6094C98.026 18.5607 97.9845 18.511 97.9522 18.4613C97.8922 18.3798 97.7445 18.359 97.3201 18.3739C97.1679 18.3789 97.0156 18.3858 96.8634 18.3898C96.6373 18.3967 96.4667 18.3639 96.4251 18.3043C96.4021 18.2715 96.3744 18.2387 96.3514 18.2059C96.582 18.198 96.5774 18.197 96.9833 18.0768C97.154 18.0261 97.1541 18.0261 96.8266 17.9754C96.702 17.9565 96.582 17.9356 96.4482 17.9178C96.3883 17.9098 96.3099 17.9048 96.2453 17.9068C95.8624 17.9188 95.4841 17.9327 95.1058 17.9466C94.4968 17.9684 94.4967 17.9684 93.8785 17.8671C93.8278 17.8591 93.7493 17.8442 93.7586 17.8363C93.8093 17.7995 93.9339 17.7836 94.0907 17.7796C94.3214 17.7737 94.5474 17.7637 94.7735 17.7558C94.9257 17.7508 95.078 17.7449 95.2302 17.7399C95.3732 17.7021 95.5209 17.6654 95.6547 17.6266C95.867 17.567 95.8669 17.565 95.5762 17.5233C95.3917 17.4954 95.1933 17.4706 95.0042 17.4448C94.7781 17.4527 94.5475 17.4616 94.3214 17.4686C94.0354 17.4775 93.92 17.4587 93.8462 17.3941C93.7816 17.3374 93.86 17.2887 94.0815 17.2768C94.3075 17.2649 94.5199 17.2569 94.6352 17.2063C94.7459 17.1576 94.9396 17.1387 95.1795 17.1347C95.3318 17.1317 95.484 17.1248 95.6363 17.1188C95.8346 17.1109 95.9408 17.0602 95.8993 17.0035C95.8762 16.9668 95.83 16.936 95.6501 16.928C94.852 16.8932 94.8427 16.8942 94.446 16.8267C94.4091 16.8207 94.3814 16.8028 94.3953 16.7939C94.4184 16.779 94.4691 16.7571 94.5245 16.7541C95.055 16.7323 95.5855 16.7124 96.1161 16.6975C96.2914 16.6925 96.4206 16.6855 96.4806 16.6488C96.5636 16.5981 96.5267 16.5514 96.3652 16.5166C96.3145 16.5057 96.2314 16.4918 96.176 16.4928C95.567 16.5107 94.9627 16.5335 94.3537 16.5514C94.2984 16.5534 94.1969 16.5365 94.1739 16.5236C94.1277 16.4997 94.1969 16.4679 94.3583 16.457C94.5706 16.4421 94.7874 16.4411 94.9304 16.3914C95.1288 16.3209 95.3733 16.2563 95.5947 16.1887C95.6316 16.1768 95.6917 16.1539 95.6778 16.1519C95.5625 16.1301 95.4287 16.1132 95.3087 16.0923C95.1057 16.0575 95.1057 16.0088 95.1518 15.9621C95.1887 15.9244 95.3271 15.9095 95.4978 15.9095C95.5717 15.9095 95.6639 15.9095 95.7239 15.9005C95.8807 15.8787 95.9315 15.8508 95.8531 15.83C95.8069 15.818 95.7239 15.8012 95.6686 15.8031C94.6813 15.8359 93.6894 15.8677 92.7067 15.9085C92.4161 15.9204 92.2824 15.8826 92.1071 15.8558C91.9733 15.8349 91.8486 15.827 91.6825 15.8419C91.5257 15.8558 91.3735 15.8479 91.2766 15.8151C91.1982 15.7882 91.3366 15.7654 91.7103 15.7395C91.7795 15.7346 91.8579 15.7316 91.9086 15.7216C92.4438 15.6143 92.4437 15.6133 92.8128 15.5994C93.1727 15.5865 93.1727 15.5855 93.3619 15.5279C93.4495 15.501 93.5463 15.4742 93.6294 15.4464C93.6617 15.4355 93.7171 15.4156 93.6987 15.4096C93.5972 15.3788 93.4587 15.3719 93.2972 15.3788C92.9374 15.3957 92.513 15.3818 92.3239 15.4762C92.2501 15.512 92.1347 15.5219 91.9686 15.5279C90.2986 15.5855 88.6285 15.6471 86.9538 15.7028C86.6816 15.7117 86.5571 15.7485 86.451 15.7892C86.3588 15.823 86.2572 15.8329 86.0819 15.8389C85.9066 15.8449 85.7681 15.8479 85.6667 15.8151C85.6067 15.7952 85.6574 15.7674 85.7958 15.7395C85.9942 15.6998 85.9573 15.6501 85.8927 15.6034C85.8466 15.5726 85.7036 15.5507 85.5513 15.5527C85.3253 15.5567 85.1085 15.5676 84.9193 15.5279C84.8086 15.505 84.6702 15.4891 84.5456 15.4692C84.3057 15.4285 84.0658 15.3868 83.729 15.4136C83.4984 15.4037 83.3369 15.3679 83.1524 15.3401C82.8433 15.2944 82.8156 15.2874 83.037 15.2387C83.2862 15.184 83.0924 15.1125 83.2308 15.0588C83.3784 15.0012 83.5814 14.9505 83.7614 14.8969C83.8075 14.883 83.849 14.87 83.8952 14.8561C83.7891 14.8362 83.6922 14.8114 83.5676 14.7975C83.4062 14.7796 83.3231 14.7577 83.3324 14.6961C83.3001 14.6872 83.3138 14.71 83.3507 14.716C83.3922 14.722 83.4938 14.717 83.5446 14.7101C83.6737 14.6912 83.7382 14.6663 83.706 14.6455C83.6875 14.6345 83.5999 14.6206 83.5446 14.6206C83.4431 14.6206 83.3554 14.6425 83.3277 14.6961C82.811 14.7369 82.2758 14.7568 81.7406 14.7727C81.6853 14.7746 81.6161 14.7548 81.5515 14.7448C81.3393 14.711 81.3393 14.712 80.7165 14.7021C80.6519 14.7011 80.5643 14.6872 80.532 14.6733C80.3982 14.6127 80.4028 14.5461 80.3383 14.4815C80.4582 14.4398 80.5781 14.399 80.7026 14.3583C80.9517 14.2758 81.2748 14.2033 81.4685 14.1128C81.427 14.0641 81.3716 14.0154 81.5746 13.9757C82.1513 13.926 82.1467 13.926 82.3036 13.8783C82.7511 13.7432 83.1939 13.607 83.6599 13.4739C83.7845 13.4391 83.7845 13.4202 83.563 13.4053C83.4938 13.4013 83.4199 13.4003 83.3461 13.4023C83.1154 13.4093 82.8848 13.4272 82.6587 13.4232C82.4326 13.4202 82.2666 13.3765 82.082 13.3496C81.8929 13.3218 81.7037 13.293 81.5146 13.2642C81.2978 13.2672 81.081 13.295 80.8641 13.2503C80.6981 13.2155 80.4905 13.1906 80.3013 13.1618C80.4443 13.0863 80.712 13.0287 80.9196 12.9621C81.1087 12.9015 81.1132 12.9025 81.6207 12.8558C81.8606 12.8339 81.9436 12.7216 81.7406 12.6888C81.4961 12.6491 81.2378 12.6123 80.9887 12.5745C80.7719 12.5775 80.5505 12.6044 80.3429 12.5596C80.1814 12.5259 79.9968 12.503 79.7293 12.5159C79.2771 12.5378 78.8158 12.5487 78.3591 12.5666C78.2022 12.5726 78.0315 12.5686 77.9623 12.5348C77.9162 12.511 78.05 12.4782 78.2022 12.4712C78.4329 12.4613 78.6404 12.4493 78.7558 12.3997C78.8665 12.35 79.0695 12.3351 79.3094 12.3281C79.374 12.3261 79.4478 12.3142 79.4801 12.3023C79.6462 12.2446 79.8308 12.1949 80.186 12.1969C80.3336 12.1771 80.412 12.1522 80.3659 12.1284C80.3382 12.1154 80.2413 12.0986 80.186 12.1005C79.8031 12.1105 79.4202 12.1204 79.0465 12.1383C78.8712 12.1463 78.7373 12.1482 78.6266 12.1184C78.5482 12.0986 78.5897 12.0717 78.7373 12.0429C78.8665 12.0181 78.9034 11.9892 78.8942 11.9555C78.8711 11.877 78.7327 11.8541 78.2898 11.8591C77.9715 11.863 77.8931 11.8501 77.8239 11.7825C77.8054 11.7667 77.7594 11.7448 77.7917 11.7339C77.99 11.6663 78.1192 11.5828 78.4929 11.551C78.6405 11.5391 78.7973 11.5391 78.8896 11.5133C78.9819 11.4874 79.0649 11.4576 79.1618 11.4328C79.2818 11.4029 79.3647 11.3751 79.3094 11.3563C79.2171 11.3225 79.0695 11.3195 78.8988 11.3314C78.7512 11.3413 78.5943 11.3423 78.4421 11.3483C78.1699 11.3592 77.9485 11.3334 77.9162 11.2897C77.8286 11.1744 77.7363 11.0601 77.6578 10.9449C77.6486 10.9309 77.6716 10.913 77.7085 10.9011C77.8377 10.8594 77.9762 10.8196 78.11 10.7789C78.2668 10.7322 78.516 10.7411 78.7282 10.7322C79.0281 10.7193 79.028 10.7203 79.4293 10.6249C79.5862 10.5871 79.8584 10.602 80.0199 10.5682C80.0706 10.5573 80.149 10.5394 80.1352 10.5295C80.1167 10.5166 80.0245 10.5066 79.9553 10.5007C79.8907 10.4947 79.8123 10.4917 79.7431 10.4947C78.9035 10.5235 78.0685 10.5543 77.2288 10.5821C77.0858 10.5871 76.929 10.5653 76.8782 10.5344C76.8275 10.5056 76.8413 10.4708 76.832 10.438C76.9658 10.3973 77.118 10.3595 77.2333 10.3158C77.321 10.282 77.4225 10.2671 77.5978 10.2651C77.8285 10.2622 78.0546 10.2502 78.3129 10.2413C78.7927 10.0962 79.2632 9.94418 79.7799 9.79909C79.9875 9.74046 79.9369 9.68083 79.9784 9.61823C80.0199 9.56059 80.329 9.56955 80.5366 9.55265C80.7027 9.53874 80.758 9.50694 80.6934 9.48507C80.6565 9.47216 80.5735 9.45725 80.5089 9.45725C80.3567 9.45725 80.2044 9.46619 80.0522 9.47116C79.8999 9.47613 79.7246 9.47316 79.6001 9.49005C79.4801 9.50595 79.4017 9.53973 79.3232 9.56854C79.2356 9.60034 79.1203 9.61128 78.945 9.61327C78.7189 9.61526 78.4929 9.62419 78.2668 9.63115C78.0177 9.59239 77.7593 9.55464 77.5194 9.5139C77.4733 9.50595 77.464 9.4831 77.4686 9.46819C77.4779 9.42943 77.4087 9.40558 77.2564 9.3867C77.1273 9.3708 77.0211 9.34795 76.9012 9.32807C76.9935 9.30124 77.095 9.2754 77.1688 9.24658C77.3303 9.18596 77.5333 9.14225 77.8839 9.14424C78.0223 9.10548 78.133 9.05778 78.3129 9.03095C78.4836 9.00511 78.7743 9.03094 78.9034 8.97231C78.968 8.9435 79.065 8.9107 79.1895 8.89878C79.3879 8.8799 79.6463 8.88985 79.7616 8.8342C79.8308 8.8024 79.9322 8.77357 80.066 8.76562C80.2183 8.75668 80.3751 8.7547 80.4858 8.73582C80.5458 8.72588 80.6104 8.70998 80.6104 8.69607C80.6104 8.68713 80.5182 8.67321 80.4536 8.66725C80.3936 8.66029 80.3151 8.65532 80.2459 8.65731C80.0152 8.66327 79.7892 8.6742 79.5585 8.68017C79.4939 8.68215 79.4201 8.6752 79.3509 8.66924C79.1479 8.65334 79.1618 8.63347 79.3232 8.59769C79.4847 8.56291 79.6001 8.51819 79.7339 8.47744C79.8815 8.47049 80.066 8.47347 80.1675 8.45459C80.3382 8.42379 80.4581 8.37907 80.5965 8.34031C80.7488 8.33435 80.9056 8.33237 81.0486 8.32144C81.1086 8.31746 81.1363 8.2956 81.1871 8.28268C81.2793 8.25784 81.3578 8.22206 81.4824 8.21014C81.6854 8.19225 81.9345 8.19921 82.0544 8.14455C82.1236 8.11275 82.2297 8.07897 82.3589 8.07699C82.7187 8.07301 82.871 8.01834 83.0555 7.96667C83.1939 7.92792 83.4892 7.9478 83.6414 7.90904C83.7429 7.8842 83.8168 7.85339 83.9183 7.82954C83.9598 7.8196 84.0474 7.81464 84.1166 7.81166C84.4949 7.79675 84.8778 7.78582 85.2561 7.76992C85.3161 7.76694 85.3715 7.75204 85.4176 7.74011C85.5145 7.71428 85.5744 7.6785 85.6944 7.66161C85.8143 7.64471 85.985 7.64472 86.1326 7.63975C86.6078 7.62484 86.6447 7.62881 86.8616 7.54434C87.0369 7.47578 87.466 7.52447 87.609 7.44895C87.692 7.40523 87.8442 7.36945 88.1164 7.36449C88.4993 7.35753 88.8776 7.33865 89.2605 7.32573C89.6019 7.3138 89.5973 7.3138 89.9664 7.22138C90.1325 7.17965 90.377 7.18562 90.5938 7.17767C90.8245 7.16972 91.0367 7.1578 91.1474 7.10811C91.2582 7.05942 91.4611 7.04351 91.6964 7.03655C91.9132 7.0296 92.1578 7.03457 92.3285 6.99483C92.7437 6.89943 92.7391 6.89843 93.0297 6.88849C93.4865 6.87259 93.9432 6.85669 94.3999 6.8398C94.7044 6.82887 95.0227 6.82688 95.3087 6.80502C95.5163 6.78912 95.6086 6.73348 95.7424 6.69472C96.1207 6.67981 96.4989 6.6649 96.8772 6.65099C97.4078 6.63112 97.9429 6.61323 98.4781 6.59435C98.7087 6.55659 98.7411 6.47312 99.1286 6.46914C99.3593 6.46716 99.5854 6.45424 99.816 6.44629C100.199 6.43238 100.577 6.41449 100.96 6.40753C101.251 6.40257 101.301 6.3489 101.454 6.31511C101.504 6.30319 101.551 6.2863 101.611 6.28332C102.21 6.2555 102.828 6.24953 103.414 6.20879C103.474 6.20482 103.53 6.18395 103.544 6.16904C103.553 6.16109 103.474 6.14619 103.424 6.13924C103.364 6.13129 103.285 6.12334 103.221 6.12532C101.315 6.1919 99.41 6.25948 97.5047 6.32606C97.2371 6.33599 97.2371 6.33499 96.5867 6.4443C96.5313 6.45325 96.4666 6.46318 96.3974 6.46616C96.0929 6.47809 95.7839 6.48505 95.484 6.49996C95.2395 6.51188 95.0366 6.49995 94.8612 6.46417C94.7367 6.43833 94.6074 6.43039 94.4506 6.43238C94.2753 6.43536 94.16 6.44629 94.0585 6.47312C93.9247 6.50989 93.8555 6.55758 93.5741 6.56752C92.2777 6.61025 90.9813 6.65795 89.6895 6.70366C89.5096 6.68975 89.422 6.66888 89.4681 6.64404C89.4958 6.62913 89.5512 6.60926 89.6065 6.60727C90.1371 6.5864 90.6722 6.56852 91.2027 6.54865C91.2765 6.54567 91.378 6.54764 91.4195 6.53771C91.6225 6.49299 91.6964 6.42045 92.0793 6.41548C92.3008 6.4125 92.5268 6.3976 92.739 6.38369C92.799 6.37971 92.8544 6.35884 92.8682 6.34394C92.8728 6.33599 92.799 6.32108 92.7437 6.31412C92.5407 6.2853 92.3054 6.32009 92.1024 6.30022C92.0332 6.29326 91.9363 6.28332 91.9225 6.2714C91.9132 6.26047 91.9917 6.24258 92.047 6.23165C92.0978 6.22171 92.1669 6.21277 92.2361 6.20979C92.8451 6.18693 93.4542 6.16308 94.0631 6.14519C94.3123 6.13824 94.4875 6.11339 94.5982 6.06768C94.6813 6.03389 94.7828 6.01601 94.9396 6.01104C96.0053 5.97428 97.071 5.93353 98.1413 5.89975C98.4089 5.8918 98.5473 5.85901 98.6581 5.81628C98.7457 5.78249 98.8472 5.77057 99.0179 5.7646C100.545 5.71293 102.063 5.6553 103.59 5.60561C103.871 5.59667 103.954 5.55394 104.097 5.51717C104.148 5.50425 104.18 5.48835 104.245 5.4804C104.309 5.47245 104.392 5.47344 104.471 5.47145C105.689 5.42872 106.907 5.38302 108.129 5.34327C108.415 5.33432 108.471 5.28463 108.618 5.24985C108.669 5.23892 108.715 5.22104 108.775 5.21806C109.689 5.18427 110.602 5.15247 111.516 5.11968C112.125 5.09782 112.733 5.07595 113.342 5.05509C113.642 5.04515 113.642 5.04415 114.048 4.94975C114.094 4.93882 114.159 4.9259 114.219 4.92291C115.972 4.85932 117.721 4.79871 119.474 4.73611C119.621 4.73114 119.727 4.70827 119.801 4.67449C119.875 4.6407 119.981 4.61784 120.124 4.61288C121.494 4.56319 122.865 4.5145 124.239 4.4678C124.488 4.45985 124.664 4.436 124.774 4.39128C124.858 4.35749 124.959 4.33961 125.116 4.33464C126.486 4.28694 127.856 4.23626 129.231 4.19055C129.494 4.1816 129.623 4.14782 129.752 4.10807C129.798 4.09416 129.835 4.0713 129.891 4.06931C130.574 4.04149 131.252 4.01267 131.939 3.99379C132.225 3.98584 132.322 3.9441 132.437 3.90435C132.53 3.87256 132.636 3.86163 132.811 3.85765C133.194 3.84871 133.572 3.83182 133.946 3.81493C134.001 3.81195 134.071 3.79008 134.075 3.77617C134.084 3.75034 133.978 3.73245 133.803 3.7235C131.976 3.78809 130.145 3.85268 128.318 3.91727C128.018 3.9282 128.018 3.92821 127.612 4.02261C127.566 4.03354 127.501 4.04646 127.436 4.04945C125.683 4.11205 123.935 4.17366 122.182 4.23626C122.034 4.24123 121.928 4.26409 121.854 4.29787C121.78 4.33166 121.674 4.35452 121.531 4.35948C119.857 4.41911 118.182 4.47973 116.503 4.53637C116.254 4.54432 116.078 4.56716 115.968 4.61288C115.885 4.64666 115.783 4.66456 115.626 4.66952C114.025 4.72517 112.429 4.7838 110.824 4.83746C110.662 4.84242 110.542 4.81361 110.551 4.78678C110.556 4.77286 110.625 4.75002 110.681 4.74803C111.516 4.71524 112.346 4.68145 113.186 4.65661C113.467 4.64866 113.55 4.60493 113.693 4.56816C113.739 4.55524 113.776 4.53835 113.836 4.5314C113.901 4.52345 113.984 4.52444 114.062 4.52246C116.041 4.4519 118.021 4.38036 120.004 4.31378C120.29 4.30384 120.346 4.25514 120.493 4.22036C120.544 4.20844 120.59 4.19056 120.65 4.18857C121.259 4.16472 121.868 4.14385 122.477 4.12298C123.543 4.08522 124.608 4.04746 125.679 4.00969C125.988 3.99876 125.988 3.99876 126.385 3.90535C126.431 3.89442 126.495 3.88052 126.555 3.87853C129.374 3.77816 132.193 3.6778 135.012 3.57842C135.159 3.57346 135.265 3.5506 135.339 3.51681C135.413 3.48402 135.519 3.46017 135.662 3.45421C139.473 3.31906 143.279 3.18391 147.09 3.05075C147.339 3.04181 147.514 3.02094 147.625 2.97424C147.703 2.94045 147.809 2.92257 147.966 2.9166C152.155 2.76854 156.344 2.62048 160.538 2.47142C163.356 2.37205 166.175 2.27069 168.994 2.17331C169.252 2.16436 169.391 2.13355 169.52 2.09281C169.561 2.0789 169.603 2.05604 169.658 2.05405C170.263 2.02921 170.867 2.00636 171.471 1.9835C171.66 2.01033 171.85 2.03617 172.039 2.063C172.182 2.02524 172.32 1.98649 172.463 1.94872C173.377 1.91991 174.276 1.87519 175.199 1.86128C175.259 1.86028 175.324 1.87917 175.388 1.8891C175.817 1.95171 176.062 1.94674 176.334 1.86327C176.431 1.83345 176.514 1.80663 176.661 1.80166C177.118 1.78377 177.58 1.77184 178.032 1.75098C178.276 1.74004 178.479 1.74998 178.654 1.78575C178.779 1.81159 178.908 1.82253 179.06 1.81656C179.9 1.78675 180.735 1.75793 181.575 1.72613C181.635 1.72415 181.69 1.70725 181.736 1.69532C181.833 1.66949 181.916 1.64167 182.008 1.61484C182.133 1.63173 182.271 1.64465 182.373 1.66651C182.502 1.69235 182.622 1.69234 182.797 1.68539C186.147 1.56515 189.501 1.44789 192.85 1.32666C193.136 1.31672 193.26 1.35846 193.454 1.38032C193.519 1.38827 193.583 1.3982 193.653 1.40019C193.726 1.40218 193.805 1.39622 193.879 1.39324C196.393 1.30381 198.907 1.21536 201.422 1.12592C201.754 1.114 201.754 1.114 202.247 1.17561C202.307 1.18356 202.386 1.1925 202.45 1.18952C203.594 1.15077 204.739 1.10904 205.878 1.06929C206.026 1.06432 206.15 1.08021 206.284 1.10307C206.547 1.14779 206.565 1.14779 206.759 1.08221C206.851 1.0514 206.948 1.03251 207.101 1.02357C207.267 1.01363 207.401 1.01662 207.53 1.03451C207.714 1.05935 207.848 1.10108 208.13 1.09015C209.347 1.04345 210.57 1.00469 211.783 0.956996C212.06 0.946066 212.208 0.97985 212.392 1.00469C212.457 1.01364 212.517 1.02755 212.586 1.03053C212.655 1.03351 212.738 1.02655 212.812 1.02357C214.334 0.969907 215.861 0.91725 217.379 0.859614C217.665 0.848683 217.79 0.891405 217.984 0.913267C218.048 0.921216 218.122 0.935136 218.182 0.933148C219.095 0.902343 220.014 0.869541 220.927 0.836748C221.255 0.824824 221.255 0.825817 221.753 0.886434C221.813 0.894384 221.891 0.902335 221.956 0.900348C223.022 0.86358 224.092 0.825818 225.158 0.788057C225.485 0.776133 225.485 0.776135 226.431 0.827808C226.5 0.831783 226.574 0.837753 226.643 0.835766C227.861 0.793036 229.083 0.751294 230.301 0.705583C230.546 0.696639 230.749 0.704587 230.924 0.740361C231.049 0.766197 231.178 0.777134 231.33 0.771172C232.7 0.72248 234.075 0.675777 235.441 0.624103C235.704 0.614166 235.874 0.636019 236.059 0.664837C236.119 0.674774 236.179 0.688689 236.248 0.692664C236.317 0.696639 236.396 0.692661 236.47 0.68968C237.84 0.640988 239.215 0.595279 240.58 0.542612C240.857 0.531681 241.005 0.565465 241.189 0.590308C241.254 0.599252 241.323 0.61714 241.378 0.616146C241.913 0.599253 242.449 0.584352 242.979 0.559509C243.265 0.545597 243.39 0.5913 243.583 0.613162C243.648 0.620118 243.722 0.635031 243.782 0.633044C244.926 0.594289 246.07 0.553549 247.21 0.511813C247.371 0.505851 247.491 0.514786 247.62 0.540622C247.791 0.575403 247.989 0.589315 248.238 0.578384C248.769 0.555529 249.304 0.539634 249.839 0.520753C250.153 0.509822 250.153 0.509825 251.113 0.561499C251.182 0.565474 251.256 0.571432 251.325 0.569444C252.238 0.537645 253.156 0.506842 254.065 0.472062C254.31 0.462125 254.513 0.471066 254.688 0.506839C254.812 0.532676 254.937 0.543613 255.094 0.53765C255.933 0.507839 256.769 0.478025 257.608 0.448213C257.913 0.437283 258.217 0.418397 258.522 0.418397C258.743 0.419391 258.905 0.467087 259.103 0.490937C259.158 0.497893 259.251 0.489952 259.324 0.487965C260.39 0.450203 261.46 0.41542 262.521 0.37269C262.798 0.361759 262.946 0.395544 263.13 0.420386C263.195 0.42933 263.264 0.447218 263.32 0.446224C263.702 0.435293 264.081 0.420386 264.464 0.407468C264.92 0.391568 265.382 0.379644 265.834 0.357782C266.203 0.339895 266.341 0.426345 266.637 0.429327C266.863 0.432308 267.093 0.415417 267.319 0.407468C267.776 0.391568 268.233 0.373683 268.69 0.359771C268.851 0.354803 268.976 0.338896 269.026 0.303122C269.036 0.296166 268.957 0.281267 268.906 0.272323C268.293 0.170964 268.293 0.170959 267.675 0.192821C267.292 0.206733 266.913 0.220648 266.53 0.232572C266.466 0.23456 266.392 0.226611 266.328 0.220648C266.143 0.203755 266.161 0.183883 266.318 0.148109C266.475 0.112335 266.595 0.0686153 266.729 0.0278729C266.918 0.0537095 267.103 0.0795369 267.292 0.105374C267.444 0.100405 267.596 0.0944514 267.748 0.0894829C268.51 0.0636462 269.271 0.0368139 270.032 0.0129647C270.087 0.0109772 270.157 0.0308545 270.221 0.0407917C270.406 0.0696095 270.572 0.0944456 270.839 0.0835147C271.522 0.0546969 272.21 0.0338289 272.892 0.00898591C273.192 -0.00194498 273.192 -0.00194401 273.718 0.0596665C273.778 0.0666225 273.857 0.0745727 273.921 0.0725853C274.609 0.0497298 275.291 0.0248898 275.979 0.00104054C276.126 -0.00392805 276.269 0.00898979 276.376 0.0378076C276.417 0.0497322 276.408 0.0696027 276.583 0.232572C277.127 0.364737 277.501 0.350832 277.88 0.338907C278.041 0.333938 278.184 0.328965 278.29 0.309091C278.345 0.29816 278.415 0.282258 278.415 0.269339C278.415 0.259402 278.313 0.2435 278.249 0.241512C277.792 0.221638 277.358 0.26338 276.911 0.272323C276.703 0.276298 276.523 0.241518 276.486 0.184876C276.477 0.168976 276.463 0.152084 276.449 0.136185C276.435 0.120285 276.426 0.103393 276.412 0.0874935C276.233 0.0825249 276.126 0.100409 276.048 0.134195C275.983 0.162019 275.891 0.193818 275.767 0.208724C275.642 0.224624 275.471 0.221648 275.319 0.226616C275.171 0.231585 275.01 0.244502 274.872 0.237546C274.733 0.229596 274.622 0.200773 274.493 0.182886C274.433 0.173943 274.359 0.16103 274.299 0.163017C273.769 0.17991 273.243 0.196797 272.717 0.218659C272.44 0.230583 272.302 0.188854 272.127 0.163017C271.988 0.143143 271.85 0.148105 271.827 0.193816C271.767 0.303125 271.979 0.348833 272.45 0.327965C272.837 0.310078 273.188 0.307107 273.492 0.374679C273.534 0.383623 273.631 0.387596 273.69 0.385609C274.069 0.373684 274.442 0.358777 274.821 0.346852C274.89 0.344865 274.964 0.348833 275.028 0.352808C275.97 0.406469 275.97 0.407468 276.288 0.395544C276.44 0.389581 276.588 0.384612 276.574 0.233567C276.865 0.0715911 277.326 0.0606621 277.773 0.0368129C278.064 0.0219071 278.189 0.0656327 278.378 0.0884882C278.442 0.0964379 278.512 0.112334 278.572 0.110347C279.563 0.0775544 280.551 0.0427694 281.538 0.00600185C281.704 3.95398e-05 281.824 0.00600282 281.953 0.0318395C282.119 0.0646322 282.304 0.0855046 282.567 0.07358C283.093 0.0497308 283.628 0.0348284 284.163 0.014954C284.435 0.00501686 284.435 0.00500667 284.984 0.0666172C285.044 0.0735732 285.122 0.0815234 285.187 0.079536C285.722 0.0626428 286.253 0.041781 286.783 0.0238941C286.931 0.0189255 287.065 0.0328361 287.18 0.0596665C287.295 0.0864969 287.434 0.100407 287.577 0.0954389C288.112 0.0775519 288.643 0.0576839 289.173 0.039797C289.238 0.0378095 289.316 0.0447651 289.376 0.0517211C289.939 0.113332 289.939 0.113321 290.197 0.103384C290.576 0.0884785 290.963 0.0815302 291.337 0.0616559C291.701 0.0417815 291.89 0.0994123 292.139 0.131211C292.822 0.108356 293.51 0.08948 294.188 0.0616559C294.465 0.0497312 294.612 0.082521 294.797 0.108358C294.861 0.117301 294.926 0.136184 294.986 0.13519C295.217 0.131215 295.443 0.120286 295.669 0.112336C295.895 0.104387 296.126 0.0964379 296.352 0.0884882C296.61 0.117306 296.781 0.184878 297.15 0.162022C297.371 0.14811 297.606 0.145129 297.832 0.137179C298.059 0.12923 298.289 0.121281 298.515 0.113331C298.667 0.108363 298.824 0.105377 298.972 0.0964336C299.244 0.0815278 299.378 0.130226 299.572 0.152088C299.636 0.159044 299.71 0.17096 299.77 0.168973C300.227 0.155061 300.688 0.143137 301.136 0.120282C301.482 0.102395 301.717 0.13221 301.961 0.173946C302.012 0.18289 302.1 0.187858 302.164 0.185871C302.7 0.168977 303.23 0.148103 303.761 0.130217C303.904 0.125248 304.042 0.141147 304.157 0.166984C304.277 0.193814 304.411 0.206742 304.559 0.201773C305.089 0.183887 305.625 0.164006 306.155 0.146119C306.22 0.144132 306.298 0.152083 306.358 0.160033C306.875 0.221643 306.875 0.222638 307.179 0.210713C307.253 0.207732 307.331 0.205737 307.405 0.202756C307.784 0.188844 308.176 0.183882 308.545 0.160033C308.969 0.133203 309.278 0.16699 309.578 0.223632C309.956 0.211708 310.344 0.20475 310.713 0.184876C310.99 0.16997 311.138 0.207729 311.322 0.232572C311.387 0.241516 311.456 0.259403 311.511 0.257415C312.046 0.240522 312.581 0.225622 313.107 0.200779C313.393 0.186867 313.518 0.231576 313.712 0.254431C313.776 0.262381 313.846 0.2763 313.905 0.274313C314.21 0.266363 314.515 0.254433 314.819 0.243502C315.174 0.230583 315.174 0.231576 315.645 0.292193C315.866 0.321011 316.088 0.298154 316.305 0.291198C316.535 0.283249 316.752 0.277288 316.937 0.318031C317.052 0.343867 317.19 0.359767 317.333 0.355792C317.638 0.346849 317.947 0.33791 318.247 0.323004C318.487 0.311079 318.694 0.319025 318.87 0.355792C318.994 0.381629 319.123 0.394555 319.276 0.388593C319.958 0.364744 320.646 0.339891 321.328 0.317036C321.388 0.315049 321.471 0.323995 321.527 0.332939C321.656 0.350826 321.781 0.370696 321.905 0.39057C322.205 0.381627 322.514 0.377662 322.809 0.36375C323.123 0.349838 323.409 0.344868 323.654 0.399522C323.704 0.411447 323.778 0.428331 323.838 0.427337C324.069 0.423362 324.295 0.413428 324.521 0.405478C324.747 0.397529 324.978 0.38958 325.204 0.38163C325.467 0.406473 325.633 0.47802 326.002 0.455164C326.223 0.441252 326.459 0.438271 326.685 0.430321C326.911 0.422371 327.141 0.413429 327.367 0.406473C327.441 0.404486 327.524 0.399514 327.589 0.403489C327.658 0.407464 327.718 0.421379 327.778 0.431316C327.963 0.460134 328.133 0.488955 328.396 0.472062C328.618 0.45815 328.853 0.455168 329.079 0.446224C329.388 0.435293 329.388 0.435295 329.9 0.497899C330.108 0.523736 330.343 0.489951 330.541 0.511813C330.675 0.526719 330.791 0.551556 330.92 0.568449C330.975 0.575405 331.063 0.578382 331.127 0.576395C331.432 0.567451 331.741 0.558512 332.041 0.543606C332.285 0.531682 332.488 0.543605 332.659 0.579379C332.784 0.605216 332.908 0.616152 333.065 0.61019C333.826 0.582366 334.587 0.558509 335.344 0.527704C335.602 0.516773 335.81 0.53367 335.953 0.569444C336.197 0.631055 336.544 0.558515 336.797 0.608201C336.954 0.639006 337.111 0.674782 337.397 0.659876C337.923 0.634039 338.458 0.620119 338.989 0.602232C339.178 0.629063 339.367 0.655899 339.561 0.682729C339.865 0.671798 340.17 0.660861 340.474 0.650924C340.7 0.642974 340.931 0.634031 341.157 0.627075C341.231 0.625088 341.309 0.621112 341.378 0.626081C341.448 0.631049 341.503 0.64397 341.568 0.653908C341.886 0.7026 341.886 0.703598 342.412 0.683724C342.638 0.674781 342.855 0.668818 343.044 0.708567C343.219 0.745335 343.427 0.752286 343.667 0.741355C344.119 0.721481 344.576 0.706576 345.037 0.692664C345.18 0.687696 345.314 0.704589 345.434 0.730426C345.613 0.771168 345.835 0.767194 346.061 0.756263C346.361 0.742351 346.656 0.728442 346.91 0.784091C346.961 0.796015 347.039 0.812899 347.094 0.811905C347.473 0.803956 347.856 0.797998 348.225 0.779117C348.594 0.760236 348.774 0.821845 349.027 0.851656C349.406 0.838738 349.789 0.825818 350.167 0.8129C350.241 0.809919 350.328 0.800981 350.393 0.805949C350.665 0.826817 350.822 0.901344 351.196 0.878489C351.412 0.86557 351.648 0.861601 351.874 0.858619C351.934 0.857626 352.012 0.874511 352.054 0.887429C352.077 0.894385 352.054 0.913264 352.026 0.923201C351.943 0.951025 351.842 0.97687 351.768 1.00569C351.758 1.00966 351.846 1.02754 351.897 1.03549C352.021 1.05338 352.164 1.0504 352.331 1.04245C352.474 1.0355 352.621 1.04941 352.723 1.07922C352.764 1.09115 352.75 1.11102 352.663 1.1766C352.663 1.2253 352.76 1.20343 352.792 1.17163C352.843 1.12592 352.746 1.11102 352.561 1.13586C352.432 1.15375 352.368 1.17958 352.4 1.20045C352.418 1.21138 352.506 1.2253 352.663 1.1766C353.069 1.11698 353.373 1.10606 353.678 1.09512C353.756 1.09214 353.848 1.0822 353.904 1.08816C354.102 1.11201 354.287 1.14083 354.48 1.16766C354.702 1.1617 354.909 1.14679 355.126 1.18554C355.431 1.2402 355.445 1.23523 355.74 1.2243C355.892 1.21834 356.044 1.21338 356.197 1.20841C356.349 1.20344 356.469 1.21834 356.603 1.2412C356.875 1.2879 356.898 1.2879 357.078 1.2243C357.184 1.18555 357.258 1.17263 357.391 1.19052C357.834 1.25113 357.839 1.25511 358.217 1.23722C358.531 1.22231 358.826 1.21834 359.057 1.27498C359.214 1.31473 359.264 1.30579 359.389 1.26405C359.721 1.15375 359.873 1.15573 360.496 1.23523C360.787 1.27299 361.087 1.23225 361.382 1.22728C361.631 1.22331 361.806 1.24715 361.825 1.30976C361.839 1.34851 361.88 1.37634 362.046 1.38926C362.111 1.39423 362.189 1.40118 362.254 1.3992C362.637 1.38727 363.015 1.37336 363.398 1.35944C363.592 1.35249 363.698 1.30579 363.661 1.24418C363.62 1.1786 363.693 1.15474 363.97 1.13586C364.136 1.12493 364.27 1.12692 364.404 1.14481C364.552 1.16468 364.51 1.18257 364.381 1.21834C364.072 1.30579 364.109 1.35944 364.505 1.42006C364.644 1.44093 364.754 1.45982 364.787 1.49062C364.805 1.50652 364.787 1.52739 364.828 1.53931C365.054 1.60589 365.368 1.64863 365.719 1.68043C366.055 1.6536 366.286 1.6983 366.544 1.73408C366.747 1.7619 366.987 1.73806 367.204 1.72812C367.449 1.71719 367.652 1.72514 367.827 1.76191C367.952 1.78774 368.081 1.79966 368.233 1.79469C368.537 1.78376 368.846 1.77681 369.146 1.76091C369.405 1.747 369.599 1.76688 369.76 1.80066C369.963 1.84339 370.189 1.81457 370.401 1.82053C370.687 1.82749 370.83 1.91593 371.204 1.89208C371.425 1.87816 371.656 1.8732 371.887 1.86922C371.947 1.86823 372.021 1.88512 372.071 1.89705C372.316 1.9517 372.602 1.94872 372.916 1.93282C373.132 1.92189 373.345 1.91196 373.557 1.94972C373.907 2.01332 374.295 2.06897 374.664 2.1276C374.715 2.17331 374.678 2.22696 374.941 2.25379C375.079 2.2677 375.208 2.28858 375.315 2.31143C375.444 2.33826 375.564 2.34522 375.73 2.33827C376.03 2.32435 376.343 2.32136 376.639 2.30348C376.911 2.28758 377.081 2.32038 377.248 2.35119C377.381 2.37603 377.506 2.38795 377.667 2.37006C377.833 2.35317 377.953 2.36409 378.087 2.39092C378.276 2.42769 378.29 2.42372 378.918 2.43465C378.982 2.43565 379.061 2.45055 379.098 2.46346C379.116 2.47042 379.074 2.49031 379.042 2.50024C379.001 2.51217 378.936 2.52607 378.876 2.52905C378.193 2.55489 377.506 2.57774 376.823 2.60358C376.754 2.60656 376.68 2.61353 376.629 2.62346C376.574 2.63439 376.505 2.64929 376.505 2.6632C376.505 2.67314 376.597 2.68507 376.662 2.69202C376.865 2.71488 377.105 2.6801 377.303 2.70594C377.437 2.72283 377.547 2.74667 377.681 2.76257C377.737 2.76953 377.824 2.76854 377.893 2.76655C378.124 2.7596 378.35 2.74966 378.581 2.7437C378.645 2.74271 378.719 2.75265 378.779 2.7606C379.222 2.82022 379.222 2.82022 379.605 2.8073C379.757 2.80233 379.919 2.78742 380.062 2.79338C380.2 2.79935 380.32 2.82618 380.445 2.84307C380.703 2.87884 380.948 2.91362 380.966 2.99113C380.975 3.02095 381.127 3.04678 381.28 3.04876C381.427 3.05075 381.584 3.03983 381.736 3.03387C382.096 3.02194 382.096 3.02194 382.562 3.08256C382.691 3.09945 382.83 3.10144 382.996 3.0915C383.06 3.08753 383.139 3.0915 383.208 3.09647C383.434 3.11138 383.434 3.13025 383.286 3.16603C383.079 3.2187 383.097 3.22367 383.679 3.26838C383.9 3.28528 384.071 3.31708 384.255 3.3449C384.555 3.38962 384.551 3.38961 384.352 3.44824C384.306 3.46116 384.265 3.47508 384.218 3.48899C384.085 3.52774 383.978 3.56948 383.702 3.57345C383.397 3.57743 383.093 3.59333 382.788 3.60426C382.493 3.61519 382.415 3.63903 382.442 3.70661C382.475 3.78809 382.535 3.79704 383.065 3.79604C383.217 3.79604 383.351 3.80399 383.466 3.83082C383.411 3.86262 383.31 3.88746 383.162 3.89342C382.784 3.90833 382.401 3.92125 382.022 3.93417C381.718 3.9451 381.413 3.95603 381.109 3.96696C380.92 3.97391 380.8 4.02559 380.851 4.08323C380.878 4.11602 380.901 4.14881 380.924 4.18161C380.975 4.24719 381.072 4.26409 381.381 4.26111C381.46 4.26011 381.533 4.25216 381.607 4.25414C381.907 4.2611 382.05 4.34358 382.41 4.32668C382.71 4.31277 383.024 4.30979 383.319 4.29191C383.591 4.27601 383.743 4.31179 383.932 4.33862C383.997 4.34756 384.066 4.36643 384.122 4.36544C384.504 4.35451 384.887 4.34359 385.261 4.32471C385.436 4.31676 385.542 4.32272 385.681 4.34657C386.013 4.4042 386.022 4.40122 386.516 4.38333C386.876 4.36942 386.88 4.37141 387.342 4.43202C387.471 4.44892 387.609 4.44891 387.775 4.44096C387.992 4.43103 388.218 4.41513 388.444 4.43003C388.513 4.43401 388.601 4.44594 388.624 4.45886C388.638 4.4678 388.574 4.48966 388.518 4.49662C388.112 4.54829 387.637 4.53935 387.194 4.56022C387.056 4.56618 386.917 4.5473 386.802 4.52047C386.682 4.49364 386.553 4.48271 386.396 4.48768C386.091 4.49861 385.782 4.50556 385.482 4.52146C385.224 4.53537 385.044 4.51252 384.864 4.48171C384.804 4.47177 384.735 4.45289 384.675 4.45388C383.992 4.47376 383.305 4.49364 382.627 4.52146C382.355 4.53339 382.198 4.50159 382.013 4.47476C381.949 4.46582 381.884 4.44693 381.824 4.44793C381.593 4.4519 381.367 4.46283 381.137 4.47078C380.297 4.50059 379.462 4.5304 378.622 4.55823C378.567 4.56022 378.498 4.53934 378.433 4.5304C378.309 4.51251 378.179 4.49562 378.05 4.47873C377.82 4.48668 377.594 4.49661 377.363 4.50257C377.197 4.50655 377.049 4.52047 377.026 4.55823C377.012 4.58307 377.165 4.60592 377.326 4.60394C377.483 4.60195 377.64 4.59002 377.769 4.60294C378.41 4.66654 378.41 4.66753 378.812 4.65462C379.162 4.64269 379.125 4.63275 379.434 4.6874C379.568 4.71125 379.688 4.72517 379.84 4.71921C380.219 4.7053 380.602 4.69138 380.984 4.67946C381.044 4.67747 381.123 4.68741 381.183 4.69536C381.635 4.75498 381.635 4.75697 382.009 4.74206C382.498 4.72418 382.516 4.71921 382.844 4.77983C383.07 4.82156 383.277 4.79274 383.494 4.79075C383.743 4.82951 384.015 4.8643 384.242 4.90802C384.509 4.95969 384.79 4.95074 385.095 4.93583C385.321 4.9249 385.542 4.92093 385.727 4.96167C385.902 4.99943 386.114 5.00341 386.354 4.99348C386.571 4.98453 386.793 4.96565 387.019 4.98751C387.079 4.99347 387.171 5.00838 387.166 5.01732C387.162 5.03124 387.102 5.05111 387.042 5.05708C386.617 5.09782 386.151 5.09682 385.704 5.1157C385.644 5.11868 385.566 5.10775 385.506 5.0998C385.376 5.08191 385.252 5.06105 385.127 5.04217C384.901 5.04813 384.671 5.05011 384.449 5.06204C384.278 5.07098 384.149 5.07 384.025 5.04615C383.909 5.02428 383.785 4.99745 383.646 4.99049C383.508 4.98354 383.346 4.99844 383.194 5.00441C383.042 5.01037 382.867 5.00738 382.747 5.02328C382.627 5.03918 382.553 5.07396 382.475 5.10179C382.387 5.13259 382.267 5.14254 382.092 5.14552C381.93 5.1485 381.801 5.14452 381.681 5.1167C381.63 5.10477 381.561 5.09582 381.492 5.08788C381.427 5.08092 381.353 5.06998 381.293 5.07197C380.606 5.09483 379.923 5.11968 379.236 5.14353C378.895 5.15545 378.899 5.15544 378.189 5.09682C378.124 5.09185 378.046 5.08489 377.981 5.08688C377.598 5.0988 377.22 5.11272 376.837 5.12663C376.449 5.14054 376.454 5.13856 375.794 5.07595C375.674 5.06403 375.499 5.07993 375.356 5.07794C375.056 5.07297 374.909 4.9895 374.558 5.0054C374.258 5.01931 373.944 5.02229 373.644 5.04018C373.372 5.05608 373.215 5.0213 373.031 4.99447C372.966 4.98553 372.897 4.96565 372.842 4.96764C372.154 4.9895 371.472 5.01434 370.558 5.01732C370.332 5.01732 370.434 5.0382 370.581 5.04515C370.793 5.05608 370.863 5.03521 370.747 4.99547C370.664 4.96764 370.544 4.95372 370.447 4.96068C370.397 4.96465 370.332 4.98354 370.558 5.01732C370.798 5.05509 370.784 5.07595 370.826 5.08788C370.927 5.11669 371.07 5.12862 371.218 5.12464C371.449 5.11769 371.675 5.10775 371.905 5.10179C371.97 5.0998 372.048 5.10676 372.108 5.11471C372.616 5.17632 372.62 5.1803 373.16 5.15645C373.331 5.14949 373.455 5.14949 373.589 5.16837C373.774 5.19421 373.907 5.23793 374.189 5.22401C374.563 5.20513 374.945 5.19421 375.328 5.18328C375.388 5.18129 375.453 5.19918 375.522 5.20713C375.711 5.23098 375.85 5.2757 376.131 5.25681C376.348 5.24191 376.583 5.23792 376.814 5.23494C376.874 5.23395 376.966 5.24985 376.994 5.26277C377.049 5.28563 376.98 5.31246 376.823 5.33134C376.759 5.33929 376.671 5.3373 376.597 5.34028C376.293 5.35121 375.988 5.36313 375.684 5.37208C375.522 5.37705 375.37 5.39196 375.351 5.42873C375.338 5.45357 375.504 5.47543 375.661 5.47344C375.891 5.47046 376.122 5.46251 376.343 5.44959C376.735 5.42773 377.077 5.43369 377.395 5.49629C377.621 5.54002 377.607 5.52412 377.847 5.65331C377.907 5.6861 378.087 5.68908 378.244 5.68709C378.622 5.68212 378.798 5.69703 378.765 5.72784C378.724 5.7656 378.59 5.77751 378.419 5.78248C378.115 5.79043 377.81 5.80336 377.506 5.81429C377.432 5.81727 377.349 5.82323 377.28 5.82124C377.211 5.81925 377.146 5.80733 377.086 5.79839C376.957 5.77951 376.846 5.75068 376.708 5.74373C376.569 5.73677 376.408 5.75168 376.256 5.75764C376.103 5.76261 375.942 5.77751 375.804 5.77056C375.665 5.7636 375.55 5.7338 375.425 5.71591C375.365 5.70697 375.292 5.69305 375.232 5.69404C374.927 5.70199 374.623 5.71491 374.318 5.72485C373.944 5.73777 373.944 5.73777 373.492 5.67616C373.363 5.65827 373.229 5.65927 373.059 5.66722C372.69 5.68312 372.685 5.68013 372.011 5.6225C371.947 5.61653 371.868 5.60958 371.804 5.61256C371.116 5.63542 370.434 5.66026 369.751 5.68411C369.165 5.70497 369.165 5.70498 368.842 5.80435C368.602 5.87789 368.597 5.87788 368.833 5.91167C369.022 5.9395 369.193 5.98023 369.4 5.99514C369.594 6.00905 369.834 5.96434 370.046 6.01005C370.152 6.0329 370.29 6.05775 370.424 6.06172C370.637 6.06669 370.863 6.03787 371.066 6.08159C371.167 6.10345 371.319 6.12632 371.449 6.12731C371.675 6.1293 371.905 6.11339 372.131 6.10644C372.201 6.10445 372.279 6.10445 372.344 6.10942C372.413 6.11538 372.473 6.12731 372.533 6.13725C372.717 6.17103 372.916 6.18693 373.155 6.17003C373.548 6.14221 373.898 6.15612 374.203 6.21972C374.244 6.22866 374.346 6.22966 374.41 6.22569C374.576 6.21575 374.719 6.21475 374.844 6.23363C374.895 6.24158 374.969 6.25549 374.959 6.26443C374.945 6.27934 374.89 6.29922 374.83 6.30418C374.396 6.33797 373.931 6.34195 373.483 6.35984C373.423 6.36183 373.349 6.3489 373.289 6.33996C373.16 6.32207 373.049 6.29227 372.911 6.28531C372.773 6.27835 372.611 6.29127 372.459 6.29624C372.307 6.30121 372.145 6.31611 372.007 6.31015C371.868 6.3032 371.739 6.27835 371.628 6.25649C371.499 6.23165 371.375 6.22867 371.204 6.23861C370.983 6.25153 370.752 6.25351 370.526 6.26047C370.401 6.24159 370.277 6.22071 370.148 6.20282C370.088 6.19388 370.014 6.18295 369.949 6.18395C369.645 6.1919 369.34 6.20382 369.036 6.21475C368.731 6.22568 368.731 6.22569 368.215 6.16408C368.155 6.15712 368.076 6.14917 368.011 6.15116C367.629 6.16308 367.25 6.17798 366.867 6.1899C366.72 6.19487 366.586 6.18096 366.466 6.15413C366.351 6.1273 366.212 6.1124 366.069 6.11737C365.46 6.13823 364.851 6.15811 364.242 6.18295C363.998 6.19289 363.79 6.18395 363.624 6.14818C363.43 6.10743 363.214 6.11737 362.988 6.12532C362.475 6.1452 362.471 6.1442 362.143 6.09352C362.079 6.08358 362.014 6.0647 361.954 6.06569C361.424 6.0806 360.888 6.09451 360.363 6.11836C360.086 6.13128 359.938 6.0965 359.754 6.07066C359.689 6.06172 359.62 6.04284 359.564 6.04483C359.182 6.05576 358.798 6.0657 358.425 6.08557C358.051 6.10545 357.908 6.01303 357.627 6.01403C357.244 6.01502 356.866 6.03788 356.487 6.05179C356.183 6.06272 355.878 6.07365 355.574 6.08458C355.269 6.09551 354.965 6.10445 354.66 6.11737C354.499 6.12432 354.379 6.11538 354.245 6.09053C354.074 6.05774 353.871 6.03191 353.687 6.0021C353.406 5.95937 353.405 5.95937 353.064 5.97129C352.99 5.97427 352.912 5.97626 352.838 5.97924C352.28 6.0011 352.28 5.99912 351.569 5.93651C351.537 5.93353 351.454 5.94447 351.422 5.95242C351.325 5.97825 351.237 6.00607 351.15 6.0329C351.025 6.017 350.873 6.00806 350.79 5.98521C350.554 5.92061 350.185 6.00905 349.945 5.94545C349.858 5.9216 349.706 5.90074 349.567 5.89477C349.424 5.88881 349.263 5.90272 349.115 5.90869C348.732 5.92359 348.732 5.9226 348.405 6.01104C348.238 6.05477 347.999 6.04681 347.782 6.05675C347.556 6.06768 347.339 6.07364 347.15 6.0329C346.979 5.99613 346.771 5.98719 346.527 5.99912C346.227 6.01402 345.918 6.02296 345.613 6.03191C345.549 6.03389 345.47 6.02893 345.406 6.02297C344.7 5.96434 344.7 5.96335 344.359 5.97626C344.206 5.98223 344.049 5.98421 343.902 5.99315C343.653 6.00905 343.464 5.98818 343.284 5.95638C343.224 5.94645 343.154 5.92757 343.094 5.92857C342.79 5.93354 342.49 5.94248 342.19 5.95142C341.96 5.95838 341.729 5.96235 341.508 5.97626C341.138 5.99912 340.959 5.93452 340.705 5.90471C340.326 5.91763 339.944 5.92657 339.565 5.94446C339.39 5.95241 339.275 5.94943 339.141 5.92558C338.97 5.89577 338.813 5.86199 338.536 5.87689C338.167 5.89677 337.78 5.90373 337.402 5.91565C337.148 5.88484 336.963 5.82223 336.599 5.84509C336.377 5.859 336.142 5.86198 335.916 5.86993C335.612 5.88086 335.307 5.89081 335.003 5.90273C334.675 5.91466 334.68 5.91167 334.177 5.85304C333.886 5.81826 333.586 5.85702 333.291 5.86298C333.06 5.86795 332.945 5.91366 333 5.97229C333.056 6.03092 332.931 6.07663 332.719 6.08458C332.188 6.10346 331.653 6.12333 331.123 6.14022C331.058 6.14221 330.98 6.13525 330.92 6.12829C330.352 6.06569 330.352 6.06669 330.099 6.07564C329.72 6.09054 329.333 6.09848 328.959 6.11737C328.701 6.13028 328.512 6.10942 328.345 6.07564C328.216 6.0498 328.096 6.04384 327.93 6.0498C326.103 6.11638 324.276 6.17799 322.454 6.24655C322.182 6.25649 322.025 6.22768 321.841 6.20085C321.776 6.1919 321.716 6.17302 321.651 6.17302C321.499 6.17302 321.347 6.18196 321.195 6.18793C320.512 6.21178 319.829 6.24059 319.142 6.25848C318.851 6.26643 318.773 6.31214 318.648 6.3499C318.551 6.37872 318.441 6.39064 318.27 6.39462C318.104 6.39859 317.984 6.39362 317.855 6.36778C317.689 6.334 317.499 6.31313 317.241 6.32704C316.941 6.34294 316.637 6.3499 316.328 6.36083C316.171 6.3658 316.051 6.38369 316 6.41946C315.991 6.42542 316.088 6.44033 316.143 6.44928C316.328 6.47909 316.503 6.51387 316.71 6.53473C316.923 6.5556 317.153 6.53174 317.375 6.52578C317.453 6.52379 317.527 6.51784 317.601 6.51883C317.67 6.51982 317.753 6.5248 317.804 6.53374C318.044 6.57846 318.297 6.60926 318.63 6.58243C318.916 6.59535 319.063 6.67783 319.428 6.65596C319.649 6.64305 319.88 6.63708 320.111 6.63212C320.171 6.63112 320.235 6.64901 320.3 6.65795C320.484 6.6828 320.632 6.72254 320.909 6.70565C321.204 6.68776 321.518 6.68478 321.818 6.67087C321.984 6.66292 322.104 6.66988 322.233 6.69572C322.399 6.72851 322.588 6.75334 322.846 6.73744C323.068 6.72353 323.303 6.72055 323.529 6.71161C323.824 6.70068 323.824 6.70167 324.35 6.76328C324.41 6.77024 324.489 6.77819 324.553 6.7762C324.936 6.76428 325.314 6.74937 325.697 6.73744C325.845 6.73247 325.988 6.74539 326.09 6.77421C326.131 6.78614 326.117 6.80602 326.131 6.82291C325.37 6.84974 324.609 6.8726 323.852 6.90539C323.566 6.91831 323.437 6.87756 323.248 6.85471C323.183 6.84676 323.114 6.82987 323.054 6.83185C322.519 6.84875 321.988 6.86663 321.458 6.88849C321.292 6.89545 321.167 6.89147 321.043 6.86265C320.724 6.78614 320.337 6.82787 319.977 6.8388C319.7 6.84675 319.612 6.87756 319.645 6.94315C319.686 7.02066 319.852 7.04451 320.277 7.0306C320.429 7.02563 320.581 7.01867 320.733 7.01469C320.881 7.01072 321.015 7.02364 321.135 7.05047C321.25 7.0773 321.388 7.09121 321.531 7.08723C321.836 7.07829 322.145 7.06935 322.44 7.05445C322.685 7.04252 322.888 7.05246 323.059 7.08922C323.248 7.12997 323.469 7.12102 323.691 7.11208C324.207 7.0922 324.212 7.0932 324.535 7.14289C324.599 7.15283 324.664 7.17171 324.724 7.17072C325.255 7.15581 325.79 7.14289 326.311 7.11904C326.583 7.10712 326.74 7.13891 326.92 7.16475C326.985 7.17369 327.049 7.19357 327.109 7.19158C327.492 7.18065 327.875 7.16971 328.249 7.15083C328.424 7.14189 328.53 7.14785 328.673 7.1717C329.014 7.23033 329.024 7.22834 329.508 7.20946C329.656 7.2035 329.817 7.19257 329.956 7.20052C330.094 7.20847 330.205 7.23729 330.334 7.25518C330.394 7.26313 330.468 7.27405 330.532 7.27206C330.837 7.26411 331.141 7.2522 331.446 7.24127C331.732 7.23033 331.732 7.23133 332.267 7.29294C332.484 7.31878 332.71 7.29691 332.927 7.28896C333.162 7.28002 333.374 7.28002 333.554 7.31878C333.734 7.35753 333.951 7.35554 334.181 7.34759C334.398 7.33964 334.62 7.31779 334.841 7.34462C335.349 7.40623 335.349 7.40721 335.662 7.39528C336.119 7.37839 336.571 7.36249 337.033 7.34759C337.092 7.3456 337.171 7.35753 337.231 7.36548C337.36 7.38337 337.471 7.41317 337.609 7.42013C337.748 7.42808 337.909 7.41615 338.057 7.41019C338.532 7.39131 338.564 7.38436 338.883 7.44994C339.15 7.5036 339.482 7.42609 339.731 7.48771C339.874 7.52249 340.068 7.55031 340.336 7.53341C340.557 7.5195 340.788 7.51552 341.018 7.50757C341.383 7.49466 341.383 7.49566 341.844 7.55528C341.904 7.56323 341.983 7.57316 342.043 7.57117C342.347 7.56322 342.656 7.55627 342.952 7.53839C343.298 7.51752 343.519 7.55528 343.777 7.59205C343.98 7.62087 344.22 7.59701 344.437 7.58708C344.672 7.57714 344.884 7.58012 345.06 7.61887C345.244 7.65862 345.461 7.65365 345.692 7.6457C345.909 7.63875 346.13 7.61589 346.352 7.64371C346.827 7.70532 346.827 7.70532 347.173 7.6934C347.477 7.68247 347.782 7.67055 348.086 7.6626C348.146 7.66061 348.22 7.67353 348.28 7.68247C348.409 7.70036 348.52 7.73017 348.658 7.73713C348.797 7.74409 348.958 7.73117 349.11 7.7262C349.263 7.72123 349.424 7.70632 349.562 7.71229C349.701 7.71825 349.83 7.74309 349.941 7.76496C350.07 7.79079 350.19 7.79377 350.365 7.78383C350.587 7.77091 350.817 7.76793 351.043 7.76098C351.168 7.77986 351.297 7.79874 351.417 7.8196C351.542 7.84147 351.675 7.83948 351.846 7.83252C352.414 7.80867 352.418 7.81166 352.893 7.87327C353.11 7.90109 353.336 7.87823 353.553 7.87128C353.784 7.86333 354.001 7.85936 354.181 7.89911C354.356 7.93687 354.573 7.94183 354.803 7.9299C354.951 7.92196 355.108 7.917 355.26 7.91401C355.329 7.91302 355.412 7.91699 355.463 7.92494C355.708 7.96668 355.947 8.00444 356.284 7.97761C356.579 7.98556 356.727 8.06705 357.082 8.05115C357.382 8.03724 357.696 8.03424 357.991 8.01636C358.263 8.00046 358.457 8.02829 358.596 8.06307C358.845 8.12468 359.195 8.04121 359.444 8.10183C359.587 8.13661 359.772 8.16443 360.049 8.14952C360.353 8.13363 360.45 8.15449 360.538 8.21709C360.589 8.25286 360.579 8.28169 360.487 8.30951C360.395 8.33833 360.293 8.33336 360.146 8.30057C359.975 8.2638 359.772 8.25684 359.527 8.26479C359.288 8.27274 359.14 8.22107 358.942 8.2012C358.743 8.18033 358.508 8.21511 358.3 8.18828C357.811 8.12568 357.811 8.12568 357.479 8.1376C357.253 8.14555 357.018 8.14953 356.796 8.16344C356.533 8.18033 356.363 8.14952 356.183 8.1217C356.118 8.11176 356.054 8.09288 355.998 8.09387C355.468 8.10878 354.932 8.12269 354.407 8.14754C354.13 8.16045 353.982 8.12468 353.798 8.09984C353.733 8.0909 353.664 8.07301 353.608 8.075C353.152 8.08891 352.7 8.10679 352.243 8.12369C352.155 8.15052 352.058 8.17635 351.975 8.20517C351.888 8.23498 351.768 8.2479 351.592 8.24691C351.302 8.24691 351.016 8.28864 350.725 8.23598C350.425 8.18232 350.402 8.1853 350.112 8.19822C349.742 8.21511 349.35 8.21114 349.004 8.24989C348.944 8.25685 348.88 8.27572 348.88 8.28963C348.875 8.29857 348.972 8.3115 349.032 8.31945C349.235 8.3433 349.47 8.30852 349.673 8.33336C349.807 8.34926 349.918 8.3731 350.052 8.39C350.107 8.39695 350.19 8.39596 350.264 8.39497C350.342 8.39398 350.416 8.38703 350.49 8.38802C350.559 8.38901 350.633 8.39497 350.688 8.40391C350.942 8.44167 351.21 8.47646 351.436 8.52117C351.657 8.5649 351.865 8.53509 352.086 8.5331C352.972 8.60266 352.972 8.60365 353.567 8.58179C353.715 8.57682 353.867 8.57086 354.019 8.57185C354.084 8.57185 354.144 8.58973 354.208 8.59967C354.393 8.62948 354.568 8.65631 354.826 8.64042C355.048 8.6265 355.283 8.62352 355.509 8.61458C355.814 8.60365 355.814 8.60365 356.33 8.66625C356.46 8.68215 356.598 8.68017 356.764 8.67222C356.907 8.66527 357.055 8.68017 357.156 8.70899C357.198 8.72091 357.184 8.74079 357.198 8.75768C356.741 8.77358 356.28 8.78451 355.837 8.80836C355.551 8.82327 355.422 8.78053 355.232 8.75768C355.168 8.74973 355.099 8.73284 355.039 8.73483C354.587 8.74973 354.134 8.76661 353.682 8.78649C353.627 8.78848 353.558 8.81133 353.553 8.82524C353.544 8.85108 353.659 8.87593 353.825 8.87493C354.047 8.87394 354.264 8.85704 354.462 8.89779C354.628 8.93356 354.836 8.94947 355.08 8.93357C355.228 8.92463 355.385 8.92462 355.532 8.91667C355.924 8.89282 356.28 8.89779 356.575 8.96536C356.801 8.98325 357.022 8.96636 357.239 8.95742C357.401 8.95046 357.558 8.9435 357.673 8.96238C357.917 9.00213 358.157 9.04188 358.494 9.01505C358.859 9.04287 359.135 9.1015 359.44 9.1492C359.583 9.17205 359.694 9.18498 359.86 9.17007C359.929 9.16411 360.012 9.1641 360.086 9.16112C360.238 9.15615 360.399 9.14125 360.538 9.14721C360.676 9.15417 360.792 9.18299 360.916 9.20087C360.976 9.20982 361.045 9.22472 361.105 9.22373C361.336 9.21876 361.562 9.20882 361.788 9.20087C362.014 9.19392 362.24 9.18696 362.466 9.18001C362.655 9.20585 362.849 9.23169 363.038 9.25752C363.343 9.24659 363.647 9.23565 363.947 9.22572C364.284 9.21379 364.284 9.21479 364.768 9.2764C364.985 9.30422 365.216 9.28633 365.423 9.27341C365.769 9.25254 366 9.29031 366.245 9.33006C366.295 9.33801 366.388 9.34298 366.448 9.339C366.688 9.32509 366.895 9.33602 367.07 9.37278C367.195 9.39862 367.32 9.41055 367.472 9.40559C368.002 9.3867 368.533 9.36682 369.063 9.34993C369.128 9.34794 369.202 9.35689 369.262 9.36484C369.732 9.42546 369.737 9.42844 370.083 9.41254C370.392 9.39862 370.678 9.39266 370.923 9.44731C370.973 9.45924 371.052 9.47613 371.107 9.47514C371.485 9.4652 371.868 9.45427 372.242 9.43738C372.413 9.42943 372.533 9.43242 372.666 9.45527C372.837 9.48409 372.989 9.51887 373.271 9.50595C374.051 9.46918 374.055 9.47513 374.978 9.5437C375.042 9.54867 375.13 9.54073 375.204 9.53675C375.361 9.52681 375.476 9.54073 375.614 9.56358C375.923 9.61526 375.933 9.61228 376.228 9.60134C376.454 9.5924 376.689 9.59041 376.911 9.57551C377.252 9.55365 377.478 9.5924 377.732 9.62917C377.935 9.65799 378.17 9.63414 378.387 9.62519C378.622 9.61526 378.835 9.61823 379.01 9.65599C379.13 9.68183 379.259 9.69575 379.411 9.69078C379.942 9.67289 380.472 9.65301 381.003 9.63513C381.067 9.63314 381.146 9.64109 381.206 9.64805C381.732 9.70966 381.732 9.71264 382.253 9.68979C382.419 9.68283 382.558 9.68084 382.682 9.70171C382.802 9.72159 382.931 9.74046 383.056 9.75934C383.282 9.75239 383.513 9.7504 383.734 9.73848C383.905 9.72953 384.025 9.73351 384.158 9.75438C384.334 9.78121 384.481 9.8279 384.758 9.80505C384.901 9.79412 385.067 9.79711 385.21 9.78717C385.381 9.77425 385.496 9.7822 385.63 9.80803C385.796 9.83884 385.967 9.87064 386.234 9.85474C386.53 9.83685 386.843 9.83387 387.143 9.81996C387.309 9.81201 387.425 9.81996 387.559 9.8458C387.725 9.87859 387.914 9.89946 388.172 9.88654C388.698 9.8617 388.703 9.86666 389.215 9.92926C389.344 9.94516 389.482 9.94318 389.648 9.93523C389.791 9.92828 389.939 9.94318 390.04 9.972C390.137 10.0038 390.128 10.0237 390.137 10.0406ZM349.027 1.07823C348.875 1.0832 348.723 1.08916 348.501 1.0027C348.488 0.987798 348.497 0.969915 348.465 0.956996C348.391 0.930166 348.275 0.911286 348.137 0.908305C347.888 0.90433 347.588 0.93811 347.593 0.963947C347.597 0.985809 347.676 1.00469 347.828 1.02257C347.892 1.02953 347.943 1.04146 348.003 1.04941C348.179 1.07226 348.317 1.11699 348.571 1.09413C348.525 1.03252 348.548 1.06332 348.571 1.09413C348.548 1.13189 348.617 1.15872 348.783 1.16965C348.829 1.17263 348.898 1.17064 348.935 1.16468C349.078 1.14282 349.101 1.11301 348.995 1.03451C348.977 1.04743 348.99 1.07028 349.032 1.07624C349.074 1.0822 349.175 1.07724 349.226 1.07028C349.355 1.0514 349.42 1.02656 349.387 1.00569C349.369 0.994757 349.281 0.980845 349.226 0.980845C349.129 0.980845 349.041 1.0027 349.027 1.07823ZM386.331 12.6024C385.995 12.6212 385.607 12.6143 385.27 12.653C385.21 12.66 385.15 12.6779 385.146 12.6918C385.141 12.7007 385.233 12.7137 385.289 12.7206C385.413 12.7365 385.552 12.7316 385.713 12.7266C385.958 12.7196 386.101 12.7653 386.29 12.7882C386.35 12.7951 386.428 12.8001 386.493 12.7981C386.866 12.7862 387.236 12.7733 387.609 12.7594C387.674 12.7564 387.743 12.7494 387.798 12.7405C387.983 12.7117 387.965 12.6928 387.785 12.6709C387.586 12.6471 387.429 12.6073 387.226 12.5885C386.936 12.5616 386.64 12.5974 386.331 12.6024ZM360.132 13.3278C359.906 13.3357 359.684 13.3437 359.458 13.3516C359.384 13.3546 359.306 13.3556 359.237 13.3596C359.094 13.3665 358.988 13.3874 358.918 13.4202C359.025 13.446 359.154 13.4609 359.297 13.458C359.523 13.452 359.744 13.4391 359.97 13.4361C360.215 13.4321 360.358 13.4768 360.547 13.4997C360.607 13.5067 360.681 13.5076 360.75 13.5086C361.091 13.5126 361.299 13.4609 361.234 13.3884C361.188 13.3318 361.013 13.298 360.801 13.3049C360.579 13.3119 360.353 13.3198 360.132 13.3278ZM387.909 11.1336C387.965 11.1168 388.025 11.1048 388.052 11.0899C388.135 11.0393 388.103 11.0015 387.951 10.9617C387.766 10.913 387.54 10.9458 387.332 10.9508C387.282 10.9518 387.226 10.9727 387.199 10.9856C387.18 10.9945 387.18 11.0134 387.208 11.0184C387.434 11.0581 387.674 11.0949 387.909 11.1336ZM347.888 8.19822C347.666 8.20617 347.44 8.21213 347.219 8.22306C347.164 8.22604 347.113 8.24492 347.081 8.25784C347.021 8.28169 347.085 8.31448 347.274 8.31746C347.491 8.32143 347.717 8.30454 347.943 8.29659C348.229 8.28666 348.4 8.24988 348.294 8.21809C348.192 8.18728 348.054 8.18132 347.888 8.19822ZM105.043 6.07464C105.191 6.06967 105.343 6.0657 105.49 6.05874C105.629 6.05178 105.735 6.02992 105.804 5.99713C105.689 5.97129 105.56 5.95738 105.417 5.96036C105.191 5.96632 104.969 5.97427 104.748 5.98421C104.609 5.99017 104.476 6.01203 104.443 6.04582C104.411 6.07166 104.72 6.08657 105.043 6.07464ZM328.378 5.92161C328.438 5.93055 328.498 5.94844 328.558 5.94844C328.705 5.94844 328.858 5.94247 328.996 5.93254C329.056 5.92856 329.102 5.91068 329.13 5.89676C329.148 5.88782 329.144 5.87192 329.116 5.86397C328.982 5.81628 328.447 5.83317 328.359 5.88782C328.35 5.89776 328.373 5.91068 328.378 5.92161ZM313.822 0.480007C313.836 0.495907 313.841 0.511804 313.859 0.527704C313.896 0.557515 313.998 0.579381 314.145 0.594287C314.261 0.569444 314.321 0.541624 314.316 0.511813C314.312 0.495913 314.298 0.480004 314.279 0.464104C314.242 0.434293 314.141 0.412439 313.993 0.397533C313.878 0.421382 313.822 0.449202 313.822 0.480007ZM398.571 13.5007C398.529 13.5136 398.488 13.5265 398.441 13.5385C398.566 13.5673 398.681 13.5762 398.769 13.5603C398.824 13.5504 398.857 13.5355 398.898 13.5226C398.774 13.4937 398.663 13.4858 398.571 13.5007ZM395.701 13.6358C395.761 13.6448 395.817 13.6567 395.881 13.6627C395.987 13.6726 396.084 13.6557 396.158 13.6199C396.098 13.611 396.043 13.5991 395.978 13.5931C395.872 13.5832 395.775 13.6001 395.701 13.6358ZM397.519 13.454C397.486 13.4778 397.551 13.4977 397.722 13.5146C397.763 13.5017 397.819 13.4898 397.846 13.4758C397.893 13.453 397.814 13.4321 397.648 13.4162C397.602 13.4282 397.56 13.4411 397.519 13.454ZM387.78 12.3828C387.748 12.4066 387.812 12.4265 387.983 12.4434C388.024 12.4305 388.08 12.4185 388.107 12.4046C388.154 12.3818 388.075 12.3609 387.909 12.345C387.863 12.3569 387.821 12.3698 387.78 12.3828ZM374.512 5.35121C374.47 5.36413 374.429 5.37705 374.383 5.38897C374.507 5.41779 374.622 5.42673 374.71 5.41083C374.766 5.4009 374.798 5.38599 374.839 5.37307C374.715 5.34425 374.604 5.33631 374.512 5.35121ZM361.802 1.62079C361.913 1.62775 362.005 1.61384 362.083 1.57708C362.023 1.56813 361.968 1.55621 361.903 1.55024C361.797 1.54031 361.7 1.5572 361.627 1.59298C361.687 1.60292 361.746 1.61185 361.802 1.62079ZM355.053 1.38727C355.011 1.40019 354.969 1.41311 354.923 1.42503C355.048 1.45385 355.163 1.46279 355.251 1.44689C355.306 1.43696 355.339 1.42205 355.38 1.40913C355.255 1.38031 355.145 1.37336 355.053 1.38727ZM309.283 0.479012C309.241 0.491931 309.2 0.50485 309.154 0.516774C309.278 0.545592 309.394 0.554533 309.481 0.538633C309.537 0.528696 309.569 0.51379 309.611 0.500871C309.486 0.472053 309.375 0.4651 309.283 0.479012ZM81.3854 8.5639C81.3254 8.55495 81.2655 8.54602 81.2101 8.53608C81.0764 8.56291 81.0348 8.58775 81.1087 8.60663C81.1548 8.61856 81.2239 8.62552 81.2839 8.63446C81.4223 8.60763 81.4546 8.58377 81.3854 8.5639Z" fill="#FFE492"/>
<path d="M18.4793 35.2514C18.0447 35.2699 17.614 35.2934 17.1794 35.3051C16.9489 35.311 16.8658 35.353 16.7713 35.3921C16.6958 35.4234 16.6088 35.4331 16.469 35.439C15.29 35.4869 14.1148 35.5377 12.9396 35.5876C12.7922 35.5749 12.7204 35.5543 12.7544 35.5299C12.7733 35.5152 12.8187 35.4947 12.864 35.4928C13.6689 35.4566 14.47 35.4195 15.2786 35.3911C15.5092 35.3833 15.5734 35.3403 15.6906 35.3051C15.7284 35.2934 15.7586 35.2758 15.8077 35.2689C15.8569 35.2611 15.9287 35.2621 15.9929 35.2601C17.2928 35.2044 18.5927 35.1497 19.8927 35.094C20.04 35.1067 20.1118 35.1272 20.0778 35.1517C20.0589 35.1663 20.0136 35.1868 19.9682 35.1888C19.4694 35.2093 18.9743 35.2299 18.4793 35.2514Z" fill="#FFE492"/>
<path d="M256.668 40.456C256.472 40.4677 256.222 40.4843 256.018 40.4276C255.92 40.4003 255.814 40.3915 255.686 40.3974C255.5 40.4071 255.312 40.4149 255.123 40.4208C255.073 40.4218 255.009 40.411 254.96 40.4022C254.854 40.3846 254.764 40.3553 254.65 40.3475C254.537 40.3397 254.401 40.3612 254.284 40.3563C254.129 40.3495 254.065 40.3231 254.106 40.2986C254.129 40.285 254.174 40.2654 254.223 40.2625C254.922 40.2263 254.926 40.2263 255.123 40.2615C255.274 40.2889 255.414 40.3192 255.629 40.3025C255.81 40.2889 256.003 40.2859 256.188 40.2771C256.445 40.2654 256.445 40.2664 256.861 40.328C256.967 40.3436 257.08 40.3426 257.216 40.3338C257.333 40.327 257.447 40.3426 257.541 40.369C257.481 40.4022 257.394 40.4237 257.276 40.4296C257.088 40.4394 256.902 40.4462 256.668 40.456Z" fill="#FFE492"/>
<path d="M249.314 40.1549C249.791 40.1343 250.271 40.1168 250.747 40.0933C250.943 40.0835 251.098 40.0943 251.234 40.1275C251.381 40.1637 251.548 40.1607 251.729 40.1539C251.843 40.15 251.952 40.1656 252.028 40.193C252.058 40.2037 252.05 40.2233 252.062 40.2389C251.646 40.2565 251.227 40.2751 250.807 40.2907C250.758 40.2927 250.698 40.2829 250.652 40.2751C250.55 40.2585 250.463 40.2292 250.354 40.2233C250.119 40.2096 249.885 40.236 249.647 40.2409C249.534 40.2428 249.424 40.2282 249.348 40.2018C249.318 40.1891 249.326 40.1705 249.314 40.1549Z" fill="#FFE492"/>
<path d="M77.2678 31.7514C77.7629 31.7299 78.2579 31.7094 78.7529 31.6879C78.9003 31.7015 78.9683 31.7211 78.938 31.7455C78.9191 31.7602 78.8738 31.7807 78.8284 31.7827C77.8384 31.8267 76.8484 31.8687 75.8621 31.9107C75.7148 31.897 75.6467 31.8775 75.677 31.853C75.6959 31.8384 75.7412 31.8179 75.7866 31.8159C76.2778 31.7934 76.7728 31.7729 77.2678 31.7514Z" fill="#FFE492"/>
<path d="M0.820124 37.1824C0.597174 37.1843 0.362935 37.2205 0.113534 37.1931C0.0644091 37.1882 -0.00362799 37.1726 0.00015082 37.1638C0.00770845 37.1491 0.0530616 37.1306 0.102186 37.1247C0.317578 37.1003 0.5859 37.0973 0.695486 37.0289C0.748389 36.9937 0.846638 36.982 0.978896 36.9752C1.11871 36.9674 1.21693 36.9703 1.32652 36.9908C1.47011 37.0172 1.59105 37.0661 1.81778 37.0407C1.82912 37.0563 1.8555 37.0739 1.84417 37.0885C1.83283 37.1032 1.78379 37.1169 1.73844 37.1276C1.69687 37.1374 1.64014 37.1462 1.58723 37.1491C1.33783 37.1609 1.08842 37.1707 0.820124 37.1824Z" fill="#FFE492"/>
<path d="M197.321 36.9861C197.506 36.9782 197.698 36.9743 197.88 36.9606C198.023 36.9499 198.114 36.9567 198.227 36.9802C198.42 37.0212 198.432 37.0173 198.904 37.0232C198.957 37.0242 199.021 37.0388 199.051 37.0515C199.07 37.0584 199.044 37.077 199.021 37.0867C198.987 37.0994 198.938 37.116 198.893 37.116C198.594 37.119 198.292 37.1767 198.001 37.1102C197.853 37.077 197.691 37.0613 197.491 37.076C197.37 37.0848 197.241 37.0887 197.117 37.0926C196.996 37.0965 196.871 37.0857 196.795 37.0564C196.686 37.0134 196.75 36.9968 196.947 36.9997C197.071 37.0017 197.196 36.9909 197.321 36.9861Z" fill="#FFE492"/>
<path d="M265.797 43.7236C266.035 43.7139 266.273 43.7021 266.515 43.6943C266.564 43.6924 266.624 43.7031 266.67 43.71C266.851 43.7393 266.825 43.7891 266.832 43.8331C266.836 43.879 266.416 43.9162 266.239 43.8849C266.042 43.8497 265.865 43.8097 265.593 43.8312C265.487 43.839 265.362 43.8214 265.294 43.793C265.192 43.752 265.249 43.7354 265.442 43.7383C265.555 43.7403 265.676 43.7295 265.797 43.7236Z" fill="#FFE492"/>
<path d="M145.823 30.42C146.069 30.4092 146.315 30.3926 146.56 30.3916C146.704 30.3906 146.776 30.4229 146.742 30.4464C146.723 30.461 146.677 30.4815 146.632 30.4835C146.141 30.5069 145.65 30.5265 145.158 30.548C145.015 30.5343 144.943 30.5138 144.977 30.4903C144.996 30.4757 145.041 30.4561 145.087 30.4532C145.332 30.4395 145.578 30.4307 145.823 30.42Z" fill="#FFE492"/>
<path d="M261.025 40.542C261.263 40.5322 261.505 40.5176 261.743 40.5127C261.868 40.5107 261.966 40.5332 261.981 40.5586C261.989 40.5704 261.928 40.5909 261.879 40.5958C261.539 40.629 261.172 40.6329 260.817 40.6495C260.704 40.6544 260.583 40.6388 260.515 40.6114C260.413 40.5694 260.47 40.5537 260.662 40.5567C260.783 40.5577 260.904 40.5469 261.025 40.542Z" fill="#FFE492"/>
<path d="M203.603 37.1181C203.724 37.1132 203.849 37.1005 203.966 37.1044C204.091 37.1093 204.17 37.1376 204.208 37.1659C204.25 37.1982 204.246 37.2285 204.208 37.2559C204.148 37.3028 204.087 37.3008 203.947 37.2696C203.732 37.2207 203.717 37.2265 203.29 37.2285C203.241 37.2285 203.18 37.2138 203.142 37.2011C203.086 37.1816 203.116 37.1513 203.248 37.1337C203.346 37.121 203.482 37.1229 203.603 37.1181Z" fill="#FFE492"/>
<path d="M252.871 40.2212C253.048 40.2134 253.226 40.2007 253.403 40.2007C253.528 40.1997 253.626 40.2222 253.638 40.2466C253.641 40.2584 253.585 40.2779 253.539 40.2838C253.324 40.3102 253.082 40.3121 252.848 40.3209C252.738 40.3248 252.617 40.3092 252.549 40.2818C252.447 40.2408 252.508 40.2222 252.693 40.2281C252.75 40.23 252.81 40.2242 252.871 40.2212Z" fill="#FFE492"/>
<path d="M224.32 39.0222C224.056 39.0339 223.806 39.0193 223.825 38.9939C223.852 38.9606 223.961 38.9391 224.075 38.9333C224.256 38.9235 224.437 38.9157 224.623 38.9098C224.74 38.9059 224.845 38.9206 224.94 38.946C224.883 38.9772 224.796 38.9997 224.683 39.0066C224.566 39.0134 224.441 39.0173 224.32 39.0222Z" fill="#FFE492"/>
<path d="M222.603 38.897C222.781 38.8892 222.958 38.8765 223.136 38.8765C223.26 38.8755 223.359 38.898 223.37 38.9224C223.374 38.9342 223.317 38.9537 223.272 38.9596C223.056 38.986 222.815 38.9879 222.58 38.9967C222.471 39.0006 222.35 38.985 222.282 38.9576C222.18 38.9166 222.24 38.898 222.425 38.9039C222.482 38.9058 222.542 38.8999 222.603 38.897Z" fill="#FFE492"/>
<path d="M201.892 37.1105C202.07 37.1027 202.247 37.09 202.425 37.089C202.549 37.088 202.648 37.1105 202.659 37.135C202.663 37.1467 202.606 37.1653 202.561 37.1721C202.345 37.1985 202.104 37.2005 201.869 37.2092C201.76 37.2132 201.639 37.1975 201.571 37.1702C201.469 37.1291 201.529 37.1105 201.714 37.1164C201.771 37.1183 201.832 37.1125 201.892 37.1105Z" fill="#FFE492"/>
<path d="M200.406 37.0525C200.595 37.0447 200.655 37.0398 200.716 37.0398C200.829 37.0398 200.946 37.0515 201.014 37.0799C201.116 37.1209 201.056 37.1327 200.871 37.1346C200.633 37.1366 200.398 37.1571 200.16 37.161C200.036 37.163 199.937 37.1395 199.93 37.1151C199.926 37.1033 199.983 37.0828 200.028 37.0789C200.187 37.0642 200.361 37.0554 200.406 37.0525Z" fill="#FFE492"/>
<path d="M221.186 31.3027C221.065 31.3076 220.937 31.3213 220.823 31.3164C220.672 31.3096 220.612 31.2832 220.65 31.2587C220.672 31.245 220.714 31.2255 220.759 31.2226C221.001 31.2089 221.247 31.2001 221.489 31.1903C221.632 31.205 221.696 31.2255 221.659 31.2499C221.636 31.2636 221.594 31.2822 221.549 31.2861C221.432 31.2959 221.307 31.2978 221.186 31.3027Z" fill="#FFE492"/>
<path d="M74.5127 31.8665C74.6299 31.8655 74.7356 31.8782 74.8263 31.9027C74.7696 31.9339 74.6865 31.9545 74.5732 31.9633C74.5165 31.9672 74.4523 31.9701 74.3918 31.9711C74.2747 31.973 74.1688 31.9594 74.0781 31.9349C74.1348 31.9036 74.2217 31.8831 74.3313 31.8743C74.388 31.8704 74.4523 31.8694 74.5127 31.8665Z" fill="#FFE492"/>
<path d="M260.465 40.5379C260.461 40.5096 260.692 40.4773 260.9 40.4783C261.009 40.4793 261.122 40.493 261.187 40.5193C261.285 40.5594 261.228 40.5751 261.043 40.5721C260.93 40.5702 260.809 40.5868 260.695 40.5838C260.567 40.5829 260.491 40.5614 260.465 40.5379Z" fill="#FFE492"/>
<path d="M204.724 37.2363C204.72 37.2255 204.701 37.2128 204.713 37.203C204.784 37.1493 205.219 37.1327 205.332 37.1796C205.351 37.1884 205.359 37.203 205.344 37.2118C205.321 37.2255 205.279 37.2431 205.234 37.247C205.117 37.2568 204.996 37.2617 204.875 37.2627C204.822 37.2627 204.773 37.2461 204.724 37.2363Z" fill="#FFE492"/>
<path d="M2.80327 37.0262C2.35737 37.0467 2.34981 37.0448 2.42917 36.9959C2.50096 36.9519 2.63324 36.9255 2.82596 36.9255C2.88264 36.9255 2.94308 36.9236 2.99221 36.9275C3.04511 36.9324 3.12073 36.9421 3.13207 36.9539C3.15474 36.9764 3.09044 37.0008 2.97708 37.0174C2.92795 37.0252 2.86373 37.0233 2.80327 37.0262Z" fill="#FFE492"/>
<path d="M80.008 31.7288C79.8757 31.7454 79.7624 31.7396 79.6793 31.7083C79.5961 31.677 79.7284 31.6399 79.9589 31.6311C80.0194 31.6291 80.0836 31.6213 80.1403 31.6252C80.197 31.6282 80.2537 31.6399 80.2877 31.6516C80.3482 31.6712 80.3104 31.6975 80.1895 31.72C80.1403 31.7288 80.0684 31.7269 80.008 31.7288Z" fill="#FFE492"/>
<path d="M259.676 40.4646C259.71 40.4519 259.744 40.4392 259.782 40.4275C259.922 40.4441 259.982 40.4637 259.944 40.4861C259.921 40.4998 259.876 40.5115 259.842 40.5243C259.702 40.5076 259.646 40.4871 259.676 40.4646Z" fill="#FFE492"/>
<path d="M8.76172 48.1524C8.76172 48.1407 8.81462 48.1221 8.85619 48.1182C8.93554 48.1114 9.03376 48.125 9.10178 48.1524C9.19625 48.1915 9.13961 48.212 8.96579 48.2013C8.84487 48.1935 8.76172 48.1739 8.76172 48.1524Z" fill="#FFE492"/>
<path d="M206.531 36.3264C206.58 36.3352 206.63 36.344 206.675 36.3538C206.611 36.3899 206.531 36.4056 206.448 36.3958C206.395 36.3899 206.35 36.3782 206.301 36.3694C206.365 36.3332 206.441 36.3196 206.531 36.3264Z" fill="#FFE492"/>
<path d="M205.606 36.2825C205.682 36.2678 205.772 36.2757 205.878 36.304C205.844 36.3167 205.814 36.3314 205.772 36.3412C205.7 36.3568 205.606 36.349 205.504 36.3196C205.534 36.3079 205.568 36.2952 205.606 36.2825Z" fill="#FFE492"/>
<path d="M204.143 36.3253C204.192 36.3341 204.241 36.3429 204.286 36.3527C204.222 36.3888 204.146 36.4045 204.059 36.3947C204.007 36.3888 203.961 36.3771 203.912 36.3683C203.976 36.3321 204.052 36.3175 204.143 36.3253Z" fill="#FFE492"/>
<path d="M203.372 36.2735C203.429 36.293 203.399 36.3165 203.289 36.3429C203.24 36.3341 203.183 36.3272 203.146 36.3155C203.085 36.2969 203.115 36.2725 203.229 36.2461C203.274 36.2559 203.323 36.2647 203.372 36.2735Z" fill="#FFE492"/>
</svg>
