<svg width="234" height="46" viewBox="0 0 234 46" fill="none" xmlns="http://www.w3.org/2000/svg">
<path d="M218.898 24.1186C218.579 24.1568 218.256 24.183 217.944 24.2403C217.741 24.2761 217.654 24.1711 217.518 24.1162C217.473 24.0971 217.425 24.0589 217.383 24.0637C217.067 24.1019 216.751 24.1449 216.435 24.1878C216.338 24.2809 216.277 24.405 216.129 24.4504C215.984 24.4934 215.813 24.4934 215.652 24.5148C215.439 24.5411 215.226 24.5674 215.014 24.5912C214.907 24.6032 214.82 24.6485 214.785 24.7345C214.778 24.7488 214.849 24.7846 214.888 24.8061C215.017 24.8777 215.143 24.9588 215.284 25.0137C215.42 25.0662 215.587 24.9803 215.732 25.0471C216.058 25.1975 216.061 25.1951 216.309 25.1665C216.522 25.1402 216.735 25.1116 216.948 25.0925C216.99 25.0877 217.038 25.1235 217.083 25.1426C217.218 25.1951 217.305 25.3145 217.505 25.2691C217.657 25.2333 217.824 25.2262 217.982 25.2071C218.114 25.2763 218.237 25.3551 218.379 25.41C218.511 25.4625 218.55 25.5031 218.479 25.5723C218.414 25.6368 218.324 25.663 218.205 25.6678C218.098 25.6702 217.992 25.6916 217.886 25.7036C217.831 25.7107 217.779 25.7155 217.728 25.7227C217.525 25.7489 217.525 25.7489 217.154 25.5962C217.009 25.5365 216.844 25.62 216.706 25.5627C216.612 25.5246 216.532 25.4673 216.442 25.4267C216.403 25.41 216.342 25.4076 216.293 25.4124C216.132 25.4291 215.971 25.441 215.816 25.472C215.707 25.4935 215.642 25.5604 215.655 25.6272C215.658 25.6535 215.736 25.6917 215.781 25.694C215.884 25.6988 215.994 25.6654 216.093 25.6821C216.19 25.6988 216.29 25.7465 216.361 25.7991C216.506 25.9089 216.67 25.811 216.809 25.8397C216.954 25.8707 217.073 25.9662 217.212 26.0235C217.247 26.0378 217.315 26.0139 217.37 26.0067C217.528 25.99 217.686 25.9757 217.844 25.959C217.976 26.0282 218.118 26.0903 218.237 26.1691C218.453 26.3123 218.685 26.3672 218.965 26.2979C219.123 26.2598 219.278 26.2741 219.404 26.3672C219.533 26.4627 219.681 26.4531 219.845 26.434C219.997 26.4149 220.152 26.3624 220.306 26.4292C220.641 26.5772 220.645 26.5844 221.041 26.5271C221.16 26.5104 221.251 26.5056 221.341 26.5605C221.425 26.6107 221.515 26.6536 221.602 26.7014C221.76 26.6847 221.921 26.668 222.079 26.6489C222.282 26.6226 222.395 26.656 222.443 26.7897C222.472 26.8708 222.485 26.9448 222.556 26.9997C222.64 27.0666 222.73 27.0642 222.853 27.0451C222.969 27.0284 223.052 27.0021 223.101 26.9162C223.12 26.8804 223.159 26.847 223.194 26.8183C223.223 26.7968 223.268 26.7634 223.294 26.7682C223.343 26.7778 223.407 26.804 223.423 26.835C223.581 27.1239 223.581 27.1263 223.742 27.2098C223.919 27.3029 224.103 27.3864 224.264 27.4915C224.409 27.5845 224.554 27.544 224.712 27.544C224.832 27.544 224.909 27.6061 224.899 27.6681C224.893 27.7039 224.848 27.7564 224.809 27.7612C224.493 27.8089 224.174 27.8495 223.855 27.8829C223.816 27.8877 223.768 27.8447 223.723 27.8233C223.633 27.7803 223.552 27.7134 223.455 27.6991C223.359 27.6848 223.246 27.7206 223.14 27.7325C223.033 27.7445 222.92 27.7755 222.824 27.7564C222.727 27.7373 222.65 27.6681 222.559 27.6228C222.517 27.6013 222.459 27.5703 222.424 27.5774C222.189 27.6347 222.015 27.5559 221.847 27.4509C221.812 27.4294 221.75 27.4151 221.705 27.4199C221.331 27.4604 220.961 27.5082 220.587 27.5535C220.435 27.5726 220.313 27.4891 220.28 27.3482C220.264 27.2695 220.232 27.1907 220.232 27.1119C220.232 26.9687 220.055 26.8899 219.926 26.9066C219.713 26.9305 219.497 26.9496 219.288 26.9854C219.117 27.0141 218.972 26.9854 218.856 26.8995C218.72 26.8016 218.566 26.8207 218.411 26.847C218.295 26.8661 218.263 26.9448 218.269 27.143C218.276 27.3029 218.221 27.353 218.011 27.3793C217.747 27.4127 217.479 27.4461 217.212 27.4724C217.17 27.4771 217.122 27.4366 217.08 27.4151C216.99 27.3721 216.909 27.3029 216.812 27.2886C216.716 27.2719 216.603 27.3077 216.496 27.322C216.39 27.3339 216.277 27.3673 216.18 27.3506C216.084 27.3339 216.003 27.2623 215.916 27.217C215.874 27.1955 215.823 27.1644 215.781 27.1692C215.568 27.1883 215.355 27.217 215.143 27.2432C214.904 27.2719 214.904 27.2719 214.566 27.1239C214.411 27.057 214.256 27.1096 214.105 27.1287C213.944 27.1477 213.792 27.1573 213.666 27.0618C213.583 26.9997 213.489 26.9616 213.389 26.9735C213.122 27.0021 212.857 27.0379 212.59 27.0666C212.545 27.0714 212.483 27.0594 212.448 27.0379C212.277 26.9377 212.11 26.8589 211.871 26.909C211.665 26.952 211.442 26.9544 211.236 26.995C211.123 27.0164 211.072 27.0928 211.094 27.1525C211.107 27.1835 211.175 27.2194 211.22 27.2194C211.323 27.2217 211.436 27.1859 211.533 27.2002C211.732 27.2289 211.832 27.4294 212.093 27.3745C212.248 27.3411 212.409 27.3291 212.57 27.3196C212.612 27.3172 212.657 27.3626 212.703 27.3864C212.831 27.4509 212.944 27.5344 213.131 27.4915C213.286 27.458 213.45 27.4485 213.608 27.4294C213.86 27.3984 213.86 27.4008 214.185 27.5464C214.34 27.6156 214.495 27.5607 214.646 27.544C214.759 27.5321 214.865 27.5082 214.956 27.5416C215.094 27.5917 215.194 27.7063 215.365 27.6991C215.526 27.692 215.684 27.6586 215.845 27.6466C215.945 27.6395 216.039 27.6777 216.119 27.7421C216.203 27.8066 216.293 27.8352 216.403 27.8209C216.561 27.8018 216.722 27.7779 216.883 27.766C216.928 27.7636 216.98 27.7851 217.022 27.8042C217.112 27.8471 217.199 27.8973 217.286 27.9426C217.444 27.9283 217.605 27.9235 217.76 27.8949C217.879 27.8734 217.963 27.8829 218.06 27.9307C218.182 27.9951 218.282 28.1097 218.482 28.0548C218.582 28.0286 218.698 28.0357 218.798 28.0118C218.92 27.9808 219.004 27.9927 219.091 28.0643C219.255 28.2004 219.462 28.2028 219.674 28.1503C219.907 28.093 220.081 28.1598 220.255 28.2649C220.438 28.3747 220.438 28.3723 220.58 28.6372C220.622 28.7136 220.741 28.7494 220.841 28.7351C221.009 28.7112 221.154 28.7232 221.276 28.8139C221.405 28.9117 221.56 28.8998 221.718 28.8736C221.928 28.8377 222.137 28.8067 222.308 28.9452C222.392 29.012 222.482 29.0287 222.595 29.012C222.914 28.969 223.236 28.9428 223.549 28.8903C223.739 28.8569 223.849 28.9332 223.978 28.9977C224.152 29.086 224.342 29.1648 224.342 29.3533C224.342 29.3844 224.387 29.4202 224.426 29.4441C224.509 29.4942 224.6 29.5371 224.687 29.5849C224.816 29.6565 224.941 29.7162 225.119 29.678C225.273 29.6469 225.438 29.6374 225.596 29.6159C225.754 29.5944 225.899 29.5825 226.04 29.6732C226.205 29.7758 226.379 29.8737 226.566 29.9501C226.698 30.005 226.872 29.9119 227.014 29.9859C227.101 30.0313 227.185 30.0838 227.278 30.122C227.317 30.1387 227.378 30.1267 227.43 30.122C227.536 30.1124 227.646 30.1053 227.749 30.0814C227.868 30.0551 227.958 30.0599 228.049 30.1148C228.132 30.1649 228.216 30.2342 228.313 30.2485C228.458 30.27 228.619 30.1745 228.764 30.2843C228.838 30.3392 228.932 30.3917 229.028 30.4084C229.125 30.4251 229.238 30.3893 229.341 30.3917C229.386 30.3917 229.441 30.4299 229.467 30.4609C229.483 30.4776 229.46 30.523 229.438 30.5469C229.409 30.5755 229.367 30.6137 229.325 30.6185C229.006 30.6614 228.687 30.6973 228.368 30.7378C228.177 30.7617 228.177 30.7617 227.794 30.6113C227.704 30.5755 227.604 30.5827 227.491 30.5994C227.339 30.6208 227.185 30.6614 227.027 30.6185C226.82 30.4562 226.566 30.4418 226.295 30.5039C226.182 30.5301 226.079 30.5301 225.995 30.4848C225.818 30.3941 225.631 30.3106 225.473 30.2031C225.351 30.1196 225.293 30.1124 225.241 30.227C225.225 30.2628 225.209 30.301 225.212 30.3344C225.231 30.4538 225.267 30.5707 225.286 30.6901C225.293 30.7235 225.267 30.7617 225.251 30.7975C225.199 30.8978 225.132 30.8906 225.019 30.807C224.906 30.7235 224.77 30.6686 224.59 30.7068C224.435 30.7402 224.268 30.7354 224.113 30.7713C223.874 30.8238 223.707 30.7474 223.536 30.6447C223.501 30.6233 223.439 30.6113 223.394 30.6161C222.914 30.671 222.437 30.733 221.957 30.788C221.853 30.7999 221.76 30.7641 221.679 30.6996C221.596 30.6352 221.502 30.6018 221.399 30.6137C220.973 30.6638 220.548 30.7092 220.122 30.7713C219.948 30.7975 219.81 30.7665 219.691 30.6829C219.6 30.6208 219.517 30.6018 219.404 30.6089C219.281 30.6161 219.194 30.64 219.133 30.7092C219.075 30.776 219.117 30.8166 219.246 30.8691C219.384 30.9264 219.513 31.0004 219.645 31.0672C219.752 31.0577 219.858 31.0386 219.961 31.041C220.006 31.041 220.048 31.0839 220.094 31.1078C220.222 31.177 220.342 31.2463 220.525 31.2081C220.68 31.1747 220.845 31.1675 221.002 31.146C221.222 31.1197 221.222 31.1198 221.576 31.2701C221.666 31.3083 221.763 31.3059 221.879 31.2844C221.979 31.2677 222.082 31.3011 222.153 31.3728C222.182 31.4014 222.173 31.4492 222.111 31.6067C222.111 31.7237 222.179 31.6712 222.201 31.5948C222.237 31.485 222.169 31.4492 222.04 31.5088C221.95 31.5518 221.905 31.6139 221.928 31.664C221.94 31.6903 222.002 31.7237 222.111 31.6067C222.395 31.4635 222.611 31.4468 222.817 31.4086C222.94 31.3871 223.017 31.3966 223.114 31.4587C223.23 31.5327 223.346 31.6115 223.536 31.5733C223.742 31.5303 223.961 31.5255 224.171 31.4897C224.364 31.4563 224.464 31.5613 224.587 31.6234C224.735 31.6974 224.899 31.6139 225.035 31.6568C225.177 31.6998 225.276 31.8048 225.441 31.8239C225.679 31.7595 225.831 31.8788 226.011 31.9576C226.153 32.0173 226.321 31.9647 226.472 31.9385C226.643 31.9098 226.785 31.9361 226.904 32.0221C227.04 32.1199 227.191 32.0984 227.346 32.077C227.707 32.0292 227.72 32.022 227.929 32.1533C228.081 32.2488 228.226 32.2058 228.377 32.1939C228.509 32.2584 228.638 32.3276 228.777 32.3849C228.812 32.3992 228.88 32.3753 228.935 32.3682C229.093 32.3491 229.254 32.33 229.412 32.3109C229.518 32.2989 229.631 32.2631 229.728 32.2775C229.825 32.2942 229.905 32.3634 229.992 32.4087C230.079 32.4541 230.169 32.4994 230.253 32.5472C230.382 32.6188 230.505 32.6785 230.685 32.6427C230.84 32.6116 231.001 32.6021 231.162 32.5806C231.365 32.5544 231.359 32.5615 231.736 32.7047C231.939 32.7835 232.148 32.688 232.355 32.6785C232.458 32.6737 232.558 32.7 232.629 32.7692C232.658 32.7978 232.648 32.8456 232.658 32.8862C232.126 32.9506 231.591 33.0055 231.065 33.0843C230.862 33.1153 230.756 33.0294 230.646 32.9577C230.466 32.8432 230.227 33.0103 230.057 32.8623C229.953 32.7739 229.805 32.7238 229.628 32.7668C229.525 32.7907 229.415 32.7883 229.309 32.8098C229.038 32.8623 228.79 32.8647 228.574 32.7C228.5 32.6427 228.393 32.6116 228.316 32.5567C228.226 32.4971 228.139 32.4636 228.032 32.4756C227.552 32.5329 227.075 32.5901 226.598 32.6522C226.556 32.657 226.514 32.6928 226.479 32.719C226.389 32.7859 226.418 32.8384 226.563 32.8814C226.611 32.8957 226.65 32.9267 226.695 32.9506C226.782 32.9959 226.862 33.0676 226.959 33.0843C227.056 33.101 227.169 33.0676 227.275 33.0556C227.381 33.0437 227.494 33.0079 227.591 33.0222C227.688 33.0389 227.768 33.1081 227.858 33.1511C227.9 33.1726 227.952 33.2084 227.994 33.206C228.206 33.1917 228.416 33.1654 228.629 33.1439C228.761 33.2084 228.874 33.3015 229.032 33.323C229.132 33.3373 229.238 33.311 229.341 33.3158C229.386 33.3182 229.444 33.354 229.467 33.385C229.48 33.4041 229.438 33.4519 229.405 33.4757C229.283 33.5664 229.115 33.5497 228.964 33.5784C228.8 33.6094 228.651 33.5999 228.526 33.5068C228.442 33.4447 228.348 33.4113 228.245 33.4232C227.978 33.4543 227.713 33.4901 227.446 33.5163C227.401 33.5211 227.346 33.4996 227.304 33.4829C226.965 33.3373 226.965 33.3325 226.727 33.3636C226.376 33.4089 226.376 33.4089 226.14 33.2824C226.095 33.2585 226.047 33.2132 226.008 33.2156C225.634 33.2538 225.264 33.2919 224.893 33.3468C224.77 33.3635 224.687 33.3636 224.596 33.3015C224.519 33.249 224.429 33.1893 224.332 33.175C224.232 33.1607 224.123 33.1965 224.016 33.2084C223.91 33.2203 223.797 33.2514 223.704 33.2323C223.607 33.2132 223.523 33.1463 223.439 33.0986C223.352 33.0485 223.259 33.0508 223.14 33.0699C222.772 33.1248 222.769 33.1177 222.405 32.9697C222.363 32.953 222.308 32.9339 222.263 32.9387C221.995 32.9673 221.731 33.0031 221.463 33.0318C221.36 33.0437 221.26 33.0127 221.189 32.9434C221.16 32.9148 221.17 32.867 221.151 32.7739C221.128 32.7525 221.154 32.7907 221.16 32.8265C221.209 32.8217 221.267 32.8265 221.302 32.8074C221.393 32.762 221.438 32.7023 221.415 32.6522C221.402 32.6259 221.341 32.5925 221.302 32.5925C221.231 32.5925 221.17 32.645 221.151 32.7739C220.948 32.8527 220.732 32.8694 220.522 32.9076C220.4 32.9315 220.322 32.9196 220.226 32.8575C220.11 32.7811 219.99 32.7071 219.8 32.7453C219.594 32.7883 219.375 32.7954 219.162 32.8289C218.917 32.8671 218.811 32.6522 218.604 32.657C218.392 32.6618 218.179 32.7023 217.966 32.731C217.779 32.7549 217.779 32.7548 217.392 32.5997C217.251 32.5424 217.083 32.6259 216.944 32.5663C216.851 32.5281 216.77 32.4708 216.68 32.4302C216.641 32.4135 216.58 32.4135 216.532 32.4183C216.264 32.4469 215.994 32.466 215.736 32.5185C215.442 32.5806 215.22 32.5138 215.01 32.3729C214.746 32.3992 214.479 32.4135 214.218 32.4589C214.027 32.4923 213.918 32.4135 213.789 32.3491C213.744 32.3276 213.705 32.2918 213.657 32.2822C213.608 32.2727 213.55 32.2918 213.499 32.2989C213.286 32.3252 213.067 32.3371 212.861 32.3801C212.606 32.435 212.509 32.2393 212.313 32.2154C212.18 32.3324 212.11 32.4923 211.848 32.5042C211.636 32.5138 211.423 32.552 211.21 32.5782C211.104 32.5902 210.997 32.6045 210.891 32.6164C210.72 32.6379 210.64 32.731 210.675 32.8742C210.695 32.953 210.711 33.0317 210.727 33.1105C210.759 33.2514 210.678 33.3707 210.543 33.3874C210.169 33.4328 209.798 33.4805 209.425 33.5211C209.325 33.533 209.228 33.4924 209.147 33.428C209.064 33.3635 208.97 33.3349 208.867 33.3468C208.493 33.3922 208.122 33.4399 207.748 33.4805C207.707 33.4853 207.652 33.4614 207.61 33.4423C207.52 33.3994 207.433 33.3492 207.346 33.3039C207.133 33.3254 206.923 33.3397 206.714 33.3683C206.375 33.4113 206.375 33.4137 206.127 33.2824C206.082 33.2585 206.037 33.2132 205.995 33.2156C205.834 33.2251 205.676 33.249 205.515 33.2705C205.041 33.3325 205.041 33.3325 204.902 33.2609C204.777 33.1941 204.664 33.1129 204.474 33.1511C204.267 33.1941 204.048 33.2084 203.835 33.2323C203.677 33.249 203.52 33.2681 203.362 33.2729C203.32 33.2752 203.275 33.2299 203.229 33.206C203.101 33.132 202.975 33.0723 202.798 33.1129C202.694 33.1368 202.585 33.1416 202.478 33.1535C202.201 33.1869 202.201 33.1869 201.747 33.0437C201.702 33.0294 201.647 33.0126 201.602 33.0198C201.228 33.0628 200.857 33.1105 200.483 33.1511C200.438 33.1559 200.383 33.1415 200.338 33.1296C199.829 32.9912 199.829 32.9912 199.287 33.058C199.081 33.0819 199.075 33.0914 198.859 32.9649C198.762 32.91 198.681 32.8838 198.569 32.9005C198.143 32.9577 197.714 32.996 197.292 33.0628C197.102 33.0914 196.992 33.0198 196.864 32.9554C196.818 32.9339 196.77 32.8862 196.731 32.8885C196.306 32.9339 195.88 32.9888 195.455 33.0341C195.416 33.0389 195.368 32.9912 195.323 32.9697C195.236 32.9267 195.152 32.8623 195.055 32.848C194.955 32.8336 194.846 32.8694 194.736 32.8814C194.469 32.9124 194.469 32.91 194.159 32.7692C194.117 32.7501 194.062 32.7238 194.021 32.7286C193.595 32.7763 193.166 32.8169 192.744 32.8862C192.502 32.9243 192.338 32.8551 192.167 32.7549C192.132 32.7334 192.071 32.7238 192.025 32.7286C191.545 32.7835 191.068 32.8456 190.588 32.9005C190.488 32.9124 190.391 32.8718 190.311 32.8098C190.182 32.7119 190.03 32.7238 189.869 32.7453C189.498 32.7954 189.495 32.7931 189.276 32.6785C189.231 32.6546 189.192 32.6236 189.144 32.6116C189.099 32.5997 189.041 32.6069 188.992 32.6116C188.78 32.6355 188.567 32.6618 188.354 32.688C188.141 32.7143 187.925 32.7286 187.716 32.7692C187.458 32.8193 187.336 32.6641 187.155 32.5925C186.891 32.6236 186.62 32.6427 186.359 32.6928C186.159 32.731 186.066 32.626 185.934 32.571C185.888 32.552 185.84 32.5114 185.798 32.5162C185.318 32.5687 184.838 32.626 184.361 32.6904C184.244 32.7047 184.167 32.6856 184.07 32.6283C183.854 32.4994 183.845 32.5042 183.484 32.552C183.326 32.5734 183.174 32.5925 183.039 32.4947C182.92 32.4064 182.775 32.3849 182.604 32.4135C182.394 32.4493 182.178 32.4684 181.966 32.4923C181.753 32.5185 181.54 32.5543 181.327 32.5663C181.157 32.5782 181.053 32.466 180.918 32.4087C180.876 32.392 180.818 32.3896 180.77 32.3944C180.557 32.4159 180.338 32.4326 180.132 32.4732C179.88 32.5233 179.742 32.392 179.564 32.3157C179.526 32.2989 179.461 32.3085 179.413 32.3157C179.039 32.3586 178.668 32.4063 178.294 32.4517C178.162 32.3872 178.027 32.3252 177.895 32.2608C177.682 32.2846 177.469 32.3109 177.256 32.3347C177.095 32.3538 176.931 32.361 176.779 32.3968C176.583 32.4445 176.486 32.3324 176.354 32.2775C176.309 32.2584 176.26 32.2178 176.219 32.2226C175.951 32.2488 175.684 32.2775 175.419 32.318C175.168 32.3586 175.068 32.1438 174.862 32.1462C174.649 32.1485 174.43 32.1796 174.223 32.2226C173.985 32.2727 173.817 32.1963 173.646 32.0936C173.611 32.0722 173.55 32.0602 173.505 32.065C173.237 32.0936 172.973 32.1295 172.705 32.1581C172.66 32.1629 172.605 32.1509 172.56 32.1366C172.051 31.9958 172.051 31.9934 171.829 32.0221C171.671 32.0411 171.509 32.065 171.348 32.077C171.303 32.0817 171.248 32.0602 171.206 32.0411C170.871 31.8955 170.871 31.8931 170.629 31.9218C170.417 31.948 170.204 31.9743 169.991 32.0005C169.859 31.9361 169.724 31.8741 169.592 31.8096C169.327 31.8406 169.056 31.8645 168.795 31.9074C168.673 31.9265 168.592 31.9194 168.499 31.8597C168.383 31.7881 168.267 31.7046 168.073 31.7451C167.867 31.7881 167.648 31.7929 167.438 31.8287C167.187 31.8717 167.084 31.6544 166.881 31.6568C166.668 31.6592 166.449 31.6902 166.243 31.7332C166.004 31.7833 165.836 31.707 165.666 31.6043C165.63 31.5828 165.569 31.5709 165.524 31.5757C164.937 31.6449 164.354 31.7141 163.767 31.7881C163.406 31.8335 163.406 31.8358 162.72 31.7046C162.671 31.695 162.62 31.6855 162.571 31.6903C162.359 31.7117 162.139 31.7284 161.933 31.769C161.682 31.8191 161.543 31.6902 161.366 31.6115C161.327 31.5948 161.266 31.6043 161.214 31.6091C161.053 31.6258 160.895 31.6473 160.734 31.6664C160.521 31.6926 160.309 31.7189 160.096 31.7451C159.964 31.6831 159.828 31.6186 159.696 31.5566C159.432 31.5876 159.161 31.6043 158.9 31.6544C158.7 31.6926 158.607 31.5924 158.475 31.5351C158.429 31.516 158.381 31.4754 158.339 31.4778C157.859 31.5303 157.379 31.5852 156.902 31.6521C156.705 31.6807 156.615 31.5733 156.483 31.5184C156.437 31.5017 156.386 31.4706 156.344 31.4754C156.025 31.5088 155.706 31.5494 155.387 31.59C155.206 31.6139 155.206 31.6139 154.813 31.4659C154.768 31.4491 154.716 31.4324 154.671 31.4372C153.659 31.5566 152.65 31.6831 151.638 31.8024C151.535 31.8144 151.441 31.7786 151.361 31.7141C151.277 31.6497 151.184 31.6163 151.08 31.6282C150.655 31.6783 150.226 31.7237 149.804 31.7857C149.63 31.812 149.491 31.7809 149.372 31.6974C149.282 31.6353 149.198 31.6115 149.085 31.6258C148.872 31.6544 148.66 31.6783 148.447 31.7046C148.234 31.7308 148.022 31.7571 147.809 31.7833C147.596 31.8096 147.38 31.8239 147.171 31.8645C146.913 31.9146 146.787 31.7666 146.61 31.6926C146.291 31.7284 145.972 31.7642 145.656 31.8024C145.23 31.8526 144.805 31.9075 144.379 31.9552C144.341 31.96 144.292 31.917 144.247 31.8955C144.115 31.8359 144.018 31.7523 143.822 31.7786C142.868 31.9051 141.907 32.0125 140.95 32.1366C140.75 32.1629 140.663 32.0602 140.527 32.0053C140.482 31.9886 140.431 31.9552 140.389 31.96C139.857 32.0197 139.325 32.0865 138.793 32.1509C138.577 32.1772 138.577 32.1772 138.216 32.0292C138.175 32.0125 138.12 31.991 138.075 31.9958C137.382 32.0769 136.692 32.1629 135.999 32.2464C135.896 32.2584 135.802 32.2249 135.718 32.1605C135.638 32.096 135.541 32.0602 135.441 32.0722C134.803 32.1486 134.162 32.2225 133.527 32.3061C133.356 32.33 133.214 32.3085 133.091 32.2226C133.004 32.1605 132.917 32.1342 132.808 32.1485C131.85 32.2655 130.893 32.3777 129.936 32.5018C129.752 32.5257 129.623 32.4804 129.507 32.4016C129.414 32.3395 129.333 32.3276 129.217 32.3371C129.095 32.3491 129.02 32.3753 128.953 32.4469C128.866 32.54 128.811 32.657 128.605 32.6641C128.392 32.6713 128.176 32.7 127.966 32.7405C127.767 32.7811 127.673 32.6737 127.547 32.6093C127.454 32.5639 127.367 32.5567 127.248 32.5782C127.138 32.5973 127.07 32.6379 127.006 32.7143C126.864 32.8766 126.851 32.8766 126.677 32.7739C126.584 32.719 126.5 32.6761 126.397 32.6856C125.971 32.7334 125.546 32.7859 125.12 32.8408C124.875 32.8718 124.872 32.8766 124.688 32.7572C124.598 32.6976 124.511 32.6689 124.405 32.6832C123.235 32.8265 122.065 32.9649 120.895 33.1153C120.714 33.1392 120.592 33.089 120.463 33.0174C120.421 32.9936 120.379 32.9601 120.331 32.9506C120.282 32.941 120.227 32.9506 120.176 32.9554C119.325 33.058 118.471 33.1559 117.623 33.2705C117.43 33.2967 117.327 33.2203 117.194 33.1583C117.149 33.1368 117.111 33.1034 117.062 33.0938C117.014 33.0867 116.956 33.1034 116.904 33.1105C116.053 33.2132 115.199 33.311 114.351 33.4256C114.148 33.4519 114.061 33.3516 113.929 33.2991C113.884 33.28 113.836 33.2442 113.794 33.249C113.526 33.2752 113.262 33.311 112.994 33.3421C112.356 33.4208 111.718 33.4949 111.08 33.576C110.835 33.607 110.728 33.3946 110.522 33.4041C110.255 33.4161 109.99 33.4638 109.723 33.4972C109.51 33.5235 109.297 33.5474 109.085 33.576C108.875 33.6023 108.875 33.6022 108.353 33.4638C108.308 33.4519 108.253 33.4352 108.208 33.4399C107.463 33.5283 106.716 33.6166 105.974 33.7121C105.803 33.7335 105.661 33.7216 105.539 33.6333C105.452 33.5712 105.362 33.5402 105.255 33.5545C104.137 33.6906 103.022 33.8266 101.903 33.9603C101.861 33.9651 101.806 33.9412 101.765 33.9221C101.674 33.8791 101.587 33.829 101.5 33.7837C101.436 33.8386 101.352 33.8887 101.31 33.9508C101.252 34.0343 101.175 34.0582 101.052 34.0725C100.93 34.0868 100.852 34.0821 100.756 34.02C100.64 33.9436 100.52 33.8839 100.33 33.9078C99.1602 34.0582 97.9901 34.1942 96.8201 34.3422C96.6267 34.3661 96.5365 34.2611 96.4011 34.2062C96.356 34.1894 96.3044 34.1632 96.2625 34.168C95.7822 34.2229 95.3052 34.2826 94.8249 34.3398C93.4937 34.5022 92.1626 34.6573 90.8346 34.8292C90.5928 34.8602 90.4284 34.8005 90.2576 34.6979C90.2221 34.6764 90.1609 34.6645 90.1158 34.6693C88.2527 34.8936 86.3897 35.1204 84.5299 35.3472C84.4299 35.3591 84.3332 35.3209 84.2526 35.2588C84.1688 35.1944 84.0754 35.1634 83.9722 35.1753C83.1213 35.2779 82.2704 35.3806 81.4194 35.4856C81.2067 35.5119 81.2035 35.5142 80.9843 35.3997C80.9392 35.3758 80.8908 35.3305 80.8554 35.3352C80.7812 35.3472 80.7103 35.4068 80.6587 35.488C80.6072 35.5739 80.5266 35.5978 80.4073 35.6145C80.2848 35.6312 80.2043 35.6241 80.1108 35.5668C79.9915 35.4952 79.8819 35.4259 79.6885 35.4498C77.2421 35.7554 74.7956 36.0489 72.3492 36.3521C72.1525 36.376 72.0623 36.2757 71.9269 36.2208C71.8818 36.2041 71.8367 36.1802 71.7883 36.1755C71.7368 36.1707 71.682 36.185 71.6304 36.1922C67.64 36.6767 63.6496 37.1637 59.6593 37.6483C59.4207 37.6769 59.4239 37.6769 59.1629 37.8965C59.1306 37.9228 59.0887 37.9586 59.0436 37.9633C57.8219 38.1161 56.5971 38.2641 55.3723 38.4121C54.8405 38.4765 54.3087 38.5434 53.7768 38.6055C53.5866 38.6269 53.5866 38.6269 53.1322 38.8847C53.0935 38.9062 53.0483 38.9349 53.0032 38.9396C50.8758 39.1998 48.7485 39.46 46.6179 39.7154C46.4503 39.7345 46.3149 39.7775 46.2376 39.8921C46.1828 39.9732 46.1119 40.021 46.0055 40.0353C44.5164 40.2167 43.0273 40.4005 41.5349 40.5771C41.3576 40.5986 41.2512 40.6655 41.1642 40.7657C41.1352 40.7991 41.1094 40.8373 41.0675 40.8612C41.0288 40.8827 40.9708 40.8898 40.9224 40.897C39.646 41.0522 38.3696 41.2121 37.09 41.3601C36.8998 41.3816 36.8224 41.4699 36.729 41.563C36.6967 41.594 36.6742 41.637 36.6323 41.6585C36.5904 41.6776 36.5291 41.6776 36.4776 41.6823C35.4139 41.8112 34.3502 41.9425 33.2866 42.0714C33.0803 42.0595 33.0351 42.1979 32.9352 42.2815C32.8997 42.3101 32.874 42.3483 32.8321 42.3674C32.787 42.3865 32.7289 42.3841 32.6741 42.3889C31.8232 42.4915 30.9722 42.6013 30.1181 42.6968C29.9215 42.7183 29.8828 42.84 29.7764 42.9236C29.7409 42.9498 29.7055 42.9904 29.6636 42.9976C29.1318 43.0668 28.6 43.1312 28.0681 43.1933C27.8909 43.2148 27.8908 43.2124 27.5782 43.4487C27.5427 43.475 27.5008 43.5036 27.4557 43.5108C26.6595 43.6111 25.8602 43.7065 25.0608 43.8044C24.9577 43.8163 24.8868 43.8736 24.8352 43.9548C24.7836 44.0359 24.7095 44.0885 24.6064 44.1004C23.9682 44.1792 23.3299 44.2603 22.6917 44.3319C22.5144 44.351 22.3984 44.4107 22.321 44.5181C22.263 44.5993 22.1921 44.6398 22.0793 44.6542C21.4411 44.7306 20.8029 44.8141 20.1615 44.881C19.9745 44.9001 19.8778 44.9812 19.8004 45.0815C19.7392 45.1626 19.6683 45.1913 19.549 45.2056C18.379 45.344 17.2057 45.4825 16.0389 45.6352C15.8423 45.6615 15.7424 45.5779 15.6134 45.5183C15.4297 45.4347 15.2589 45.344 15.2589 45.1578C15.2589 45.1292 15.2041 45.0958 15.1654 45.0719C14.8786 44.8929 14.8786 44.8929 14.8334 44.7019C14.8076 44.585 14.7786 44.4656 14.7561 44.3463C14.7142 44.1505 14.611 44.1004 14.3144 44.1362C14.2081 44.1481 14.1017 44.1648 13.9953 44.1744C13.8374 44.1911 13.7182 44.1123 13.6892 43.9691C13.673 43.8903 13.6537 43.8116 13.6376 43.7328C13.7988 43.7137 13.7955 43.7113 14.0792 43.4225C14.1984 43.3007 14.1985 43.3007 13.9696 43.179C13.8826 43.1337 13.7988 43.0835 13.7053 43.0405C13.6634 43.0214 13.6086 43.0095 13.5635 43.0143C13.296 43.0429 13.0317 43.0764 12.7673 43.1098C12.3419 43.1623 12.3418 43.1623 11.9099 42.9188C11.8745 42.8997 11.8197 42.8639 11.8261 42.8448C11.8616 42.7565 11.9486 42.7183 12.0582 42.7087C12.2193 42.6944 12.3773 42.6705 12.5352 42.6515C12.6416 42.6395 12.7479 42.6252 12.8543 42.6133C12.9542 42.5226 13.0574 42.4342 13.1509 42.3412C13.2992 42.1979 13.2991 42.1931 13.096 42.0929C12.9671 42.0261 12.8285 41.9664 12.6964 41.9043C12.5384 41.9234 12.3773 41.9449 12.2193 41.9616C12.0195 41.9831 11.9389 41.9377 11.8873 41.7826C11.8422 41.6465 11.897 41.5296 12.0517 41.5009C12.2097 41.4723 12.358 41.4532 12.4386 41.3314C12.5159 41.2145 12.6513 41.1691 12.8189 41.1596C12.9253 41.1524 13.0316 41.1357 13.138 41.1214C13.2766 41.1023 13.3507 40.9805 13.3217 40.8445C13.3056 40.7562 13.2734 40.6822 13.1477 40.6631C12.59 40.5795 12.5836 40.5819 12.3064 40.4196C12.2806 40.4053 12.2613 40.3623 12.271 40.3408C12.2871 40.305 12.3225 40.2525 12.3612 40.2453C12.7319 40.1928 13.1025 40.1451 13.4732 40.1093C13.5957 40.0974 13.686 40.0806 13.7279 39.9923C13.7859 39.8706 13.7601 39.7584 13.6473 39.6748C13.6118 39.6486 13.5538 39.6152 13.5151 39.6176C13.0896 39.6605 12.6674 39.7154 12.2419 39.7584C12.2032 39.7632 12.1324 39.7226 12.1162 39.6916C12.084 39.6343 12.1323 39.5579 12.2451 39.5316C12.3934 39.4958 12.5449 39.4934 12.6448 39.3741C12.7834 39.2046 12.9542 39.0495 13.109 38.8871C13.1347 38.8585 13.1767 38.8036 13.167 38.7988C13.0864 38.7463 12.993 38.7057 12.9092 38.6556C12.7673 38.572 12.7673 38.4551 12.7995 38.3429C12.8253 38.2522 12.922 38.2164 13.0413 38.2164C13.0928 38.2164 13.1573 38.2164 13.1992 38.1949C13.3088 38.1424 13.3443 38.0755 13.2895 38.0254C13.2572 37.9968 13.1993 37.9562 13.1606 37.961C12.4708 38.0397 11.7777 38.1161 11.0912 38.214C10.8881 38.2426 10.7947 38.1519 10.6722 38.0875C10.5788 38.0373 10.4917 38.0182 10.3756 38.054C10.266 38.0875 10.1597 38.0684 10.092 37.9896C10.0372 37.9252 10.1339 37.8703 10.395 37.8082C10.4433 37.7963 10.4981 37.7891 10.5336 37.7652C10.9075 37.5074 10.9075 37.505 11.1653 37.4716C11.4167 37.4406 11.4168 37.4382 11.5489 37.2998C11.6102 37.2353 11.6778 37.1708 11.7358 37.104C11.7584 37.0778 11.7971 37.03 11.7842 37.0157C11.7133 36.9417 11.6166 36.925 11.5038 36.9417C11.2524 36.9823 10.9559 36.9489 10.8237 37.1756C10.7721 37.2616 10.6916 37.2854 10.5755 37.2998C9.4087 37.4382 8.24184 37.5862 7.0718 37.7199C6.88163 37.7414 6.79465 37.8297 6.72052 37.9275C6.65605 38.0087 6.58513 38.0326 6.46264 38.0469C6.34016 38.0612 6.24341 38.0684 6.1725 37.9896C6.1306 37.9419 6.16606 37.875 6.26276 37.8082C6.40136 37.7127 6.37556 37.5934 6.33044 37.4812C6.29821 37.4072 6.19829 37.3547 6.09192 37.3594C5.93398 37.369 5.78253 37.3952 5.65038 37.2998C5.57302 37.2449 5.4763 37.2066 5.38927 37.1589C5.22166 37.061 5.05405 36.9608 4.81875 37.0252C4.65759 37.0014 4.54477 36.9154 4.41584 36.8486C4.19989 36.7388 4.18055 36.7221 4.33526 36.6051C4.50932 36.4738 4.37392 36.302 4.47061 36.1731C4.57376 36.0346 4.71563 35.9129 4.84134 35.784C4.87357 35.7506 4.90259 35.7195 4.93482 35.6861C4.86069 35.6384 4.79301 35.5787 4.70598 35.5453C4.59317 35.5023 4.53515 35.4498 4.54159 35.3018C4.51903 35.2803 4.52864 35.3352 4.55442 35.3496C4.58343 35.3639 4.6544 35.352 4.68985 35.3352C4.7801 35.2899 4.82518 35.2302 4.80262 35.1801C4.78973 35.1538 4.72853 35.1204 4.68985 35.1204C4.61894 35.1204 4.55771 35.1729 4.53837 35.3018C4.17736 35.3997 3.80341 35.4474 3.42951 35.4856C3.39083 35.4904 3.34251 35.4427 3.29738 35.4188C3.14911 35.3376 3.1491 35.34 2.71396 35.3161C2.66883 35.3137 2.60762 35.2803 2.58506 35.2469C2.49158 35.1013 2.49483 34.9414 2.44971 34.7862C2.53351 34.686 2.61725 34.5881 2.70428 34.4902C2.87833 34.2921 3.10401 34.1179 3.23939 33.9006C3.21038 33.7837 3.17169 33.6667 3.31352 33.5712C3.71642 33.4519 3.71322 33.4519 3.82281 33.3373C4.13547 33.0127 4.44488 32.6856 4.77043 32.3658C4.85746 32.2822 4.85747 32.2369 4.70276 32.2011C4.65441 32.1915 4.60277 32.1891 4.5512 32.1939C4.39003 32.2106 4.22887 32.2536 4.07093 32.244C3.91299 32.2369 3.79696 32.1318 3.66803 32.0674C3.53587 32.0006 3.40373 31.9313 3.27157 31.8621C3.12008 31.8693 2.96861 31.9361 2.81712 31.8287C2.70108 31.7451 2.55605 31.6855 2.42389 31.6162C2.52381 31.4348 2.71079 31.2964 2.85584 31.1364C2.98799 30.9908 2.99114 30.9932 3.3457 30.881C3.51331 30.8285 3.57133 30.5588 3.42951 30.48C3.25868 30.3845 3.07821 30.2962 2.90416 30.2055C2.75266 30.2127 2.59798 30.2771 2.45293 30.1697C2.34012 30.0886 2.21116 30.0336 2.02421 30.0647C1.70833 30.1172 1.38602 30.1434 1.06692 30.1864C0.957326 30.2007 0.838031 30.1912 0.789682 30.11C0.757449 30.0528 0.85093 29.974 0.957297 29.9573C1.11846 29.9334 1.26349 29.9048 1.34407 29.7854C1.42143 29.6661 1.56324 29.6302 1.73085 29.6135C1.77597 29.6087 1.82758 29.5801 1.85015 29.5515C1.96618 29.413 2.09512 29.2937 2.34331 29.2984C2.44646 29.2507 2.50122 29.191 2.46899 29.1337C2.44965 29.1027 2.38199 29.0621 2.34331 29.0669C2.07578 29.0908 1.80826 29.1147 1.54718 29.1576C1.42469 29.1767 1.33117 29.1815 1.25381 29.1099C1.19902 29.0621 1.22802 28.9977 1.33117 28.9284C1.42142 28.8688 1.44723 28.7995 1.44079 28.7184C1.42467 28.5298 1.32795 28.4749 1.01852 28.4869C0.796116 28.4964 0.741317 28.4654 0.692968 28.303C0.680075 28.2649 0.647899 28.2123 0.670462 28.1861C0.809062 28.0238 0.89932 27.8233 1.1604 27.7469C1.26355 27.7182 1.37309 27.7182 1.43756 27.6562C1.50202 27.5941 1.56007 27.5225 1.62776 27.4628C1.71156 27.3912 1.76953 27.3244 1.73085 27.279C1.66638 27.1979 1.56327 27.1907 1.44401 27.2194C1.34087 27.2432 1.23128 27.2456 1.12491 27.2599C0.934741 27.2862 0.780059 27.2241 0.757496 27.1191C0.696255 26.8422 0.631771 26.5677 0.576975 26.2908C0.570529 26.2574 0.586601 26.2144 0.612387 26.1858C0.702638 26.0855 0.799374 25.99 0.892848 25.8922C1.00244 25.78 1.17652 25.8015 1.32479 25.78C1.5343 25.7489 1.53423 25.7513 1.81465 25.5222C1.92425 25.4315 2.11443 25.4673 2.22724 25.3861C2.2627 25.3599 2.31749 25.3169 2.30782 25.293C2.29493 25.262 2.2305 25.2381 2.18215 25.2238C2.13702 25.2095 2.08224 25.2023 2.03389 25.2095C1.44726 25.2787 0.863867 25.3527 0.277235 25.4195C0.177314 25.4315 0.0677198 25.379 0.032264 25.305C-0.00319178 25.2357 0.00644651 25.1522 0 25.0734C0.0934744 24.9755 0.199801 24.8848 0.280382 24.7798C0.341624 24.6986 0.412548 24.6628 0.535032 24.6581C0.696195 24.6509 0.85415 24.6223 1.03465 24.6008C1.36987 24.2523 1.69862 23.8871 2.05963 23.5386C2.20467 23.3977 2.16927 23.2545 2.19828 23.1041C2.22729 22.9657 2.44324 22.9872 2.58828 22.9466C2.70432 22.9132 2.74295 22.8368 2.69782 22.7842C2.67204 22.7532 2.61405 22.7174 2.56892 22.7174C2.46256 22.7174 2.35619 22.7389 2.24983 22.7508C2.14346 22.7628 2.02098 22.7556 1.93395 22.7962C1.85015 22.8344 1.79532 22.9155 1.74053 22.9848C1.67928 23.0611 1.59876 23.0874 1.47628 23.0922C1.31834 23.097 1.16041 23.1184 1.00247 23.1351C0.828411 23.042 0.647871 22.9513 0.480262 22.8535C0.448029 22.8344 0.441548 22.7795 0.444771 22.7437C0.451218 22.6506 0.402882 22.5933 0.296514 22.5479C0.206263 22.5097 0.132122 22.4548 0.0483173 22.4071C0.112782 22.3427 0.183719 22.2806 0.235291 22.2114C0.348105 22.0657 0.489944 21.9607 0.734912 21.9655C0.831609 21.8724 0.908945 21.7578 1.03465 21.6934C1.15391 21.6313 1.35699 21.6934 1.44724 21.5525C1.49236 21.4833 1.56009 21.4045 1.64712 21.3759C1.78572 21.3305 1.96622 21.3544 2.0468 21.2208C2.09515 21.1444 2.16603 21.0751 2.2595 21.056C2.36587 21.0346 2.47543 21.0298 2.55279 20.9845C2.5947 20.9606 2.63983 20.9224 2.63983 20.889C2.63983 20.8675 2.57541 20.8341 2.53029 20.8197C2.48838 20.803 2.43353 20.7911 2.38518 20.7959C2.22401 20.8102 2.06608 20.8364 1.90492 20.8508C1.85979 20.8555 1.80823 20.8388 1.75988 20.8245C1.61806 20.7863 1.62771 20.7386 1.74053 20.6527C1.85334 20.5691 1.93397 20.4617 2.02744 20.3638C2.13058 20.3471 2.2595 20.3543 2.33041 20.3089C2.44967 20.2349 2.53345 20.1275 2.63015 20.0344C2.73652 20.0201 2.8461 20.0153 2.94602 19.9891C2.98792 19.9795 3.00728 19.927 3.04273 19.896C3.1072 19.8363 3.16204 19.7504 3.24907 19.7217C3.39089 19.6787 3.56494 19.6954 3.64875 19.5642C3.6971 19.4878 3.7712 19.4066 3.86145 19.4019C4.11287 19.3923 4.21924 19.261 4.34817 19.1369C4.44487 19.0438 4.65116 19.0915 4.75753 18.9984C4.82844 18.9388 4.88004 18.8647 4.95095 18.8075C4.97996 18.7836 5.04118 18.7717 5.08953 18.7645C5.35384 18.7287 5.62136 18.7024 5.88567 18.6642C5.92757 18.6571 5.96628 18.6213 5.99851 18.5926C6.0662 18.5306 6.10806 18.4446 6.19186 18.4041C6.27566 18.3635 6.39491 18.3635 6.49805 18.3516C6.83005 18.3158 6.85586 18.3253 7.00735 18.1224C7.12984 17.9577 7.42964 18.0747 7.52956 17.8932C7.58758 17.7882 7.6939 17.7023 7.88407 17.6903C8.1516 17.6736 8.4159 17.6283 8.68343 17.5972C8.92195 17.5686 8.91874 17.5686 9.1766 17.3466C9.29263 17.2463 9.4635 17.2607 9.615 17.2416C9.77616 17.2225 9.92441 17.1939 10.0018 17.0745C10.0791 16.9575 10.2209 16.9193 10.3853 16.9026C10.5368 16.8859 10.7077 16.8979 10.8269 16.8024C11.117 16.5732 11.1138 16.5708 11.3169 16.547C11.636 16.5088 11.9551 16.4706 12.2742 16.43C12.4869 16.4037 12.7093 16.399 12.9092 16.3465C13.0542 16.3083 13.1186 16.1746 13.2121 16.0815C13.4764 16.0457 13.7407 16.0099 14.005 15.9764C14.3757 15.9287 14.7496 15.8858 15.1235 15.8404C15.2846 15.7497 15.3073 15.5492 15.578 15.5396C15.7392 15.5349 15.8971 15.5038 16.0583 15.4847C16.3258 15.4513 16.5901 15.4083 16.8576 15.3916C17.0607 15.3797 17.0961 15.2508 17.2025 15.1696C17.2379 15.141 17.2702 15.1004 17.3121 15.0933C17.7311 15.0264 18.163 15.0121 18.5724 14.9142C18.6143 14.9047 18.6529 14.8546 18.6626 14.8187C18.6691 14.7997 18.6143 14.7639 18.5788 14.7472C18.5369 14.7281 18.4821 14.709 18.437 14.7137C17.1058 14.8737 15.7746 15.036 14.4434 15.1959C14.2565 15.2198 14.2565 15.2174 13.802 15.48C13.7633 15.5014 13.7181 15.5253 13.6698 15.5325C13.4571 15.5611 13.2411 15.5778 13.0316 15.6136C12.8608 15.6423 12.719 15.6136 12.5965 15.5277C12.5095 15.4656 12.4192 15.4465 12.3096 15.4513C12.1871 15.4585 12.1066 15.4847 12.0357 15.5492C11.9422 15.6375 11.8938 15.7521 11.6972 15.7759C10.7915 15.8786 9.88568 15.9932 8.98317 16.103C8.85746 16.0696 8.79623 16.0194 8.82846 15.9598C8.8478 15.9239 8.88649 15.8762 8.92517 15.8714C9.29585 15.8213 9.66973 15.7783 10.0404 15.7306C10.092 15.7234 10.1629 15.7282 10.1919 15.7043C10.3337 15.5969 10.3853 15.4227 10.6529 15.4107C10.8076 15.4036 10.9655 15.3678 11.1138 15.3344C11.1557 15.3248 11.1944 15.2747 11.204 15.2389C11.2073 15.2198 11.1557 15.184 11.117 15.1672C10.9752 15.098 10.8108 15.1816 10.669 15.1339C10.6207 15.1171 10.5529 15.0933 10.5433 15.0646C10.5368 15.0384 10.5916 14.9954 10.6303 14.9691C10.6657 14.9453 10.7141 14.9238 10.7624 14.9166C11.1879 14.8617 11.6134 14.8044 12.0389 14.7615C12.2129 14.7448 12.3354 14.6851 12.4128 14.5753C12.4708 14.4941 12.5417 14.4512 12.6513 14.4392C13.3958 14.3509 14.1404 14.253 14.8882 14.1719C15.0751 14.1528 15.1719 14.074 15.2492 13.9714C15.3105 13.8902 15.3814 13.8616 15.5007 13.8472C16.5676 13.7231 17.628 13.5847 18.6949 13.4653C18.8915 13.4438 18.9495 13.3412 19.0495 13.2529C19.0849 13.2218 19.1074 13.1837 19.1526 13.1646C19.1977 13.1455 19.2557 13.1478 19.3105 13.1431C20.1614 13.0404 21.0124 12.9306 21.8666 12.8351C22.0664 12.8137 22.1051 12.6943 22.2082 12.6108C22.2437 12.5845 22.2759 12.5415 22.3178 12.5344C22.956 12.4532 23.5942 12.3768 24.2324 12.2981C24.6579 12.2456 25.0833 12.193 25.5088 12.1429C25.7183 12.119 25.7183 12.1166 26.002 11.8899C26.0342 11.8636 26.0794 11.8326 26.1213 11.8254C27.3461 11.6726 28.5677 11.5271 29.7925 11.3767C29.8957 11.3647 29.9698 11.3098 30.0214 11.2287C30.0729 11.1475 30.1471 11.0926 30.2471 11.0807C31.2044 10.9613 32.1616 10.8444 33.1222 10.7322C33.2962 10.7131 33.4187 10.6558 33.496 10.5484C33.5541 10.4672 33.625 10.4242 33.7346 10.4123C34.6919 10.2977 35.6492 10.176 36.6098 10.0662C36.7935 10.0447 36.8837 9.96354 36.9739 9.86806C37.0062 9.83464 37.032 9.77974 37.0707 9.77497C37.5477 9.70813 38.0215 9.6389 38.5018 9.59355C38.7016 9.57445 38.7693 9.47419 38.8499 9.37871C38.9144 9.30233 38.9885 9.27608 39.111 9.26653C39.3785 9.24504 39.6428 9.20448 39.9039 9.1639C39.9426 9.15674 39.991 9.10422 39.9942 9.0708C40.0006 9.00874 39.9265 8.96577 39.804 8.94429C38.5276 9.09944 37.248 9.25459 35.9716 9.40974C35.762 9.436 35.762 9.43601 35.4784 9.66278C35.4462 9.68904 35.401 9.72007 35.3559 9.72724C34.131 9.87762 32.9095 10.0256 31.6846 10.176C31.5815 10.1879 31.5073 10.2428 31.4558 10.324C31.4042 10.4052 31.33 10.4601 31.2301 10.472C30.06 10.6152 28.89 10.7608 27.7168 10.8969C27.5427 10.916 27.4203 10.9709 27.3429 11.0807C27.2849 11.1618 27.214 11.2048 27.1044 11.2167C25.9859 11.3504 24.8706 11.4912 23.7489 11.6201C23.6361 11.6321 23.5524 11.5628 23.5588 11.4984C23.562 11.465 23.6103 11.4101 23.649 11.4053C24.2324 11.3265 24.8126 11.2454 25.3993 11.1857C25.5959 11.1666 25.6539 11.0616 25.7538 10.9733C25.786 10.9422 25.8118 10.9016 25.8537 10.8849C25.8988 10.8658 25.9569 10.8682 26.0117 10.8635C27.3944 10.694 28.7772 10.5221 30.1632 10.3622C30.3631 10.3383 30.4017 10.2213 30.5049 10.1378C30.5403 10.1092 30.5726 10.0662 30.6145 10.0614C31.0399 10.0041 31.4654 9.954 31.8909 9.90387C32.6354 9.81317 33.38 9.72246 34.1278 9.63175C34.3437 9.60549 34.3438 9.60548 34.621 9.3811C34.6532 9.35484 34.6983 9.32145 34.7403 9.31668C36.7097 9.07559 38.6791 8.83449 40.6485 8.59579C40.7516 8.58385 40.8258 8.52895 40.8773 8.44779C40.9289 8.36902 41.003 8.31173 41.103 8.29741C43.7654 7.97277 46.4246 7.64813 49.087 7.32826C49.261 7.30678 49.3835 7.25665 49.4608 7.14446C49.5156 7.0633 49.5898 7.02034 49.6993 7.00602C52.6261 6.65036 55.5528 6.29469 58.4827 5.93664C60.4521 5.69794 62.4216 5.45446 64.391 5.22053C64.5715 5.19905 64.6681 5.12504 64.7584 5.02717C64.7874 4.99375 64.8164 4.93885 64.8551 4.93407C65.2773 4.8744 65.6996 4.8195 66.1218 4.7646C66.254 4.82905 66.3861 4.89113 66.5183 4.95558C66.6182 4.86487 66.7149 4.77177 66.8149 4.68106C67.4531 4.61184 68.0816 4.50442 68.7262 4.471C68.7681 4.46862 68.8132 4.51398 68.8584 4.53785C69.1581 4.68823 69.329 4.67629 69.5191 4.47578C69.5868 4.40417 69.6448 4.33972 69.748 4.32779C70.0671 4.28482 70.3895 4.25617 70.7054 4.20605C70.8762 4.17979 71.018 4.20365 71.1404 4.28959C71.2275 4.35165 71.3178 4.37792 71.4241 4.3636C72.0108 4.29199 72.5942 4.22276 73.1808 4.14637C73.2227 4.1416 73.2613 4.101 73.2936 4.07236C73.3613 4.0103 73.4193 3.94348 73.4838 3.87903C73.5708 3.9196 73.6675 3.95064 73.7384 4.00316C73.8287 4.06522 73.9124 4.0652 74.0349 4.04849C76.375 3.75966 78.7183 3.478 81.0584 3.18678C81.2583 3.16291 81.3453 3.26318 81.4807 3.31569C81.5258 3.33479 81.5709 3.35865 81.6193 3.36342C81.6708 3.36819 81.7256 3.35388 81.7772 3.34672C83.5339 3.13189 85.2906 2.91943 87.0472 2.7046C87.2793 2.67595 87.2793 2.67595 87.6242 2.82395C87.6661 2.84305 87.7209 2.86453 87.766 2.85737C88.5654 2.76428 89.3647 2.66403 90.1609 2.56855C90.264 2.55662 90.3511 2.5948 90.4446 2.6497C90.6283 2.75712 90.6411 2.75713 90.7765 2.59958C90.841 2.52559 90.9086 2.48021 91.015 2.45873C91.1311 2.43486 91.2246 2.44204 91.3148 2.48501C91.4438 2.54469 91.5372 2.64493 91.7339 2.61867C92.5848 2.50648 93.4389 2.41339 94.2867 2.29882C94.4801 2.27256 94.5832 2.35371 94.7122 2.41339C94.7573 2.43487 94.7992 2.46829 94.8475 2.47545C94.8959 2.48261 94.9539 2.46589 95.0054 2.45873C96.0691 2.32983 97.136 2.20334 98.1964 2.06489C98.3963 2.03864 98.4833 2.14126 98.6187 2.19377C98.6638 2.21287 98.7154 2.2463 98.7573 2.24153C99.3955 2.16753 100.037 2.08874 100.675 2.00997C100.904 1.98132 100.904 1.98371 101.252 2.12932C101.294 2.14841 101.349 2.16751 101.394 2.16274C102.139 2.07442 102.886 1.98371 103.631 1.893C103.86 1.86436 103.86 1.86437 104.52 1.98849C104.569 1.99804 104.62 2.01238 104.669 2.00761C105.52 1.90496 106.374 1.8047 107.225 1.69489C107.396 1.67341 107.537 1.6925 107.66 1.77843C107.747 1.84049 107.837 1.86677 107.944 1.85244C108.901 1.73548 109.861 1.62329 110.816 1.49917C110.999 1.4753 111.118 1.52779 111.247 1.59702C111.289 1.62089 111.331 1.65431 111.38 1.66386C111.428 1.67341 111.483 1.66385 111.534 1.65669C112.492 1.53973 113.452 1.42993 114.406 1.30342C114.6 1.27716 114.703 1.35831 114.832 1.41799C114.877 1.43947 114.925 1.48244 114.964 1.48005C115.338 1.43947 115.712 1.40368 116.082 1.34401C116.282 1.31059 116.369 1.42037 116.505 1.47289C116.55 1.48959 116.601 1.52542 116.643 1.52064C117.442 1.42755 118.242 1.32969 119.038 1.22943C119.151 1.21511 119.235 1.23658 119.325 1.29864C119.444 1.38218 119.583 1.4156 119.757 1.38935C120.128 1.33444 120.501 1.29626 120.875 1.25091C121.094 1.22465 121.094 1.22466 121.765 1.34879C121.813 1.35833 121.865 1.37264 121.913 1.36787C122.551 1.29149 123.193 1.21749 123.828 1.13395C123.999 1.11008 124.14 1.13155 124.263 1.21749C124.35 1.27955 124.437 1.30582 124.547 1.2915C125.133 1.21989 125.717 1.14827 126.303 1.07666C126.516 1.0504 126.729 1.00504 126.941 1.00504C127.096 1.00743 127.209 1.122 127.348 1.17929C127.386 1.196 127.451 1.17692 127.502 1.17215C128.247 1.08144 128.995 0.997886 129.736 0.895244C129.929 0.868987 130.033 0.950141 130.161 1.00982C130.207 1.0313 130.255 1.07427 130.294 1.07188C130.561 1.04562 130.825 1.00982 131.093 0.978785C131.412 0.940592 131.734 0.911948 132.05 0.859433C132.308 0.816467 132.405 1.02413 132.611 1.03129C132.769 1.03845 132.93 0.997881 133.088 0.978785C133.407 0.940592 133.726 0.89763 134.045 0.864212C134.158 0.852277 134.245 0.814068 134.281 0.728135C134.287 0.711426 134.232 0.675636 134.197 0.654153C133.768 0.410676 133.768 0.410664 133.336 0.463179C133.069 0.496597 132.805 0.530021 132.537 0.558666C132.492 0.56344 132.44 0.544345 132.395 0.530023C132.266 0.489443 132.279 0.441707 132.389 0.355774C132.498 0.269842 132.582 0.164822 132.676 0.0669538C132.808 0.129016 132.937 0.191057 133.069 0.25312C133.175 0.241184 133.282 0.226883 133.388 0.214948C133.92 0.152886 134.452 0.0884312 134.983 0.0311426C135.022 0.0263686 135.07 0.0741161 135.116 0.0979863C135.245 0.16721 135.361 0.226869 135.548 0.200612C136.025 0.131388 136.505 0.0812608 136.982 0.0215852C137.191 -0.00467208 137.191 -0.00466974 137.559 0.143326C137.601 0.160035 137.656 0.179132 137.701 0.174358C138.181 0.119457 138.658 0.0597881 139.138 0.00249949C139.241 -0.00943564 139.341 0.0215945 139.415 0.0908182C139.444 0.119463 139.438 0.167194 139.56 0.558666C139.941 0.87614 140.202 0.842738 140.466 0.814094C140.579 0.802159 140.679 0.790212 140.753 0.742471C140.792 0.716214 140.84 0.678016 140.84 0.646985C140.84 0.623114 140.769 0.584915 140.724 0.580141C140.405 0.5324 140.102 0.632669 139.789 0.654153C139.644 0.663701 139.519 0.580154 139.493 0.444093C139.486 0.405901 139.477 0.365324 139.467 0.327131C139.457 0.288939 139.451 0.248362 139.441 0.210169C139.316 0.198234 139.241 0.241194 139.187 0.322353C139.141 0.389189 139.077 0.465574 138.99 0.501379C138.903 0.539572 138.784 0.532424 138.677 0.544359C138.574 0.556294 138.461 0.587322 138.365 0.570613C138.268 0.551516 138.191 0.482281 138.1 0.439315C138.058 0.417831 138.007 0.386812 137.965 0.391586C137.594 0.432165 137.227 0.472729 136.859 0.525244C136.666 0.553888 136.569 0.453648 136.447 0.391586C136.35 0.343845 136.253 0.355765 136.237 0.465568C136.195 0.728141 136.344 0.837938 136.672 0.787811C136.943 0.744844 137.188 0.737705 137.401 0.900023C137.43 0.921506 137.498 0.931051 137.54 0.926277C137.804 0.897633 138.065 0.861824 138.329 0.833179C138.378 0.828405 138.429 0.837938 138.474 0.847486C139.132 0.976386 139.132 0.978786 139.354 0.950141C139.461 0.935819 139.564 0.923883 139.554 0.561055C139.757 0.17197 140.079 0.145717 140.392 0.0884289C140.595 0.0526235 140.682 0.157657 140.814 0.212559C140.859 0.231655 140.908 0.26984 140.95 0.265066C141.643 0.186295 142.332 0.102737 143.022 0.0144171C143.138 9.49793e-05 143.222 0.0144195 143.312 0.0764821C143.428 0.155254 143.557 0.205392 143.741 0.176748C144.108 0.119459 144.482 0.0836618 144.856 0.0359213C145.046 0.0120511 145.046 0.0120266 145.43 0.160022C145.472 0.176731 145.527 0.195829 145.572 0.191055C145.946 0.150475 146.316 0.100363 146.687 0.0573964C146.79 0.0454613 146.884 0.0788761 146.964 0.143326C147.045 0.207775 147.142 0.24119 147.242 0.229255C147.615 0.186289 147.986 0.138563 148.357 0.0955969C148.402 0.0908229 148.457 0.107531 148.499 0.12424C148.892 0.272236 148.892 0.272211 149.072 0.248341C149.337 0.212536 149.607 0.195845 149.868 0.148105C150.123 0.100364 150.255 0.2388 150.429 0.315185C150.906 0.260283 151.387 0.214941 151.86 0.148105C152.054 0.11946 152.157 0.198225 152.286 0.260288C152.331 0.281771 152.376 0.327129 152.418 0.324742C152.579 0.315194 152.737 0.288941 152.895 0.269845C153.053 0.250749 153.214 0.231655 153.372 0.212559C153.553 0.281783 153.672 0.444098 153.93 0.389196C154.085 0.355778 154.249 0.348617 154.407 0.329521C154.565 0.310425 154.726 0.291331 154.884 0.272234C154.99 0.260299 155.1 0.253128 155.203 0.231645C155.393 0.195839 155.487 0.312817 155.622 0.365332C155.667 0.382041 155.719 0.410667 155.761 0.405893C156.08 0.372474 156.402 0.343832 156.715 0.288931C156.956 0.245964 157.121 0.317584 157.292 0.417839C157.327 0.439323 157.388 0.451257 157.433 0.446483C157.807 0.405903 158.178 0.355762 158.549 0.312795C158.649 0.30086 158.745 0.339051 158.826 0.401114C158.91 0.465564 159.003 0.496618 159.106 0.484683C159.477 0.441717 159.851 0.393962 160.222 0.350996C160.267 0.346222 160.321 0.365321 160.363 0.384418C160.724 0.532413 160.724 0.534802 160.937 0.506158C160.989 0.498997 161.044 0.494204 161.095 0.487043C161.359 0.453625 161.633 0.441706 161.891 0.384418C162.188 0.319968 162.404 0.40113 162.613 0.537191C162.878 0.508546 163.148 0.491834 163.406 0.444093C163.6 0.408288 163.703 0.49899 163.832 0.558666C163.877 0.580149 163.925 0.623115 163.964 0.618341C164.338 0.577762 164.712 0.541969 165.079 0.482294C165.279 0.448875 165.366 0.556272 165.501 0.611173C165.546 0.63027 165.595 0.663705 165.637 0.658931C165.849 0.639835 166.062 0.611177 166.275 0.58492C166.523 0.553888 166.523 0.556273 166.852 0.701881C167.006 0.771105 167.161 0.716201 167.313 0.699492C167.474 0.680396 167.625 0.666078 167.754 0.763946C167.835 0.826009 167.932 0.864203 168.032 0.854654C168.244 0.833171 168.46 0.811699 168.67 0.775893C168.837 0.747249 168.982 0.766335 169.105 0.854654C169.192 0.916717 169.282 0.947767 169.389 0.933445C169.866 0.876156 170.346 0.816459 170.823 0.761557C170.865 0.756783 170.923 0.778274 170.961 0.799758C171.052 0.842724 171.139 0.890454 171.226 0.938195C171.435 0.916711 171.651 0.907188 171.857 0.873769C172.077 0.840351 172.277 0.828412 172.447 0.959699C172.483 0.988343 172.534 1.0289 172.576 1.02651C172.737 1.01697 172.895 0.993102 173.053 0.974006C173.211 0.95491 173.372 0.935816 173.53 0.916719C173.714 0.976395 173.83 1.14826 174.088 1.09336C174.243 1.05994 174.407 1.05278 174.565 1.03368C174.723 1.01459 174.884 0.993104 175.042 0.976395C175.094 0.971621 175.152 0.959679 175.197 0.969227C175.245 0.978775 175.287 1.0122 175.329 1.03607C175.458 1.10529 175.577 1.17453 175.761 1.13395C175.916 1.10053 176.08 1.09337 176.238 1.07188C176.454 1.04562 176.454 1.04563 176.812 1.19601C176.957 1.25807 177.121 1.17692 177.26 1.22943C177.353 1.26524 177.434 1.3249 177.524 1.36548C177.563 1.38219 177.624 1.38934 177.669 1.38457C177.882 1.36308 178.098 1.34161 178.307 1.30581C178.478 1.27716 178.62 1.3058 178.739 1.39174C178.826 1.4538 178.913 1.48007 179.023 1.46575C179.555 1.39891 180.087 1.3416 180.615 1.26761C180.796 1.24135 180.941 1.28194 181.041 1.36787C181.211 1.51587 181.453 1.34162 181.63 1.46097C181.74 1.53497 181.85 1.6209 182.049 1.5851C182.417 1.52304 182.791 1.4896 183.161 1.44663C183.294 1.51108 183.426 1.57555 183.561 1.63999C183.774 1.61374 183.987 1.58746 184.199 1.56359C184.357 1.5445 184.518 1.52302 184.676 1.50631C184.728 1.50153 184.783 1.49198 184.831 1.50392C184.879 1.51585 184.918 1.54689 184.963 1.57076C185.186 1.68773 185.186 1.69012 185.553 1.64238C185.711 1.6209 185.863 1.60658 185.995 1.70206C186.117 1.79038 186.262 1.80708 186.43 1.78082C186.746 1.73308 187.065 1.69728 187.387 1.66386C187.487 1.65192 187.581 1.6925 187.664 1.75457C187.79 1.85244 187.945 1.84289 188.103 1.81663C188.312 1.78321 188.518 1.7498 188.696 1.88348C188.731 1.91212 188.786 1.95268 188.825 1.95029C189.089 1.93119 189.357 1.91688 189.614 1.87153C189.872 1.82618 189.998 1.97417 190.175 2.04578C190.44 2.01475 190.707 1.98371 190.971 1.95268C191.023 1.94552 191.084 1.92405 191.129 1.93598C191.32 1.98611 191.429 2.16513 191.69 2.11023C191.842 2.0792 192.006 2.06966 192.164 2.0625C192.206 2.06012 192.261 2.10068 192.29 2.13171C192.306 2.14842 192.29 2.19377 192.27 2.21764C192.212 2.28447 192.141 2.34655 192.09 2.41578C192.083 2.42533 192.145 2.46828 192.18 2.48737C192.267 2.53034 192.367 2.52319 192.483 2.5041C192.583 2.48739 192.686 2.5208 192.757 2.59242C192.786 2.62106 192.776 2.6688 192.715 2.82634C192.715 2.9433 192.783 2.89078 192.805 2.81439C192.841 2.70459 192.773 2.66879 192.644 2.72846C192.554 2.77143 192.509 2.8335 192.531 2.88363C192.544 2.90988 192.606 2.9433 192.715 2.82634C192.999 2.68312 193.212 2.65687 193.424 2.63062C193.479 2.62346 193.544 2.59957 193.582 2.61389C193.721 2.67118 193.85 2.74041 193.985 2.80486C194.14 2.79054 194.285 2.75472 194.436 2.84781C194.649 2.9791 194.659 2.96717 194.865 2.94091C194.971 2.92659 195.078 2.91468 195.184 2.90274C195.291 2.89081 195.374 2.9266 195.468 2.9815C195.658 3.09369 195.674 3.09368 195.8 2.94091C195.874 2.84782 195.926 2.81679 196.019 2.85976C196.328 3.00537 196.332 3.01491 196.596 2.97194C196.815 2.93614 197.021 2.92659 197.183 3.06265C197.292 3.15813 197.328 3.13665 197.415 3.0364C197.647 2.77144 197.753 2.7762 198.188 2.96717C198.391 3.05787 198.601 2.96002 198.807 2.94808C198.981 2.93853 199.104 2.99581 199.117 3.14619C199.126 3.23929 199.155 3.30613 199.271 3.33717C199.316 3.3491 199.371 3.3658 199.416 3.36103C199.684 3.33239 199.948 3.29896 200.216 3.26554C200.351 3.24883 200.425 3.13667 200.399 2.98867C200.37 2.83113 200.422 2.77382 200.615 2.72846C200.731 2.70221 200.825 2.707 200.918 2.74997C201.022 2.79771 200.993 2.84067 200.902 2.9266C200.686 3.13666 200.712 3.26554 200.989 3.41115C201.086 3.46128 201.163 3.50665 201.186 3.58065C201.199 3.61884 201.186 3.66896 201.215 3.69761C201.373 3.85754 201.592 3.96019 201.837 4.03658C202.072 3.97213 202.233 4.07952 202.414 4.16546C202.556 4.23229 202.723 4.17502 202.875 4.15115C203.046 4.12489 203.188 4.14398 203.31 4.2323C203.397 4.29436 203.487 4.323 203.594 4.31106C203.806 4.2848 204.022 4.2681 204.232 4.22991C204.412 4.19649 204.548 4.24424 204.661 4.3254C204.802 4.42804 204.96 4.3588 205.109 4.37313C205.308 4.38984 205.408 4.60227 205.669 4.54499C205.824 4.51157 205.985 4.49964 206.147 4.49009C206.188 4.4877 206.24 4.52829 206.275 4.55693C206.446 4.68822 206.646 4.68105 206.865 4.64286C207.017 4.6166 207.165 4.59274 207.313 4.68345C207.558 4.83622 207.829 4.9699 208.087 5.11074C208.122 5.22054 208.097 5.34942 208.28 5.41387C208.377 5.44728 208.467 5.49743 208.541 5.55233C208.632 5.61678 208.715 5.6335 208.831 5.61679C209.041 5.58337 209.26 5.57618 209.466 5.53322C209.657 5.49502 209.776 5.57382 209.892 5.64782C209.985 5.70749 210.072 5.73612 210.185 5.69316C210.301 5.65258 210.385 5.67883 210.479 5.74328C210.611 5.8316 210.62 5.82206 211.059 5.84832C211.104 5.85071 211.159 5.88649 211.184 5.91752C211.197 5.93423 211.168 5.982 211.146 6.00587C211.117 6.03452 211.072 6.06792 211.03 6.07508C210.553 6.13714 210.072 6.19204 209.595 6.2541C209.547 6.26126 209.495 6.27799 209.46 6.30186C209.421 6.32812 209.373 6.3639 209.373 6.39732C209.373 6.42119 209.437 6.44984 209.483 6.46655C209.624 6.52145 209.792 6.43791 209.931 6.49997C210.024 6.54055 210.101 6.59783 210.195 6.63602C210.234 6.65273 210.295 6.65035 210.343 6.64558C210.504 6.62887 210.662 6.605 210.823 6.59068C210.869 6.58829 210.92 6.61218 210.962 6.63127C211.271 6.77449 211.271 6.77449 211.539 6.74345C211.645 6.73152 211.758 6.69571 211.858 6.71003C211.955 6.72436 212.039 6.78881 212.126 6.82938C212.306 6.91532 212.477 6.99886 212.49 7.18505C212.496 7.25666 212.603 7.31871 212.709 7.32349C212.812 7.32826 212.922 7.30203 213.028 7.2877C213.28 7.25906 213.28 7.25906 213.605 7.40467C213.695 7.44525 213.792 7.45001 213.908 7.42614C213.953 7.41659 214.008 7.42615 214.056 7.43809C214.214 7.47389 214.214 7.51923 214.111 7.60517C213.966 7.73168 213.979 7.74362 214.385 7.85104C214.54 7.89162 214.659 7.96801 214.788 8.03484C214.998 8.14226 214.994 8.14224 214.856 8.28307C214.824 8.31411 214.794 8.34753 214.762 8.38095C214.669 8.47404 214.595 8.57429 214.401 8.58384C214.188 8.59339 213.976 8.6316 213.763 8.65785C213.557 8.68411 213.502 8.74138 213.521 8.9037C213.544 9.09943 213.586 9.12092 213.956 9.11853C214.063 9.11853 214.156 9.13762 214.237 9.20207C214.198 9.27846 214.127 9.33813 214.024 9.35246C213.76 9.38826 213.492 9.4193 213.228 9.45033C213.015 9.47659 212.803 9.50284 212.59 9.52909C212.458 9.5458 212.374 9.66994 212.409 9.80839C212.429 9.88716 212.445 9.96593 212.461 10.0447C212.496 10.2022 212.564 10.2428 212.78 10.2357C212.835 10.2333 212.886 10.2142 212.938 10.2189C213.147 10.2357 213.247 10.4338 213.499 10.3932C213.708 10.3598 213.927 10.3526 214.134 10.3097C214.324 10.2715 214.43 10.3574 214.562 10.4219C214.608 10.4434 214.656 10.4887 214.695 10.4863C214.962 10.46 215.23 10.4338 215.491 10.3884C215.613 10.3694 215.687 10.3837 215.784 10.441C216.016 10.5794 216.023 10.5722 216.367 10.5293C216.619 10.4959 216.622 10.5006 216.944 10.6462C217.035 10.6868 217.131 10.6868 217.247 10.6677C217.399 10.6438 217.557 10.6057 217.715 10.6415C217.763 10.651 217.824 10.6797 217.84 10.7107C217.85 10.7322 217.805 10.7847 217.766 10.8014C217.483 10.9255 217.151 10.904 216.841 10.9542C216.745 10.9685 216.648 10.9231 216.567 10.8587C216.483 10.7942 216.393 10.768 216.284 10.7799C216.071 10.8062 215.855 10.8229 215.645 10.8611C215.465 10.8945 215.339 10.8396 215.213 10.7656C215.172 10.7417 215.123 10.6964 215.081 10.6987C214.604 10.7465 214.124 10.7942 213.65 10.8611C213.46 10.8897 213.35 10.8133 213.222 10.7489C213.176 10.7274 213.131 10.682 213.089 10.6844C212.928 10.694 212.77 10.7202 212.609 10.7393C212.023 10.8109 211.439 10.8826 210.852 10.9494C210.814 10.9542 210.765 10.904 210.72 10.8825C210.633 10.8396 210.543 10.799 210.453 10.7584C210.292 10.7775 210.134 10.8014 209.972 10.8157C209.856 10.8253 209.753 10.8587 209.737 10.9494C209.728 11.0091 209.834 11.064 209.947 11.0592C210.056 11.0544 210.166 11.0258 210.256 11.0568C210.704 11.2096 210.704 11.212 210.985 11.1809C211.23 11.1523 211.204 11.1284 211.42 11.2597C211.513 11.317 211.597 11.3504 211.703 11.3361C211.968 11.3027 212.235 11.2692 212.503 11.2406C212.545 11.2358 212.599 11.2597 212.641 11.2788C212.957 11.422 212.957 11.4268 213.218 11.391C213.56 11.348 213.573 11.3361 213.802 11.4817C213.96 11.5819 214.105 11.5127 214.256 11.5079C214.43 11.601 214.62 11.6846 214.778 11.7896C214.965 11.9138 215.162 11.8922 215.375 11.8564C215.533 11.8302 215.687 11.8206 215.816 11.9185C215.939 12.0092 216.087 12.0188 216.255 11.9949C216.406 11.9734 216.561 11.9281 216.719 11.9806C216.761 11.9949 216.825 12.0307 216.822 12.0522C216.819 12.0856 216.777 12.1334 216.735 12.1477C216.438 12.2456 216.113 12.2432 215.8 12.2885C215.758 12.2957 215.703 12.2694 215.662 12.2503C215.571 12.2073 215.484 12.1572 215.397 12.1119C215.239 12.1262 215.078 12.131 214.923 12.1596C214.804 12.1811 214.714 12.1787 214.627 12.1214C214.546 12.0689 214.459 12.0045 214.363 11.9877C214.266 11.971 214.153 12.0068 214.047 12.0212C213.94 12.0355 213.818 12.0283 213.734 12.0665C213.65 12.1047 213.599 12.1883 213.544 12.2551C213.483 12.3291 213.399 12.353 213.276 12.3601C213.163 12.3673 213.073 12.3577 212.989 12.2909C212.954 12.2623 212.906 12.2408 212.857 12.2217C212.812 12.205 212.761 12.1787 212.719 12.1835C212.238 12.2384 211.761 12.2981 211.281 12.3554C211.043 12.384 211.046 12.384 210.549 12.2431C210.504 12.2312 210.45 12.2145 210.404 12.2193C210.137 12.2479 209.873 12.2813 209.605 12.3148C209.334 12.3482 209.338 12.3434 208.877 12.193C208.793 12.1644 208.67 12.2026 208.57 12.1978C208.361 12.1859 208.258 11.9854 208.013 12.0236C207.803 12.057 207.584 12.0641 207.375 12.1071C207.184 12.1453 207.075 12.0617 206.946 11.9973C206.901 11.9758 206.852 11.9281 206.814 11.9328C206.333 11.9854 205.856 12.045 205.218 12.0522C205.06 12.0522 205.131 12.1023 205.234 12.119C205.383 12.1453 205.431 12.0952 205.35 11.9997C205.292 11.9329 205.209 11.8994 205.141 11.9161C205.105 11.9257 205.06 11.971 205.218 12.0522C205.386 12.1429 205.376 12.193 205.405 12.2217C205.476 12.2909 205.576 12.3195 205.679 12.31C205.84 12.2933 205.998 12.2694 206.159 12.2551C206.205 12.2503 206.259 12.267 206.301 12.2861C206.656 12.4341 206.659 12.4437 207.036 12.3864C207.155 12.3697 207.242 12.3697 207.336 12.415C207.465 12.4771 207.558 12.5821 207.755 12.5487C208.016 12.5033 208.284 12.4771 208.551 12.4508C208.593 12.4461 208.638 12.489 208.686 12.5081C208.819 12.5654 208.915 12.6728 209.112 12.6275C209.263 12.5917 209.428 12.5821 209.589 12.5749C209.631 12.5726 209.695 12.6108 209.715 12.6418C209.753 12.6967 209.705 12.7612 209.595 12.8065C209.55 12.8256 209.489 12.8208 209.437 12.828C209.225 12.8542 209.012 12.8829 208.799 12.9044C208.686 12.9163 208.58 12.9521 208.567 13.0404C208.558 13.1001 208.674 13.1526 208.783 13.1478C208.944 13.1407 209.105 13.1216 209.26 13.0905C209.534 13.038 209.773 13.0523 209.995 13.2027C210.153 13.3078 210.143 13.2696 210.311 13.5799C210.353 13.6587 210.479 13.6658 210.588 13.661C210.852 13.6491 210.975 13.6849 210.952 13.7589C210.923 13.8496 210.83 13.8783 210.711 13.8902C210.498 13.9093 210.285 13.9403 210.072 13.9666C210.021 13.9738 209.963 13.9881 209.914 13.9833C209.866 13.9785 209.821 13.9499 209.779 13.9284C209.689 13.883 209.611 13.8138 209.515 13.7971C209.418 13.7804 209.305 13.8162 209.199 13.8305C209.093 13.8425 208.98 13.8783 208.883 13.8616C208.786 13.8448 208.706 13.7732 208.619 13.7303C208.577 13.7088 208.525 13.6754 208.483 13.6777C208.271 13.6968 208.058 13.7279 207.845 13.7518C207.584 13.7828 207.584 13.7828 207.268 13.6348C207.178 13.5918 207.084 13.5942 206.965 13.6133C206.707 13.6515 206.704 13.6443 206.234 13.5059C206.188 13.4916 206.134 13.4749 206.088 13.482C205.608 13.5369 205.131 13.5966 204.654 13.6539C204.245 13.704 204.245 13.704 204.019 13.9427C203.852 14.1194 203.848 14.1194 204.013 14.2005C204.145 14.2674 204.264 14.3652 204.409 14.401C204.545 14.4344 204.712 14.327 204.86 14.4368C204.935 14.4917 205.031 14.5514 205.125 14.561C205.273 14.5729 205.431 14.5037 205.573 14.6087C205.644 14.6612 205.75 14.7161 205.84 14.7185C205.998 14.7233 206.159 14.6851 206.317 14.6684C206.366 14.6636 206.42 14.6636 206.466 14.6755C206.514 14.6899 206.556 14.7185 206.598 14.7424C206.727 14.8235 206.865 14.8617 207.033 14.8211C207.307 14.7543 207.552 14.7877 207.765 14.9405C207.794 14.962 207.865 14.9644 207.91 14.9548C208.026 14.931 208.126 14.9286 208.213 14.9739C208.248 14.993 208.3 15.0264 208.293 15.0479C208.284 15.0837 208.245 15.1314 208.203 15.1434C207.9 15.2245 207.574 15.2341 207.262 15.2771C207.22 15.2818 207.168 15.2508 207.126 15.2293C207.036 15.1863 206.959 15.1148 206.862 15.098C206.765 15.0813 206.653 15.1124 206.546 15.1243C206.44 15.1362 206.327 15.172 206.23 15.1577C206.134 15.141 206.043 15.0813 205.966 15.0288C205.876 14.9691 205.789 14.962 205.669 14.9859C205.515 15.0169 205.354 15.0217 205.196 15.0384C205.109 14.993 205.022 14.9429 204.931 14.8999C204.889 14.8784 204.838 14.8522 204.793 14.8546C204.58 14.8737 204.367 14.9023 204.154 14.9285C203.942 14.9548 203.942 14.9548 203.581 14.8068C203.539 14.7901 203.484 14.771 203.439 14.7758C203.171 14.8044 202.907 14.8402 202.64 14.8689C202.536 14.8808 202.443 14.8474 202.359 14.7829C202.279 14.7185 202.182 14.6827 202.082 14.6946C201.656 14.7447 201.231 14.7925 200.806 14.8522C200.635 14.876 200.49 14.8546 200.374 14.7686C200.238 14.6708 200.087 14.6946 199.929 14.7137C199.571 14.7615 199.568 14.7591 199.339 14.6373C199.294 14.6135 199.249 14.5681 199.207 14.5705C198.836 14.6063 198.462 14.6397 198.095 14.697C197.901 14.728 197.798 14.6445 197.669 14.5824C197.624 14.561 197.576 14.5156 197.537 14.5204C197.27 14.5466 197.002 14.5705 196.741 14.6182C196.48 14.666 196.38 14.444 196.183 14.4464C195.916 14.4488 195.652 14.5037 195.387 14.5371C195.175 14.5634 194.962 14.5896 194.749 14.6159C194.536 14.6421 194.324 14.6636 194.111 14.6946C193.998 14.7113 193.914 14.6898 193.821 14.6302C193.702 14.5514 193.56 14.4894 193.431 14.4177C193.234 14.3151 193.234 14.3151 192.996 14.3437C192.944 14.3509 192.889 14.3557 192.838 14.3628C192.448 14.4153 192.448 14.4106 191.951 14.2602C191.929 14.253 191.871 14.2793 191.848 14.2984C191.78 14.3605 191.719 14.4273 191.658 14.4917C191.571 14.4535 191.465 14.4321 191.407 14.3772C191.242 14.222 190.984 14.4344 190.817 14.2817C190.755 14.2244 190.649 14.1743 190.552 14.1599C190.452 14.1456 190.34 14.179 190.236 14.1933C189.969 14.2292 189.969 14.2268 189.74 14.4392C189.624 14.5442 189.456 14.5251 189.305 14.549C189.147 14.5753 188.996 14.5896 188.863 14.4917C188.744 14.4034 188.599 14.3819 188.428 14.4106C188.219 14.4464 188.003 14.4679 187.79 14.4893C187.745 14.4941 187.69 14.4822 187.645 14.4679C187.152 14.327 187.152 14.3246 186.913 14.3557C186.807 14.37 186.697 14.3748 186.594 14.3962C186.42 14.4344 186.288 14.3843 186.162 14.3079C186.12 14.2841 186.072 14.2387 186.03 14.2411C185.817 14.253 185.608 14.2745 185.398 14.296C185.237 14.3127 185.076 14.3223 184.921 14.3557C184.663 14.4106 184.538 14.2554 184.361 14.1838C184.096 14.2148 183.829 14.2363 183.564 14.2793C183.442 14.2984 183.361 14.2912 183.268 14.2339C183.149 14.1623 183.039 14.0812 182.846 14.117C182.588 14.1647 182.317 14.1814 182.053 14.2101C181.875 14.1361 181.746 13.9857 181.492 14.0406C181.337 14.074 181.173 14.0812 181.015 14.1003C180.802 14.1265 180.589 14.1504 180.377 14.179C180.148 14.2077 180.151 14.2005 179.8 14.0597C179.597 13.9761 179.387 14.0692 179.181 14.0836C179.02 14.0955 178.939 14.2053 178.978 14.3461C179.016 14.487 178.929 14.5968 178.781 14.6159C178.41 14.6612 178.036 14.7089 177.666 14.7495C177.621 14.7543 177.566 14.7376 177.524 14.7209C177.128 14.5705 177.128 14.5729 176.95 14.5944C176.686 14.6302 176.415 14.6493 176.154 14.6946C175.974 14.7257 175.841 14.6755 175.725 14.5944C175.635 14.5323 175.551 14.518 175.435 14.5323C174.159 14.6922 172.882 14.8402 171.609 15.0049C171.419 15.0288 171.31 14.9596 171.181 14.8952C171.136 14.8737 171.094 14.8283 171.048 14.8283C170.942 14.8283 170.836 14.8498 170.729 14.8641C170.252 14.9214 169.775 14.9906 169.295 15.0336C169.092 15.0527 169.037 15.1625 168.95 15.2532C168.882 15.3224 168.805 15.3511 168.686 15.3606C168.57 15.3702 168.486 15.3582 168.396 15.2962C168.28 15.215 168.148 15.1649 167.967 15.1983C167.758 15.2365 167.545 15.2532 167.329 15.2795C167.219 15.2914 167.135 15.3344 167.1 15.4203C167.094 15.4346 167.161 15.4704 167.2 15.4919C167.329 15.5635 167.451 15.6471 167.596 15.6972C167.745 15.7473 167.906 15.69 168.06 15.6757C168.115 15.6709 168.167 15.6566 168.218 15.659C168.267 15.6614 168.325 15.6733 168.36 15.6948C168.528 15.8022 168.705 15.8762 168.937 15.8118C169.137 15.8428 169.24 16.0409 169.495 15.9884C169.65 15.9574 169.811 15.943 169.972 15.9311C170.014 15.9287 170.059 15.9717 170.104 15.9932C170.233 16.0529 170.336 16.1483 170.53 16.1077C170.736 16.0648 170.955 16.0576 171.165 16.0242C171.281 16.0051 171.364 16.0218 171.455 16.0839C171.571 16.1627 171.703 16.2223 171.883 16.1841C172.038 16.1507 172.202 16.1435 172.36 16.1221C172.567 16.0958 172.567 16.0982 172.934 16.2462C172.976 16.2629 173.031 16.282 173.076 16.2772C173.343 16.2486 173.608 16.2128 173.875 16.1841C173.978 16.1722 174.078 16.2032 174.149 16.2724C174.178 16.3011 174.169 16.3489 174.178 16.3894C173.646 16.4539 173.115 16.5088 172.586 16.5875C172.386 16.6186 172.296 16.5207 172.164 16.4658C172.119 16.4467 172.07 16.4061 172.028 16.4109C171.654 16.4515 171.284 16.4944 170.913 16.547C170.797 16.5637 170.71 16.5541 170.623 16.4849C170.401 16.3011 170.13 16.4013 169.878 16.4276C169.685 16.4467 169.624 16.5207 169.646 16.6782C169.675 16.8644 169.791 16.9217 170.088 16.8883C170.194 16.8764 170.301 16.8597 170.407 16.8501C170.51 16.8406 170.604 16.8716 170.687 16.936C170.768 17.0005 170.865 17.0339 170.965 17.0244C171.177 17.0029 171.393 16.9814 171.6 16.9456C171.77 16.917 171.912 16.9408 172.032 17.0291C172.164 17.127 172.318 17.1055 172.473 17.084C172.834 17.0363 172.837 17.0387 173.063 17.158C173.108 17.1819 173.153 17.2273 173.195 17.2249C173.566 17.1891 173.94 17.158 174.304 17.1008C174.494 17.0721 174.604 17.1485 174.729 17.2106C174.775 17.232 174.82 17.2798 174.862 17.275C175.129 17.2487 175.397 17.2225 175.658 17.1771C175.78 17.1556 175.854 17.17 175.954 17.2272C176.193 17.3681 176.199 17.3633 176.538 17.318C176.641 17.3036 176.754 17.2774 176.85 17.2965C176.947 17.3156 177.024 17.3848 177.115 17.4278C177.157 17.4469 177.208 17.4731 177.253 17.4683C177.466 17.4492 177.679 17.4206 177.891 17.3944C178.091 17.3681 178.091 17.3705 178.465 17.5185C178.617 17.5805 178.775 17.528 178.926 17.5089C179.091 17.4874 179.239 17.4875 179.364 17.5806C179.49 17.6736 179.642 17.6689 179.803 17.6498C179.954 17.6307 180.109 17.5782 180.264 17.6426C180.618 17.7906 180.618 17.793 180.838 17.7643C181.157 17.7237 181.472 17.6856 181.795 17.6498C181.837 17.645 181.891 17.6736 181.933 17.6927C182.024 17.7357 182.101 17.8073 182.198 17.824C182.294 17.8431 182.407 17.8145 182.51 17.8001C182.842 17.7548 182.865 17.7381 183.087 17.8956C183.274 18.0245 183.506 17.8383 183.68 17.9863C183.78 18.0699 183.916 18.1367 184.103 18.0961C184.257 18.0627 184.419 18.0532 184.58 18.0341C184.834 18.003 184.834 18.0054 185.157 18.1487C185.199 18.1678 185.253 18.1916 185.295 18.1868C185.508 18.1677 185.724 18.151 185.93 18.1081C186.172 18.0579 186.327 18.1487 186.507 18.237C186.649 18.3062 186.817 18.2489 186.968 18.225C187.133 18.2012 187.281 18.2083 187.403 18.3014C187.532 18.3969 187.684 18.385 187.845 18.3659C187.996 18.3492 188.151 18.2942 188.306 18.3611C188.638 18.5091 188.638 18.5091 188.88 18.4804C189.092 18.4542 189.305 18.4256 189.518 18.4065C189.56 18.4017 189.611 18.4327 189.653 18.4542C189.743 18.4971 189.821 18.5688 189.917 18.5855C190.014 18.6022 190.127 18.5712 190.233 18.5592C190.34 18.5473 190.452 18.5115 190.549 18.5258C190.646 18.5401 190.736 18.5998 190.813 18.6523C190.904 18.7144 190.988 18.7215 191.11 18.6977C191.265 18.6666 191.426 18.6595 191.584 18.6428C191.671 18.6881 191.761 18.7335 191.845 18.7836C191.932 18.8361 192.025 18.8313 192.145 18.8146C192.541 18.7573 192.544 18.7645 192.876 18.9125C193.028 18.9793 193.186 18.9244 193.337 18.9077C193.498 18.8886 193.65 18.8791 193.776 18.9746C193.898 19.0653 194.05 19.0772 194.211 19.0485C194.314 19.0295 194.424 19.0175 194.53 19.0104C194.578 19.008 194.636 19.0175 194.672 19.0366C194.843 19.1369 195.01 19.2276 195.245 19.1632C195.452 19.1822 195.555 19.378 195.803 19.3398C196.013 19.3064 196.232 19.2992 196.438 19.2562C196.628 19.218 196.764 19.2849 196.86 19.3684C197.034 19.5164 197.279 19.3159 197.453 19.4615C197.553 19.5451 197.682 19.6119 197.876 19.5761C198.088 19.5379 198.156 19.588 198.217 19.7384C198.253 19.8243 198.246 19.8936 198.182 19.9604C198.117 20.0296 198.046 20.0177 197.943 19.9389C197.824 19.8506 197.682 19.8339 197.511 19.853C197.344 19.8721 197.241 19.748 197.102 19.7002C196.963 19.6501 196.799 19.7336 196.654 19.6692C196.312 19.5188 196.312 19.5188 196.08 19.5475C195.922 19.5666 195.758 19.5761 195.603 19.6095C195.42 19.6501 195.3 19.5761 195.175 19.5093C195.129 19.4854 195.084 19.44 195.046 19.4424C194.675 19.4782 194.301 19.5116 193.934 19.5713C193.74 19.6024 193.637 19.5164 193.508 19.4568C193.463 19.4353 193.415 19.3923 193.376 19.3971C193.057 19.4305 192.741 19.4735 192.422 19.514C192.361 19.5785 192.293 19.6405 192.235 19.7098C192.174 19.7814 192.09 19.8124 191.967 19.81C191.764 19.81 191.564 19.9103 191.361 19.7838C191.152 19.6549 191.136 19.662 190.933 19.6931C190.675 19.7336 190.401 19.7241 190.159 19.8172C190.117 19.8339 190.072 19.8792 190.072 19.9127C190.069 19.9341 190.137 19.9652 190.178 19.9843C190.32 20.0416 190.485 19.958 190.626 20.0177C190.72 20.0559 190.797 20.1132 190.891 20.1537C190.93 20.1705 190.988 20.1681 191.039 20.1657C191.094 20.1633 191.145 20.1466 191.197 20.149C191.245 20.1514 191.297 20.1657 191.336 20.1872C191.513 20.2779 191.7 20.3614 191.858 20.4688C192.013 20.5739 192.158 20.5023 192.312 20.4975C192.931 20.6646 192.931 20.667 193.347 20.6145C193.45 20.6025 193.556 20.5882 193.663 20.5906C193.708 20.5906 193.75 20.6335 193.795 20.6574C193.924 20.729 194.046 20.7935 194.227 20.7553C194.382 20.7219 194.546 20.7147 194.704 20.6932C194.917 20.667 194.917 20.667 195.278 20.8173C195.368 20.8555 195.465 20.8508 195.581 20.8317C195.681 20.815 195.784 20.8508 195.855 20.92C195.884 20.9486 195.874 20.9964 195.884 21.037C195.565 21.0752 195.242 21.1014 194.933 21.1587C194.733 21.1945 194.643 21.0919 194.511 21.037C194.465 21.0179 194.417 20.9773 194.375 20.9821C194.059 21.0179 193.743 21.0584 193.428 21.1062C193.389 21.1109 193.341 21.1658 193.337 21.1993C193.331 21.2613 193.411 21.321 193.527 21.3186C193.682 21.3162 193.834 21.2756 193.972 21.3735C194.088 21.4594 194.233 21.4977 194.404 21.4595C194.507 21.438 194.617 21.438 194.72 21.4189C194.994 21.3616 195.242 21.3735 195.448 21.5358C195.606 21.5788 195.761 21.5382 195.913 21.5168C196.025 21.5 196.135 21.4833 196.216 21.5287C196.386 21.6242 196.554 21.7196 196.789 21.6552C197.044 21.722 197.237 21.8629 197.45 21.9774C197.55 22.0323 197.627 22.0634 197.743 22.0276C197.792 22.0133 197.85 22.0132 197.901 22.0061C198.008 21.9941 198.121 21.9583 198.217 21.9727C198.314 21.9894 198.395 22.0586 198.482 22.1016C198.524 22.123 198.572 22.1588 198.614 22.1565C198.775 22.1445 198.933 22.1207 199.091 22.1016C199.249 22.0849 199.407 22.0682 199.565 22.0514C199.697 22.1135 199.832 22.1756 199.964 22.2376C200.177 22.2114 200.39 22.1851 200.599 22.1612C200.835 22.1326 200.835 22.135 201.173 22.283C201.324 22.3498 201.486 22.3068 201.631 22.2758C201.872 22.2257 202.034 22.3164 202.204 22.4119C202.24 22.431 202.304 22.4429 202.346 22.4334C202.514 22.3999 202.659 22.4262 202.781 22.5145C202.868 22.5766 202.955 22.6052 203.062 22.5933C203.433 22.548 203.803 22.5002 204.174 22.4596C204.219 22.4548 204.271 22.4763 204.312 22.4954C204.641 22.641 204.644 22.6482 204.886 22.61C205.102 22.5766 205.302 22.5623 205.473 22.6935C205.508 22.7222 205.563 22.7628 205.602 22.7604C205.866 22.7365 206.134 22.7103 206.395 22.6697C206.514 22.6506 206.598 22.6578 206.691 22.7127C206.81 22.7819 206.917 22.8654 207.113 22.8344C207.658 22.7461 207.661 22.7604 208.306 22.9251C208.351 22.937 208.412 22.9179 208.464 22.9084C208.574 22.8845 208.654 22.9179 208.751 22.9728C208.967 23.097 208.973 23.0898 209.18 23.0635C209.338 23.0421 209.502 23.0373 209.657 23.0015C209.895 22.949 210.053 23.0421 210.23 23.1304C210.372 23.1996 210.537 23.1423 210.688 23.1208C210.852 23.097 211.001 23.1041 211.123 23.1948C211.207 23.2569 211.297 23.2903 211.404 23.2784C211.774 23.2354 212.145 23.1877 212.516 23.1447C212.561 23.1399 212.616 23.159 212.657 23.1757C213.025 23.3237 213.025 23.3309 213.389 23.276C213.505 23.2593 213.602 23.2545 213.689 23.3046C213.773 23.3524 213.863 23.3977 213.95 23.4431C214.108 23.4264 214.269 23.4216 214.424 23.393C214.543 23.3715 214.627 23.381 214.72 23.4312C214.843 23.4956 214.946 23.6078 215.139 23.5529C215.239 23.5266 215.355 23.5338 215.455 23.5099C215.574 23.4789 215.655 23.498 215.749 23.56C215.865 23.634 215.984 23.7104 216.171 23.6722C216.377 23.6292 216.596 23.6221 216.806 23.5887C216.922 23.5696 217.002 23.5887 217.096 23.6507C217.212 23.7295 217.344 23.7796 217.525 23.7486C217.892 23.6889 217.895 23.7009 218.253 23.8512C218.343 23.8894 218.44 23.8847 218.556 23.8656C218.656 23.8489 218.759 23.8847 218.83 23.9539C218.898 24.0303 218.891 24.078 218.898 24.1186ZM190.175 2.59003C190.069 2.60196 189.962 2.61628 189.808 2.40861C189.798 2.3728 189.805 2.32985 189.782 2.29882C189.73 2.23437 189.65 2.18902 189.553 2.18185C189.379 2.17231 189.17 2.25345 189.173 2.31551C189.176 2.36803 189.231 2.41337 189.337 2.45634C189.382 2.47305 189.418 2.5017 189.46 2.52079C189.582 2.57569 189.679 2.68313 189.856 2.62823C189.824 2.48023 189.84 2.55423 189.856 2.62823C189.84 2.71893 189.888 2.78339 190.004 2.80964C190.037 2.8168 190.085 2.81202 190.111 2.7977C190.211 2.74518 190.227 2.67359 190.153 2.48501C190.14 2.51604 190.149 2.57093 190.178 2.58525C190.208 2.59957 190.278 2.58765 190.314 2.57094C190.404 2.52559 190.449 2.46591 190.427 2.41578C190.414 2.38952 190.353 2.3561 190.314 2.3561C190.246 2.3561 190.185 2.40861 190.175 2.59003ZM216.238 30.2723C216.003 30.3177 215.732 30.301 215.497 30.3941C215.455 30.4108 215.413 30.4538 215.41 30.4872C215.407 30.5087 215.471 30.5397 215.51 30.5564C215.597 30.5946 215.694 30.5827 215.807 30.5707C215.977 30.554 216.077 30.6638 216.21 30.7187C216.251 30.7354 216.306 30.7474 216.351 30.7426C216.612 30.7139 216.87 30.6829 217.131 30.6495C217.176 30.6424 217.225 30.6256 217.264 30.6041C217.392 30.5349 217.38 30.4896 217.254 30.4371C217.115 30.3798 217.006 30.2843 216.864 30.2389C216.661 30.1745 216.454 30.2604 216.238 30.2723ZM197.934 32.0149C197.776 32.034 197.621 32.0531 197.463 32.0722C197.411 32.0793 197.357 32.0817 197.308 32.0913C197.208 32.108 197.134 32.1581 197.086 32.2369C197.16 32.2989 197.25 32.3347 197.35 32.3276C197.508 32.3132 197.663 32.2822 197.821 32.2751C197.992 32.2655 198.092 32.3729 198.224 32.4278C198.266 32.4445 198.317 32.4469 198.366 32.4493C198.604 32.4589 198.749 32.3347 198.704 32.1605C198.672 32.0244 198.549 31.9433 198.401 31.96C198.246 31.9767 198.088 31.9958 197.934 32.0149ZM217.341 26.7443C217.38 26.7037 217.421 26.6751 217.441 26.6393C217.499 26.5176 217.476 26.4268 217.37 26.3314C217.241 26.2144 217.083 26.2932 216.938 26.3051C216.903 26.3075 216.864 26.3576 216.844 26.3887C216.832 26.4101 216.832 26.4555 216.851 26.4674C217.009 26.5629 217.176 26.6512 217.341 26.7443ZM189.379 19.6931C189.224 19.7122 189.066 19.7265 188.912 19.7527C188.873 19.7599 188.838 19.8052 188.815 19.8363C188.773 19.8936 188.818 19.9723 188.95 19.9795C189.102 19.989 189.26 19.9485 189.418 19.9294C189.618 19.9055 189.737 19.8172 189.663 19.7408C189.592 19.6668 189.495 19.6525 189.379 19.6931ZM19.7102 14.592C19.8133 14.5801 19.9197 14.5705 20.0228 14.5538C20.1195 14.5371 20.1937 14.4846 20.2421 14.4058C20.1615 14.3437 20.0712 14.3103 19.9713 14.3175C19.8133 14.3318 19.6586 14.3509 19.5039 14.3748C19.4072 14.3891 19.3138 14.4416 19.2912 14.5228C19.2687 14.5848 19.4845 14.6206 19.7102 14.592ZM175.748 14.2244C175.79 14.2459 175.832 14.2888 175.874 14.2888C175.977 14.2888 176.083 14.2745 176.18 14.2506C176.222 14.2411 176.254 14.1981 176.273 14.1647C176.286 14.1432 176.283 14.105 176.264 14.0859C176.17 13.9714 175.796 14.0119 175.735 14.1432C175.729 14.1671 175.745 14.1981 175.748 14.2244ZM165.579 1.15303C165.588 1.19123 165.592 1.22941 165.604 1.26761C165.63 1.33922 165.701 1.39174 165.804 1.42755C165.885 1.36787 165.927 1.30104 165.924 1.22943C165.92 1.19124 165.911 1.15302 165.898 1.11483C165.872 1.04322 165.801 0.990725 165.698 0.95492C165.617 1.01221 165.579 1.07903 165.579 1.15303ZM224.79 32.4302C224.761 32.4613 224.732 32.4923 224.7 32.5209C224.787 32.5902 224.867 32.6116 224.928 32.5734C224.967 32.5496 224.99 32.5138 225.019 32.4827C224.932 32.4135 224.854 32.3944 224.79 32.4302ZM222.785 32.7549C222.827 32.7763 222.866 32.805 222.911 32.8193C222.985 32.8432 223.052 32.8026 223.104 32.7167C223.062 32.6952 223.023 32.6665 222.978 32.6522C222.904 32.6283 222.836 32.6689 222.785 32.7549ZM224.055 32.318C224.032 32.3753 224.077 32.4231 224.197 32.4636C224.226 32.4326 224.264 32.404 224.284 32.3705C224.316 32.3156 224.261 32.2655 224.145 32.2273C224.113 32.256 224.084 32.287 224.055 32.318ZM217.251 29.7448C217.228 29.8021 217.273 29.8498 217.392 29.8904C217.421 29.8594 217.46 29.8307 217.479 29.7973C217.512 29.7424 217.457 29.6923 217.341 29.6541C217.309 29.6828 217.28 29.7138 217.251 29.7448ZM207.981 12.8542C207.952 12.8853 207.923 12.9163 207.89 12.9449C207.977 13.0142 208.058 13.0356 208.119 12.9974C208.158 12.9736 208.18 12.9378 208.209 12.9067C208.122 12.8375 208.045 12.8184 207.981 12.8542ZM199.1 3.89333C199.178 3.91004 199.242 3.87664 199.297 3.78832C199.255 3.76683 199.216 3.73819 199.171 3.72386C199.097 3.69999 199.03 3.74058 198.978 3.82652C199.02 3.85039 199.062 3.87185 199.1 3.89333ZM194.385 3.33239C194.356 3.36342 194.327 3.39445 194.295 3.4231C194.382 3.49232 194.462 3.5138 194.523 3.4756C194.562 3.45173 194.585 3.41593 194.614 3.3849C194.527 3.31567 194.449 3.29897 194.385 3.33239ZM162.407 1.15064C162.378 1.18167 162.349 1.21271 162.317 1.24135C162.404 1.31058 162.484 1.33205 162.546 1.29386C162.584 1.26999 162.607 1.23418 162.636 1.20315C162.549 1.13393 162.471 1.11722 162.407 1.15064ZM3.18131 20.5715C3.13941 20.55 3.09754 20.5285 3.05887 20.5047C2.96539 20.5691 2.93639 20.6288 2.98796 20.6741C3.0202 20.7028 3.06851 20.7195 3.11041 20.741C3.20711 20.6765 3.22966 20.6192 3.18131 20.5715Z" fill="#4F9CF9"/>
<path d="M21.8786 12.142C21.5079 12.1874 21.1405 12.2446 20.7698 12.2733C20.5732 12.2876 20.5023 12.3902 20.4217 12.4857C20.3573 12.5621 20.2831 12.586 20.1639 12.6003C19.1582 12.7173 18.1558 12.8414 17.1533 12.9631C17.0276 12.9321 16.9664 12.882 16.9954 12.8223C17.0115 12.7865 17.0502 12.7364 17.0889 12.7316C17.7754 12.6433 18.4587 12.5525 19.1485 12.4833C19.3451 12.4642 19.3999 12.3592 19.4999 12.2733C19.5321 12.2446 19.5579 12.2017 19.5998 12.1849C19.6417 12.1659 19.7029 12.1682 19.7577 12.1635C20.8665 12.0274 21.9754 11.8938 23.0842 11.7577C23.2099 11.7887 23.2711 11.8388 23.2421 11.8985C23.226 11.9343 23.1873 11.9845 23.1486 11.9892C22.7231 12.0394 22.3008 12.0895 21.8786 12.142Z" fill="#4F9CF9"/>
<path d="M224.833 24.853C224.665 24.8817 224.452 24.9222 224.278 24.7838C224.194 24.7169 224.104 24.6955 223.995 24.7098C223.837 24.7337 223.675 24.7528 223.514 24.7671C223.472 24.7695 223.418 24.7432 223.376 24.7217C223.285 24.6787 223.208 24.6072 223.111 24.5881C223.015 24.569 222.899 24.6215 222.799 24.6095C222.667 24.5928 222.612 24.5284 222.647 24.4687C222.667 24.4353 222.705 24.3875 222.747 24.3804C223.344 24.2921 223.347 24.2921 223.514 24.378C223.643 24.4448 223.763 24.5188 223.946 24.4782C224.101 24.4448 224.265 24.4377 224.423 24.4162C224.642 24.3875 224.642 24.3899 224.997 24.5403C225.087 24.5785 225.184 24.5761 225.3 24.5546C225.4 24.5379 225.497 24.5761 225.577 24.6406C225.526 24.7217 225.451 24.7742 225.352 24.7886C225.19 24.8124 225.032 24.8291 224.833 24.853Z" fill="#4F9CF9"/>
<path d="M218.902 24.1204C219.308 24.0702 219.718 24.0273 220.124 23.97C220.292 23.9461 220.424 23.9724 220.54 24.0536C220.665 24.1419 220.807 24.1347 220.962 24.118C221.059 24.1085 221.152 24.1466 221.217 24.2135C221.242 24.2397 221.236 24.2875 221.246 24.3257C220.891 24.3686 220.533 24.414 220.176 24.4522C220.134 24.4569 220.082 24.4331 220.043 24.414C219.956 24.3734 219.882 24.3018 219.789 24.2875C219.589 24.2541 219.389 24.3185 219.186 24.3304C219.089 24.3352 218.996 24.2994 218.931 24.235C218.906 24.2039 218.912 24.1586 218.902 24.1204Z" fill="#4F9CF9"/>
<path d="M72.1267 3.59349C72.5489 3.54097 72.9711 3.49087 73.3934 3.43835C73.5191 3.47177 73.5771 3.51951 73.5513 3.57918C73.5352 3.61499 73.4965 3.66511 73.4578 3.66989C72.6133 3.77731 71.7689 3.87993 70.9276 3.98257C70.8019 3.94916 70.7439 3.90142 70.7697 3.84175C70.7858 3.80594 70.8245 3.75581 70.8632 3.75104C71.2822 3.69614 71.7044 3.646 72.1267 3.59349Z" fill="#4F9CF9"/>
<path d="M7.06478 16.8604C6.87461 16.8652 6.67481 16.9535 6.46208 16.8866C6.42017 16.8747 6.36214 16.8365 6.36536 16.815C6.37181 16.7792 6.41049 16.7339 6.4524 16.7195C6.63612 16.6599 6.865 16.6527 6.95847 16.4856C7.0036 16.3997 7.0874 16.371 7.20021 16.3543C7.31947 16.3352 7.40325 16.3424 7.49673 16.3925C7.61921 16.457 7.72237 16.5763 7.91577 16.5142C7.92544 16.5524 7.94794 16.5954 7.93827 16.6312C7.9286 16.667 7.88677 16.7004 7.84809 16.7267C7.81264 16.7506 7.76424 16.772 7.71911 16.7792C7.50638 16.8078 7.29364 16.8317 7.06478 16.8604Z" fill="#4F9CF9"/>
<path d="M174.702 16.3787C174.86 16.3596 175.025 16.3501 175.179 16.3167C175.302 16.2904 175.379 16.3071 175.476 16.3644C175.64 16.4647 175.65 16.4551 176.053 16.4694C176.098 16.4718 176.153 16.5076 176.179 16.5386C176.195 16.5554 176.172 16.6007 176.153 16.6246C176.124 16.6556 176.082 16.6962 176.043 16.6962C175.789 16.7034 175.531 16.8442 175.283 16.6819C175.157 16.6007 175.018 16.5625 174.847 16.5983C174.744 16.6198 174.635 16.6294 174.528 16.6389C174.425 16.6485 174.319 16.6222 174.254 16.5506C174.161 16.4456 174.216 16.405 174.383 16.4122C174.49 16.4169 174.596 16.3907 174.702 16.3787Z" fill="#4F9CF9"/>
<path d="M233.116 32.8325C233.319 32.8087 233.522 32.78 233.728 32.7609C233.77 32.7562 233.822 32.7824 233.86 32.7991C234.015 32.8708 233.993 32.9925 233.999 33.0999C234.002 33.2121 233.644 33.3028 233.493 33.2264C233.325 33.1405 233.174 33.0426 232.942 33.0951C232.852 33.1142 232.745 33.0713 232.687 33.002C232.6 32.9018 232.649 32.8612 232.813 32.8684C232.91 32.8731 233.013 32.8469 233.116 32.8325Z" fill="#4F9CF9"/>
<path d="M130.784 0.345746C130.993 0.319489 131.203 0.278929 131.412 0.276542C131.535 0.274155 131.596 0.352912 131.567 0.410201C131.551 0.446006 131.512 0.496135 131.474 0.500909C131.055 0.558197 130.636 0.605946 130.217 0.65846C130.094 0.625042 130.033 0.574923 130.062 0.517634C130.078 0.481829 130.117 0.434087 130.155 0.426926C130.365 0.393508 130.574 0.372003 130.784 0.345746Z" fill="#4F9CF9"/>
<path d="M229.093 25.0637C229.296 25.0399 229.502 25.004 229.705 24.9921C229.812 24.9873 229.896 25.0422 229.909 25.1043C229.915 25.1329 229.863 25.1831 229.821 25.195C229.531 25.2762 229.219 25.2857 228.916 25.3263C228.819 25.3382 228.716 25.3 228.658 25.2332C228.571 25.1306 228.619 25.0924 228.784 25.0995C228.887 25.1019 228.99 25.0757 229.093 25.0637Z" fill="#4F9CF9"/>
<path d="M180.018 16.7009C180.121 16.6889 180.228 16.6579 180.327 16.6674C180.434 16.6794 180.502 16.7486 180.534 16.8178C180.569 16.8966 180.566 16.9706 180.534 17.0374C180.482 17.152 180.431 17.1473 180.311 17.0709C180.128 16.9515 180.115 16.9658 179.75 16.9706C179.709 16.9706 179.657 16.9348 179.625 16.9038C179.576 16.856 179.602 16.782 179.715 16.7391C179.799 16.708 179.915 16.7128 180.018 16.7009Z" fill="#4F9CF9"/>
<path d="M221.547 24.2818C221.698 24.2627 221.849 24.2316 222.001 24.2316C222.107 24.2293 222.191 24.2842 222.201 24.3438C222.204 24.3725 222.156 24.4202 222.117 24.4345C221.933 24.499 221.727 24.5038 221.527 24.5252C221.434 24.5348 221.331 24.4966 221.272 24.4298C221.185 24.3295 221.237 24.2841 221.395 24.2985C221.443 24.3032 221.495 24.2889 221.547 24.2818Z" fill="#4F9CF9"/>
<path d="M197.702 21.3545C197.477 21.3832 197.264 21.3474 197.28 21.2853C197.303 21.2042 197.396 21.1516 197.493 21.1373C197.648 21.1134 197.802 21.0943 197.96 21.08C198.06 21.0705 198.15 21.1063 198.231 21.1683C198.183 21.2447 198.109 21.2996 198.012 21.3163C197.912 21.333 197.806 21.3426 197.702 21.3545Z" fill="#4F9CF9"/>
<path d="M196.22 21.0462C196.372 21.0271 196.523 20.996 196.675 20.996C196.781 20.9937 196.865 21.0486 196.875 21.1082C196.878 21.1369 196.83 21.1846 196.791 21.1989C196.607 21.2634 196.401 21.2682 196.201 21.2896C196.108 21.2992 196.004 21.261 195.946 21.1942C195.859 21.0939 195.911 21.0486 196.069 21.0629C196.117 21.0677 196.169 21.0533 196.22 21.0462Z" fill="#4F9CF9"/>
<path d="M178.195 16.6826C178.346 16.6635 178.498 16.6325 178.649 16.6301C178.756 16.6277 178.84 16.6826 178.849 16.7423C178.852 16.7709 178.804 16.8163 178.765 16.833C178.582 16.8974 178.375 16.9022 178.176 16.9237C178.082 16.9333 177.979 16.8951 177.921 16.8282C177.834 16.728 177.885 16.6826 178.043 16.6969C178.092 16.7017 178.143 16.6874 178.195 16.6826Z" fill="#4F9CF9"/>
<path d="M177.348 16.5429C177.509 16.5238 177.56 16.5118 177.612 16.5118C177.709 16.5118 177.809 16.5405 177.867 16.6097C177.954 16.71 177.902 16.7386 177.744 16.7434C177.541 16.7482 177.341 16.7983 177.138 16.8079C177.032 16.8126 176.948 16.7553 176.942 16.6956C176.938 16.667 176.987 16.6169 177.025 16.6073C177.161 16.5715 177.309 16.55 177.348 16.5429Z" fill="#4F9CF9"/>
<path d="M194.912 2.49766C194.809 2.50959 194.7 2.54302 194.603 2.53108C194.474 2.51437 194.422 2.44993 194.455 2.39025C194.474 2.35684 194.509 2.3091 194.548 2.30193C194.754 2.26852 194.964 2.24701 195.17 2.22314C195.293 2.25895 195.347 2.30907 195.315 2.36875C195.296 2.40217 195.26 2.44752 195.222 2.45707C195.122 2.48094 195.015 2.48572 194.912 2.49766Z" fill="#4F9CF9"/>
<path d="M69.816 3.87562C69.916 3.87323 70.0062 3.90426 70.0835 3.96394C70.0352 4.04032 69.9643 4.09045 69.8676 4.11193C69.8192 4.12148 69.7644 4.12863 69.7129 4.13102C69.6129 4.13579 69.5227 4.10237 69.4453 4.0427C69.4937 3.96631 69.5678 3.91619 69.6612 3.8947C69.7096 3.88515 69.7645 3.88278 69.816 3.87562Z" fill="#4F9CF9"/>
<path d="M227.992 25.055C227.989 24.9857 228.186 24.907 228.363 24.9094C228.456 24.9117 228.553 24.9452 228.608 25.0096C228.692 25.1075 228.643 25.1457 228.485 25.1385C228.389 25.1337 228.285 25.1743 228.189 25.1671C228.079 25.1648 228.015 25.1122 227.992 25.055Z" fill="#4F9CF9"/>
<path d="M180.958 16.9916C180.955 16.9653 180.939 16.9343 180.948 16.9104C181.01 16.7792 181.38 16.7386 181.477 16.8532C181.493 16.8746 181.5 16.9104 181.487 16.9319C181.467 16.9653 181.432 17.0083 181.393 17.0178C181.293 17.0417 181.19 17.0537 181.087 17.056C181.042 17.056 181 17.0155 180.958 16.9916Z" fill="#4F9CF9"/>
<path d="M8.21135 16.4757C7.83101 16.5258 7.82456 16.521 7.89225 16.4017C7.95349 16.2943 8.06632 16.2298 8.23071 16.2298C8.27906 16.2298 8.33061 16.2251 8.37251 16.2346C8.41764 16.2465 8.48214 16.2704 8.49181 16.299C8.51115 16.3539 8.4563 16.4136 8.35961 16.4542C8.3177 16.4733 8.26292 16.4685 8.21135 16.4757Z" fill="#4F9CF9"/>
<path d="M74.5771 3.54019C74.4643 3.58077 74.3676 3.56646 74.2967 3.49008C74.2258 3.41369 74.3386 3.32297 74.5352 3.30149C74.5868 3.29672 74.6416 3.27764 74.6899 3.28718C74.7383 3.29435 74.7867 3.32296 74.8157 3.35161C74.8673 3.39935 74.835 3.46382 74.7319 3.51872C74.69 3.5402 74.6287 3.53542 74.5771 3.54019Z" fill="#4F9CF9"/>
<path d="M227.323 24.8753C227.352 24.8442 227.381 24.8132 227.413 24.7845C227.533 24.8251 227.584 24.8729 227.552 24.9278C227.533 24.9612 227.494 24.9898 227.465 25.0209C227.346 24.9803 227.297 24.9302 227.323 24.8753Z" fill="#4F9CF9"/>
<path d="M13.3145 43.6516C13.3145 43.623 13.3596 43.5776 13.395 43.5681C13.4627 43.5514 13.5465 43.5848 13.6045 43.6516C13.6851 43.7471 13.6368 43.7972 13.4885 43.771C13.3854 43.7519 13.3145 43.7042 13.3145 43.6516Z" fill="#4F9CF9"/>
<path d="M182.267 14.7677C182.309 14.7892 182.351 14.8107 182.389 14.8345C182.335 14.9229 182.267 14.961 182.196 14.9372C182.151 14.9229 182.112 14.8942 182.07 14.8727C182.125 14.7844 182.19 14.751 182.267 14.7677Z" fill="#4F9CF9"/>
<path d="M181.155 14.6609C181.22 14.6251 181.297 14.6442 181.387 14.7134C181.358 14.7444 181.333 14.7802 181.297 14.8041C181.236 14.8423 181.155 14.8232 181.068 14.7516C181.094 14.7229 181.123 14.6919 181.155 14.6609Z" fill="#4F9CF9"/>
<path d="M180.3 14.7663C180.342 14.7878 180.384 14.8093 180.423 14.8332C180.368 14.9215 180.303 14.9597 180.229 14.9358C180.184 14.9215 180.145 14.8928 180.104 14.8714C180.158 14.783 180.223 14.7473 180.3 14.7663Z" fill="#4F9CF9"/>
<path d="M179.673 14.6387C179.721 14.6865 179.695 14.7438 179.602 14.8082C179.56 14.7867 179.511 14.77 179.479 14.7414C179.428 14.696 179.453 14.6363 179.55 14.5719C179.589 14.5958 179.631 14.6173 179.673 14.6387Z" fill="#4F9CF9"/>
</svg>
